Athiti-600.ufo
<glyph name="numbersign" format="1">
  <advance width="701"/>
  <unicode hex="0023"/>
  <note>
	numbersign
  </note>
  <outline>
    <contour>
      <point x="267" y="161" type="line"/>
      <point x="383" y="161" type="line"/>
      <point x="361" y="0" type="line"/>
      <point x="466" y="-4" type="line"/>
      <point x="488" y="161" type="line"/>
      <point x="612" y="161" type="line"/>
      <point x="612" y="256" type="line"/>
      <point x="501" y="256" type="line"/>
      <point x="515" y="365" type="line"/>
      <point x="635" y="365" type="line"/>
      <point x="635" y="460" type="line"/>
      <point x="528" y="460" type="line"/>
      <point x="550" y="623" type="line"/>
      <point x="447" y="626" type="line"/>
      <point x="424" y="460" type="line"/>
      <point x="307" y="460" type="line"/>
      <point x="329" y="623" type="line"/>
      <point x="226" y="626" type="line"/>
      <point x="203" y="460" type="line"/>
      <point x="80" y="460" type="line"/>
      <point x="80" y="365" type="line"/>
      <point x="190" y="365" type="line"/>
      <point x="175" y="256" type="line"/>
      <point x="56" y="256" type="line"/>
      <point x="56" y="161" type="line"/>
      <point x="162" y="161" type="line"/>
      <point x="140" y="0" type="line"/>
      <point x="245" y="-4" type="line"/>
    </contour>
    <contour>
      <point x="294" y="365" type="line"/>
      <point x="411" y="365" type="line"/>
      <point x="396" y="256" type="line"/>
      <point x="280" y="256" type="line"/>
    </contour>
  </outline>
</glyph>
<glyph name="percent" format="1">
  <advance width="762"/>
  <unicode hex="0025"/>
  <note>
	percent
  </note>
  <outline>
    <contour>
      <point x="606" y="587" type="line"/>
      <point x="525" y="617" type="line"/>
      <point x="159" y="18" type="line"/>
      <point x="236" y="-18" type="line"/>
    </contour>
    <contour>
      <point x="286" y="308"/>
      <point x="329" y="364"/>
      <point x="329" y="463" type="curve" smooth="yes"/>
      <point x="329" y="561"/>
      <point x="281" y="608"/>
      <point x="202" y="608" type="curve" smooth="yes"/>
      <point x="109" y="608"/>
      <point x="66" y="550"/>
      <point x="66" y="451" type="curve" smooth="yes"/>
      <point x="66" y="353"/>
      <point x="114" y="308"/>
      <point x="193" y="308" type="curve" smooth="yes"/>
    </contour>
    <contour>
      <point x="152" y="378"/>
      <point x="145" y="400"/>
      <point x="145" y="461" type="curve" smooth="yes"/>
      <point x="145" y="488"/>
      <point x="147" y="508"/>
      <point x="152" y="530" type="curve"/>
      <point x="163" y="535"/>
      <point x="176" y="537"/>
      <point x="195" y="537" type="curve" smooth="yes"/>
      <point x="240" y="537"/>
      <point x="252" y="520"/>
      <point x="252" y="455" type="curve" smooth="yes"/>
      <point x="252" y="427"/>
      <point x="250" y="407"/>
      <point x="244" y="385" type="curve"/>
      <point x="234" y="381"/>
      <point x="220" y="378"/>
      <point x="201" y="378" type="curve" smooth="yes"/>
    </contour>
    <contour>
      <point x="652" y="-10"/>
      <point x="695" y="47"/>
      <point x="695" y="146" type="curve" smooth="yes"/>
      <point x="695" y="244"/>
      <point x="647" y="290"/>
      <point x="568" y="290" type="curve" smooth="yes"/>
      <point x="475" y="290"/>
      <point x="432" y="232"/>
      <point x="432" y="133" type="curve" smooth="yes"/>
      <point x="432" y="35"/>
      <point x="480" y="-10"/>
      <point x="559" y="-10" type="curve" smooth="yes"/>
    </contour>
    <contour>
      <point x="518" y="61"/>
      <point x="511" y="83"/>
      <point x="511" y="143" type="curve" smooth="yes"/>
      <point x="511" y="171"/>
      <point x="513" y="190"/>
      <point x="518" y="212" type="curve"/>
      <point x="529" y="217"/>
      <point x="542" y="220"/>
      <point x="561" y="220" type="curve" smooth="yes"/>
      <point x="606" y="220"/>
      <point x="618" y="202"/>
      <point x="618" y="137" type="curve" smooth="yes"/>
      <point x="618" y="109"/>
      <point x="616" y="89"/>
      <point x="610" y="68" type="curve"/>
      <point x="600" y="63"/>
      <point x="586" y="61"/>
      <point x="567" y="61" type="curve" smooth="yes"/>
    </contour>
  </outline>
</glyph>
<glyph name="quotesingle" format="1">
  <advance width="246"/>
  <unicode hex="0027"/>
  <note>
	quotesingle
  </note>
  <outline>
    <contour>
      <point x="160" y="419" type="line"/>
      <point x="169" y="544" type="line" smooth="yes"/>
      <point x="170" y="567"/>
      <point x="170" y="590"/>
      <point x="166" y="616" type="curve"/>
      <point x="80" y="616" type="line"/>
      <point x="76" y="590"/>
      <point x="76" y="567"/>
      <point x="77" y="544" type="curve" smooth="yes"/>
      <point x="86" y="419" type="line"/>
    </contour>
  </outline>
</glyph>
<glyph name="parenleft" format="1">
  <advance width="326"/>
  <unicode hex="0028"/>
  <note>
	parenleft
  </note>
  <outline>
    <contour>
      <point x="204" y="-98"/>
      <point x="238" y="-93"/>
      <point x="258" y="-87" type="curve"/>
      <point x="258" y="0" type="line"/>
      <point x="180" y="0" type="line"/>
      <point x="180" y="616" type="line"/>
      <point x="258" y="616" type="line"/>
      <point x="258" y="703" type="line"/>
      <point x="238" y="709"/>
      <point x="204" y="714"/>
      <point x="171" y="713" type="curve"/>
      <point x="123" y="700"/>
      <point x="78" y="660"/>
      <point x="71" y="620" type="curve"/>
      <point x="71" y="-4" type="line"/>
      <point x="78" y="-44"/>
      <point x="123" y="-84"/>
      <point x="171" y="-97" type="curve"/>
    </contour>
  </outline>
</glyph>
<glyph name="asterisk" format="1">
  <advance width="456"/>
  <unicode hex="002A"/>
  <note>
	asterisk
  </note>
  <outline>
    <contour>
      <point x="224" y="413" type="line"/>
      <point x="231" y="413" type="line"/>
      <point x="297" y="306" type="line"/>
      <point x="366" y="355" type="line"/>
      <point x="285" y="454" type="line"/>
      <point x="287" y="459" type="line"/>
      <point x="399" y="487" type="line"/>
      <point x="372" y="568" type="line"/>
      <point x="265" y="522" type="line"/>
      <point x="261" y="526" type="line"/>
      <point x="270" y="647" type="line"/>
      <point x="185" y="647" type="line"/>
      <point x="194" y="526" type="line"/>
      <point x="189" y="522" type="line"/>
      <point x="83" y="568" type="line"/>
      <point x="56" y="487" type="line"/>
      <point x="169" y="459" type="line"/>
      <point x="171" y="454" type="line"/>
      <point x="89" y="355" type="line"/>
      <point x="158" y="306" type="line"/>
    </contour>
  </outline>
</glyph>
<glyph name="plus" format="1">
  <advance width="557"/>
  <unicode hex="002B"/>
  <note>
	plus
  </note>
  <outline>
    <contour>
      <point x="329" y="82" type="line"/>
      <point x="329" y="259" type="line"/>
      <point x="511" y="259" type="line"/>
      <point x="511" y="351" type="line"/>
      <point x="329" y="351" type="line"/>
      <point x="329" y="514" type="line"/>
      <point x="228" y="514" type="line"/>
      <point x="228" y="351" type="line"/>
      <point x="46" y="351" type="line"/>
      <point x="46" y="259" type="line"/>
      <point x="228" y="259" type="line"/>
      <point x="228" y="82" type="line"/>
    </contour>
  </outline>
</glyph>
<glyph name="hyphen" format="1">
  <advance width="447"/>
  <unicode hex="002D"/>
  <note>
	hyphen
  </note>
  <outline>
    <contour>
      <point x="376" y="219" type="line"/>
      <point x="376" y="316" type="line"/>
      <point x="71" y="316" type="line"/>
      <point x="71" y="219" type="line"/>
    </contour>
  </outline>
</glyph>
<glyph name="period" format="1">
  <advance width="261"/>
  <unicode hex="002E"/>
  <note>
	period
  </note>
  <outline>
    <contour>
      <point x="189" y="0" type="line"/>
      <point x="189" y="116" type="line"/>
      <point x="71" y="116" type="line"/>
      <point x="71" y="0" type="line"/>
    </contour>
  </outline>
</glyph>
<glyph name="slash" format="1">
  <advance width="464"/>
  <unicode hex="002F"/>
  <note>
	slash
  </note>
  <outline>
    <contour>
      <point x="410" y="643" type="line"/>
      <point x="315" y="666" type="line"/>
      <point x="54" y="-74" type="line"/>
      <point x="149" y="-98" type="line"/>
    </contour>
  </outline>
</glyph>
<glyph name="colon" format="1">
  <advance width="261"/>
  <unicode hex="003A"/>
  <note>
	colon
  </note>
  <outline>
    <contour>
      <point x="189" y="321" type="line"/>
      <point x="189" y="437" type="line"/>
      <point x="71" y="437" type="line"/>
      <point x="71" y="321" type="line"/>
    </contour>
    <contour>
      <point x="189" y="0" type="line"/>
      <point x="189" y="116" type="line"/>
      <point x="71" y="116" type="line"/>
      <point x="71" y="0" type="line"/>
    </contour>
  </outline>
</glyph>
<glyph name="semicolon" format="1">
  <advance width="282"/>
  <unicode hex="003B"/>
  <note>
	semicolon
  </note>
  <outline>
    <contour>
      <point x="190" y="-22"/>
      <point x="211" y="25"/>
      <point x="211" y="68" type="curve" smooth="yes"/>
      <point x="211" y="119"/>
      <point x="187" y="145"/>
      <point x="134" y="145" type="curve" smooth="yes"/>
      <point x="113" y="145"/>
      <point x="89" y="141"/>
      <point x="71" y="134" type="curve"/>
      <point x="71" y="61" type="line"/>
      <point x="124" y="61" type="line"/>
      <point x="123" y="26"/>
      <point x="112" y="-6"/>
      <point x="92" y="-41" type="curve"/>
      <point x="159" y="-56" type="line"/>
    </contour>
    <contour>
      <point x="193" y="321" type="line"/>
      <point x="193" y="437" type="line"/>
      <point x="75" y="437" type="line"/>
      <point x="75" y="321" type="line"/>
    </contour>
  </outline>
</glyph>
<glyph name="less" format="1">
  <advance width="583"/>
  <unicode hex="003C"/>
  <note>
	less
  </note>
  <outline>
    <contour>
      <point x="512" y="127" type="line"/>
      <point x="166" y="251" type="line"/>
      <point x="166" y="257" type="line"/>
      <point x="512" y="382" type="line"/>
      <point x="480" y="482" type="line"/>
      <point x="51" y="305" type="line"/>
      <point x="51" y="204" type="line"/>
      <point x="480" y="27" type="line"/>
    </contour>
  </outline>
</glyph>
<glyph name="equal" format="1">
  <advance width="577"/>
  <unicode hex="003D"/>
  <note>
	equal
  </note>
  <outline>
    <contour>
      <point x="511" y="97" type="line"/>
      <point x="511" y="194" type="line"/>
      <point x="66" y="194" type="line"/>
      <point x="66" y="97" type="line"/>
    </contour>
    <contour>
      <point x="511" y="301" type="line"/>
      <point x="511" y="397" type="line"/>
      <point x="66" y="397" type="line"/>
      <point x="66" y="301" type="line"/>
    </contour>
  </outline>
</glyph>
<glyph name="greater" format="1">
  <advance width="583"/>
  <unicode hex="003E"/>
  <note>
	greater
  </note>
  <outline>
    <contour>
      <point x="532" y="204" type="line"/>
      <point x="532" y="305" type="line"/>
      <point x="103" y="482" type="line"/>
      <point x="71" y="382" type="line"/>
      <point x="417" y="257" type="line"/>
      <point x="417" y="251" type="line"/>
      <point x="71" y="127" type="line"/>
      <point x="103" y="27" type="line"/>
    </contour>
  </outline>
</glyph>
<glyph name="question" format="1">
  <advance width="540"/>
  <unicode hex="003F"/>
  <note>
	question
  </note>
  <outline>
    <contour>
      <point x="295" y="157" type="line"/>
      <point x="295" y="211" type="line" smooth="yes"/>
      <point x="295" y="232"/>
      <point x="297" y="242"/>
      <point x="310" y="252" type="curve" smooth="yes"/>
      <point x="415" y="325" type="line"/>
      <point x="466" y="363"/>
      <point x="480" y="401"/>
      <point x="480" y="463" type="curve" smooth="yes"/>
      <point x="480" y="565"/>
      <point x="416" y="629"/>
      <point x="269" y="629" type="curve" smooth="yes"/>
      <point x="180" y="629"/>
      <point x="97" y="603"/>
      <point x="56" y="578" type="curve"/>
      <point x="56" y="547" type="line" smooth="yes"/>
      <point x="56" y="515"/>
      <point x="61" y="480"/>
      <point x="70" y="450" type="curve"/>
      <point x="159" y="450" type="line"/>
      <point x="159" y="515" type="line"/>
      <point x="191" y="524"/>
      <point x="224" y="528"/>
      <point x="267" y="528" type="curve" smooth="yes"/>
      <point x="336" y="528"/>
      <point x="371" y="512"/>
      <point x="371" y="458" type="curve" smooth="yes"/>
      <point x="371" y="409" type="line"/>
      <point x="212" y="293" type="line" smooth="yes"/>
      <point x="192" y="278"/>
      <point x="186" y="262"/>
      <point x="186" y="233" type="curve" smooth="yes"/>
      <point x="186" y="157" type="line"/>
    </contour>
    <contour>
      <point x="297" y="0" type="line"/>
      <point x="297" y="102" type="line"/>
      <point x="185" y="102" type="line"/>
      <point x="185" y="0" type="line"/>
    </contour>
  </outline>
</glyph>
<glyph name="at" format="1">
  <advance width="790"/>
  <unicode hex="0040"/>
  <note>
	at
  </note>
  <outline>
    <contour>
      <point x="513" y="-59"/>
      <point x="615" y="-34"/>
      <point x="671" y="5" type="curve"/>
      <point x="641" y="73" type="line"/>
      <point x="586" y="42"/>
      <point x="519" y="19"/>
      <point x="415" y="19" type="curve" smooth="yes"/>
      <point x="244" y="19"/>
      <point x="148" y="93"/>
      <point x="148" y="268" type="curve" smooth="yes"/>
      <point x="148" y="418"/>
      <point x="238" y="531"/>
      <point x="410" y="531" type="curve" smooth="yes"/>
      <point x="571" y="531"/>
      <point x="645" y="445"/>
      <point x="645" y="321" type="curve" smooth="yes"/>
      <point x="645" y="266"/>
      <point x="637" y="223"/>
      <point x="623" y="190" type="curve"/>
      <point x="608" y="186"/>
      <point x="592" y="185"/>
      <point x="573" y="185" type="curve" smooth="yes"/>
      <point x="553" y="185"/>
      <point x="533" y="189"/>
      <point x="517" y="198" type="curve"/>
      <point x="556" y="410" type="line"/>
      <point x="488" y="421" type="line"/>
      <point x="474" y="391" type="line"/>
      <point x="470" y="391" type="line"/>
      <point x="453" y="414"/>
      <point x="431" y="433"/>
      <point x="388" y="433" type="curve" smooth="yes"/>
      <point x="281" y="433"/>
      <point x="236" y="336"/>
      <point x="236" y="242" type="curve" smooth="yes"/>
      <point x="236" y="164"/>
      <point x="280" y="112"/>
      <point x="351" y="112" type="curve" smooth="yes"/>
      <point x="401" y="112"/>
      <point x="430" y="128"/>
      <point x="458" y="158" type="curve"/>
      <point x="464" y="158" type="line"/>
      <point x="490" y="125"/>
      <point x="518" y="110"/>
      <point x="563" y="110" type="curve" smooth="yes"/>
      <point x="686" y="110"/>
      <point x="732" y="216"/>
      <point x="732" y="325" type="curve" smooth="yes"/>
      <point x="732" y="486"/>
      <point x="619" y="609"/>
      <point x="412" y="609" type="curve" smooth="yes"/>
      <point x="180" y="609"/>
      <point x="61" y="455"/>
      <point x="61" y="268" type="curve" smooth="yes"/>
      <point x="61" y="61"/>
      <point x="175" y="-59"/>
      <point x="412" y="-59" type="curve" smooth="yes"/>
    </contour>
    <contour>
      <point x="343" y="187"/>
      <point x="332" y="208"/>
      <point x="332" y="241" type="curve" smooth="yes"/>
      <point x="332" y="307"/>
      <point x="359" y="356"/>
      <point x="406" y="356" type="curve" smooth="yes"/>
      <point x="425" y="356"/>
      <point x="437" y="349"/>
      <point x="448" y="333" type="curve"/>
      <point x="426" y="205" type="line"/>
      <point x="412" y="192"/>
      <point x="397" y="187"/>
      <point x="374" y="187" type="curve" smooth="yes"/>
    </contour>
  </outline>
</glyph>
<glyph name="D" format="1">
  <advance width="603"/>
  <unicode hex="0044"/>
  <note>
	D
  </note>
  <outline>
    <contour>
      <point x="227" y="0" type="line" smooth="yes"/>
      <point x="495" y="0"/>
      <point x="560" y="122"/>
      <point x="560" y="318" type="curve" smooth="yes"/>
      <point x="560" y="510"/>
      <point x="485" y="628"/>
      <point x="263" y="628" type="curve" smooth="yes"/>
      <point x="197" y="628"/>
      <point x="126" y="620"/>
      <point x="71" y="606" type="curve"/>
      <point x="71" y="0" type="line"/>
    </contour>
    <contour>
      <point x="180" y="521" type="line"/>
      <point x="210" y="525"/>
      <point x="235" y="527"/>
      <point x="265" y="527" type="curve" smooth="yes"/>
      <point x="406" y="527"/>
      <point x="450" y="461"/>
      <point x="450" y="307" type="curve" smooth="yes"/>
      <point x="450" y="236"/>
      <point x="439" y="167"/>
      <point x="421" y="122" type="curve"/>
      <point x="369" y="107"/>
      <point x="310" y="101"/>
      <point x="236" y="101" type="curve" smooth="yes"/>
      <point x="180" y="101" type="line"/>
    </contour>
  </outline>
</glyph>
<glyph name="H" format="1">
  <advance width="615"/>
  <unicode hex="0048"/>
  <note>
	H
  </note>
  <outline>
    <contour>
      <point x="180" y="0" type="line"/>
      <point x="180" y="248" type="line"/>
      <point x="435" y="248" type="line"/>
      <point x="435" y="0" type="line"/>
      <point x="545" y="0" type="line"/>
      <point x="545" y="618" type="line"/>
      <point x="435" y="618" type="line"/>
      <point x="435" y="350" type="line"/>
      <point x="180" y="350" type="line"/>
      <point x="180" y="618" type="line"/>
      <point x="70" y="618" type="line"/>
      <point x="70" y="0" type="line"/>
    </contour>
  </outline>
</glyph>
<glyph name="I" format="1">
  <advance width="258"/>
  <unicode hex="0049"/>
  <note>
	I
  </note>
  <outline>
    <contour>
      <point x="184" y="0" type="line"/>
      <point x="184" y="618" type="line"/>
      <point x="74" y="618" type="line"/>
      <point x="74" y="0" type="line"/>
    </contour>
  </outline>
</glyph>
<glyph name="N" format="1">
  <advance width="642"/>
  <unicode hex="004E"/>
  <note>
	N
  </note>
  <outline>
    <contour>
      <point x="181" y="0" type="line"/>
      <point x="181" y="316" type="line"/>
      <point x="170" y="476" type="line"/>
      <point x="178" y="478" type="line"/>
      <point x="436" y="0" type="line"/>
      <point x="571" y="0" type="line"/>
      <point x="571" y="618" type="line"/>
      <point x="460" y="618" type="line"/>
      <point x="460" y="301" type="line"/>
      <point x="471" y="142" type="line"/>
      <point x="463" y="140" type="line"/>
      <point x="206" y="618" type="line"/>
      <point x="71" y="618" type="line"/>
      <point x="71" y="0" type="line"/>
    </contour>
  </outline>
</glyph>
<glyph name="T" format="1">
  <advance width="570"/>
  <unicode hex="0054"/>
  <note>
	T
  </note>
  <outline>
    <contour>
      <point x="340" y="0" type="line"/>
      <point x="340" y="516" type="line"/>
      <point x="538" y="516" type="line"/>
      <point x="538" y="618" type="line"/>
      <point x="32" y="618" type="line"/>
      <point x="32" y="516" type="line"/>
      <point x="230" y="516" type="line"/>
      <point x="230" y="0" type="line"/>
    </contour>
  </outline>
</glyph>
<glyph name="bracketleft" format="1">
  <advance width="309"/>
  <unicode hex="005B"/>
  <note>
	bracketleft
  </note>
  <outline>
    <contour>
      <point x="241" y="-85" type="line"/>
      <point x="241" y="13" type="line"/>
      <point x="178" y="13" type="line"/>
      <point x="178" y="609" type="line"/>
      <point x="241" y="609" type="line"/>
      <point x="241" y="707" type="line"/>
      <point x="71" y="707" type="line"/>
      <point x="71" y="-85" type="line"/>
    </contour>
  </outline>
</glyph>
<glyph name="bracketright" format="1">
  <advance width="309"/>
  <unicode hex="005D"/>
  <note>
	bracketright
  </note>
  <outline>
    <contour>
      <point x="238" y="-85" type="line"/>
      <point x="238" y="707" type="line"/>
      <point x="68" y="707" type="line"/>
      <point x="68" y="609" type="line"/>
      <point x="131" y="609" type="line"/>
      <point x="131" y="13" type="line"/>
      <point x="68" y="13" type="line"/>
      <point x="68" y="-85" type="line"/>
    </contour>
  </outline>
</glyph>
<glyph name="underscore" format="1">
  <advance width="583"/>
  <unicode hex="005F"/>
  <note>
	underscore
  </note>
  <outline>
    <contour>
      <point x="527" y="-80" type="line"/>
      <point x="527" y="0" type="line"/>
      <point x="56" y="0" type="line"/>
      <point x="56" y="-80" type="line"/>
    </contour>
  </outline>
</glyph>
<glyph name="b" format="1">
  <advance width="548"/>
  <unicode hex="0062"/>
  <note>
	b
  </note>
  <outline>
    <contour>
      <point x="414" y="-8"/>
      <point x="502" y="81"/>
      <point x="502" y="247" type="curve" smooth="yes"/>
      <point x="502" y="371"/>
      <point x="458" y="480"/>
      <point x="326" y="480" type="curve" smooth="yes"/>
      <point x="265" y="480"/>
      <point x="215" y="445"/>
      <point x="179" y="405" type="curve"/>
      <point x="173" y="405" type="line"/>
      <point x="178" y="480" type="line"/>
      <point x="178" y="671" type="line"/>
      <point x="70" y="671" type="line"/>
      <point x="70" y="19" type="line"/>
      <point x="122" y="3"/>
      <point x="185" y="-8"/>
      <point x="253" y="-8" type="curve" smooth="yes"/>
    </contour>
    <contour>
      <point x="232" y="88"/>
      <point x="198" y="92"/>
      <point x="178" y="97" type="curve"/>
      <point x="178" y="330" type="line"/>
      <point x="210" y="365"/>
      <point x="248" y="383"/>
      <point x="292" y="383" type="curve" smooth="yes"/>
      <point x="360" y="383"/>
      <point x="390" y="339"/>
      <point x="390" y="244" type="curve" smooth="yes"/>
      <point x="390" y="128"/>
      <point x="351" y="88"/>
      <point x="263" y="88" type="curve" smooth="yes"/>
    </contour>
  </outline>
</glyph>
<glyph name="f" format="1">
  <advance width="367"/>
  <unicode hex="0066"/>
  <note>
	f
  </note>
  <outline>
    <contour>
      <point x="200" y="0" type="line"/>
      <point x="200" y="382" type="line"/>
      <point x="302" y="382" type="line"/>
      <point x="316" y="471" type="line"/>
      <point x="200" y="471" type="line"/>
      <point x="200" y="515" type="line" smooth="yes"/>
      <point x="200" y="534"/>
      <point x="201" y="551"/>
      <point x="207" y="567" type="curve"/>
      <point x="223" y="573"/>
      <point x="244" y="576"/>
      <point x="266" y="576" type="curve" smooth="yes"/>
      <point x="293" y="576"/>
      <point x="312" y="571"/>
      <point x="339" y="559" type="curve"/>
      <point x="368" y="651" type="line"/>
      <point x="341" y="664"/>
      <point x="307" y="674"/>
      <point x="267" y="674" type="curve" smooth="yes"/>
      <point x="243" y="674"/>
      <point x="214" y="672"/>
      <point x="187" y="667" type="curve"/>
      <point x="146" y="646"/>
      <point x="94" y="602"/>
      <point x="94" y="548" type="curve" smooth="yes"/>
      <point x="94" y="471" type="line"/>
      <point x="40" y="471" type="line"/>
      <point x="26" y="382" type="line"/>
      <point x="94" y="382" type="line"/>
      <point x="94" y="0" type="line"/>
    </contour>
  </outline>
</glyph>
<glyph name="g" format="1">
  <advance width="532"/>
  <unicode hex="0067"/>
  <note>
	g
  </note>
  <outline>
    <contour>
      <point x="377" y="-197"/>
      <point x="466" y="-152"/>
      <point x="466" y="-48" type="curve" smooth="yes"/>
      <point x="466" y="471" type="line"/>
      <point x="375" y="471" type="line"/>
      <point x="369" y="402" type="line"/>
      <point x="362" y="402" type="line"/>
      <point x="336" y="448"/>
      <point x="298" y="480"/>
      <point x="229" y="480" type="curve" smooth="yes"/>
      <point x="87" y="480"/>
      <point x="46" y="373"/>
      <point x="46" y="222" type="curve" smooth="yes"/>
      <point x="46" y="108"/>
      <point x="87" y="4"/>
      <point x="218" y="4" type="curve" smooth="yes"/>
      <point x="278" y="4"/>
      <point x="323" y="32"/>
      <point x="358" y="70" type="curve"/>
      <point x="366" y="70" type="line"/>
      <point x="363" y="8" type="line"/>
      <point x="363" y="-82" type="line"/>
      <point x="330" y="-96"/>
      <point x="301" y="-103"/>
      <point x="245" y="-103" type="curve" smooth="yes"/>
      <point x="194" y="-103"/>
      <point x="139" y="-89"/>
      <point x="99" y="-70" type="curve"/>
      <point x="76" y="-156" type="line"/>
      <point x="115" y="-180"/>
      <point x="182" y="-197"/>
      <point x="253" y="-197" type="curve" smooth="yes"/>
    </contour>
    <contour>
      <point x="183" y="100"/>
      <point x="156" y="143"/>
      <point x="156" y="234" type="curve" smooth="yes"/>
      <point x="156" y="334"/>
      <point x="176" y="383"/>
      <point x="248" y="383" type="curve" smooth="yes"/>
      <point x="298" y="383"/>
      <point x="332" y="359"/>
      <point x="359" y="325" type="curve"/>
      <point x="359" y="157" type="line"/>
      <point x="328" y="120"/>
      <point x="293" y="100"/>
      <point x="247" y="100" type="curve" smooth="yes"/>
    </contour>
  </outline>
</glyph>
<glyph name="h" format="1">
  <advance width="548"/>
  <unicode hex="0068"/>
  <note>
	h
  </note>
  <outline>
    <contour>
      <point x="177" y="0" type="line"/>
      <point x="177" y="329" type="line"/>
      <point x="210" y="363"/>
      <point x="250" y="381"/>
      <point x="311" y="381" type="curve" smooth="yes"/>
      <point x="329" y="381"/>
      <point x="353" y="379"/>
      <point x="374" y="372" type="curve"/>
      <point x="374" y="0" type="line"/>
      <point x="482" y="0" type="line"/>
      <point x="482" y="344" type="line" smooth="yes"/>
      <point x="482" y="441"/>
      <point x="433" y="480"/>
      <point x="342" y="480" type="curve" smooth="yes"/>
      <point x="270" y="480"/>
      <point x="219" y="447"/>
      <point x="180" y="400" type="curve"/>
      <point x="174" y="400" type="line"/>
      <point x="177" y="476" type="line"/>
      <point x="177" y="671" type="line"/>
      <point x="70" y="671" type="line"/>
      <point x="70" y="0" type="line"/>
    </contour>
  </outline>
</glyph>
<glyph name="k" format="1">
  <advance width="523"/>
  <unicode hex="006B"/>
  <note>
	k
  </note>
  <outline>
    <contour>
      <point x="454" y="-7"/>
      <point x="474" y="-3"/>
      <point x="492" y="2" type="curve"/>
      <point x="492" y="53" type="line"/>
      <point x="452" y="62" type="line"/>
      <point x="406" y="162" type="line"/>
      <point x="382" y="209"/>
      <point x="363" y="228"/>
      <point x="309" y="242" type="curve"/>
      <point x="309" y="248" type="line"/>
      <point x="365" y="264"/>
      <point x="390" y="289"/>
      <point x="407" y="330" type="curve" smooth="yes"/>
      <point x="456" y="443" type="line"/>
      <point x="354" y="480" type="line"/>
      <point x="301" y="353" type="line" smooth="yes"/>
      <point x="284" y="315"/>
      <point x="264" y="289"/>
      <point x="205" y="289" type="curve" smooth="yes"/>
      <point x="172" y="289" type="line"/>
      <point x="172" y="671" type="line"/>
      <point x="66" y="671" type="line"/>
      <point x="66" y="0" type="line"/>
      <point x="172" y="0" type="line"/>
      <point x="172" y="202" type="line"/>
      <point x="210" y="202" type="line" smooth="yes"/>
      <point x="269" y="202"/>
      <point x="291" y="177"/>
      <point x="312" y="129" type="curve" smooth="yes"/>
      <point x="351" y="40" type="line" smooth="yes"/>
      <point x="365" y="7"/>
      <point x="386" y="-7"/>
      <point x="428" y="-7" type="curve" smooth="yes"/>
    </contour>
  </outline>
</glyph>
<glyph name="r" format="1">
  <advance width="393"/>
  <unicode hex="0072"/>
  <note>
	r
  </note>
  <outline>
    <contour>
      <point x="177" y="0" type="line"/>
      <point x="177" y="288" type="line"/>
      <point x="201" y="339"/>
      <point x="253" y="360"/>
      <point x="311" y="360" type="curve" smooth="yes"/>
      <point x="356" y="360" type="line"/>
      <point x="367" y="451" type="line"/>
      <point x="360" y="461"/>
      <point x="340" y="475"/>
      <point x="329" y="475" type="curve" smooth="yes"/>
      <point x="269" y="475"/>
      <point x="211" y="438"/>
      <point x="180" y="376" type="curve"/>
      <point x="170" y="376" type="line"/>
      <point x="164" y="470" type="line"/>
      <point x="70" y="470" type="line"/>
      <point x="70" y="0" type="line"/>
    </contour>
  </outline>
</glyph>
<glyph name="v" format="1">
  <advance width="481"/>
  <unicode hex="0076"/>
  <note>
	v
  </note>
  <outline>
    <contour>
      <point x="298" y="0" type="line"/>
      <point x="366" y="160"/>
      <point x="417" y="311"/>
      <point x="458" y="467" type="curve"/>
      <point x="357" y="474" type="line"/>
      <point x="324" y="342"/>
      <point x="283" y="206"/>
      <point x="243" y="99" type="curve"/>
      <point x="237" y="99" type="line"/>
      <point x="197" y="206"/>
      <point x="158" y="342"/>
      <point x="125" y="474" type="curve"/>
      <point x="22" y="467" type="line"/>
      <point x="62" y="311"/>
      <point x="109" y="160"/>
      <point x="180" y="0" type="curve"/>
    </contour>
  </outline>
</glyph>
<glyph name="z" format="1">
  <advance width="467"/>
  <unicode hex="007A"/>
  <note>
	z
  </note>
  <outline>
    <contour>
      <point x="427" y="0" type="line"/>
      <point x="427" y="52" type="line" smooth="yes"/>
      <point x="427" y="81"/>
      <point x="422" y="115"/>
      <point x="414" y="140" type="curve"/>
      <point x="336" y="140" type="line"/>
      <point x="328" y="84" type="line"/>
      <point x="163" y="84" type="line"/>
      <point x="163" y="94" type="line"/>
      <point x="415" y="364" type="line"/>
      <point x="415" y="471" type="line"/>
      <point x="51" y="471" type="line"/>
      <point x="51" y="417" type="line" smooth="yes"/>
      <point x="51" y="386"/>
      <point x="56" y="350"/>
      <point x="64" y="326" type="curve"/>
      <point x="143" y="326" type="line"/>
      <point x="151" y="384" type="line"/>
      <point x="303" y="384" type="line"/>
      <point x="303" y="375" type="line"/>
      <point x="42" y="97" type="line"/>
      <point x="42" y="0" type="line"/>
    </contour>
  </outline>
</glyph>
<glyph name="braceleft" format="1">
  <advance width="434"/>
  <unicode hex="007B"/>
  <note>
	braceleft
  </note>
  <outline>
    <contour>
      <point x="388" y="-26" type="line"/>
      <point x="344" y="-26"/>
      <point x="302" y="-24"/>
      <point x="278" y="-14" type="curve"/>
      <point x="272" y="11"/>
      <point x="271" y="40"/>
      <point x="274" y="88" type="curve" smooth="yes"/>
      <point x="278" y="180" type="line" smooth="yes"/>
      <point x="282" y="254"/>
      <point x="250" y="295"/>
      <point x="186" y="314" type="curve"/>
      <point x="186" y="318" type="line"/>
      <point x="250" y="337"/>
      <point x="282" y="378"/>
      <point x="278" y="452" type="curve" smooth="yes"/>
      <point x="274" y="534" type="line" smooth="yes"/>
      <point x="271" y="582"/>
      <point x="272" y="611"/>
      <point x="278" y="636" type="curve"/>
      <point x="302" y="646"/>
      <point x="344" y="648"/>
      <point x="388" y="648" type="curve"/>
      <point x="388" y="744" type="line"/>
      <point x="234" y="744"/>
      <point x="162" y="689"/>
      <point x="170" y="536" type="curve" smooth="yes"/>
      <point x="174" y="465" type="line" smooth="yes"/>
      <point x="177" y="405"/>
      <point x="158" y="357"/>
      <point x="56" y="357" type="curve"/>
      <point x="56" y="275" type="line"/>
      <point x="158" y="275"/>
      <point x="177" y="227"/>
      <point x="174" y="167" type="curve" smooth="yes"/>
      <point x="170" y="86" type="line" smooth="yes"/>
      <point x="162" y="-67"/>
      <point x="234" y="-122"/>
      <point x="388" y="-122" type="curve"/>
    </contour>
  </outline>
</glyph>
<glyph name="bar" format="1">
  <advance width="256"/>
  <unicode hex="007C"/>
  <note>
	bar
  </note>
  <outline>
    <contour>
      <point x="178" y="-140" type="line"/>
      <point x="178" y="628" type="line"/>
      <point x="78" y="628" type="line"/>
      <point x="78" y="-140" type="line"/>
    </contour>
  </outline>
</glyph>
<glyph name="braceright" format="1">
  <advance width="434"/>
  <unicode hex="007D"/>
  <note>
	braceright
  </note>
  <outline>
    <contour>
      <point x="200" y="-122"/>
      <point x="272" y="-67"/>
      <point x="264" y="86" type="curve" smooth="yes"/>
      <point x="260" y="167" type="line" smooth="yes"/>
      <point x="257" y="227"/>
      <point x="276" y="275"/>
      <point x="378" y="275" type="curve"/>
      <point x="378" y="357" type="line"/>
      <point x="276" y="357"/>
      <point x="257" y="405"/>
      <point x="260" y="465" type="curve" smooth="yes"/>
      <point x="264" y="536" type="line" smooth="yes"/>
      <point x="272" y="689"/>
      <point x="200" y="744"/>
      <point x="46" y="744" type="curve"/>
      <point x="46" y="648" type="line"/>
      <point x="90" y="648"/>
      <point x="131" y="646"/>
      <point x="156" y="636" type="curve"/>
      <point x="162" y="611"/>
      <point x="163" y="582"/>
      <point x="160" y="534" type="curve" smooth="yes"/>
      <point x="156" y="452" type="line" smooth="yes"/>
      <point x="152" y="378"/>
      <point x="183" y="337"/>
      <point x="247" y="318" type="curve"/>
      <point x="247" y="314" type="line"/>
      <point x="183" y="295"/>
      <point x="152" y="254"/>
      <point x="156" y="180" type="curve" smooth="yes"/>
      <point x="160" y="88" type="line" smooth="yes"/>
      <point x="163" y="40"/>
      <point x="162" y="11"/>
      <point x="156" y="-14" type="curve"/>
      <point x="131" y="-24"/>
      <point x="90" y="-26"/>
      <point x="46" y="-26" type="curve"/>
      <point x="46" y="-122" type="line"/>
    </contour>
  </outline>
</glyph>
<glyph name="exclamdown" format="1">
  <advance width="259"/>
  <unicode hex="00A1"/>
  <note>
	exclamdown
  </note>
  <outline>
    <contour>
      <point x="187" y="-2" type="line"/>
      <point x="187" y="190" type="line"/>
      <point x="179" y="449" type="line"/>
      <point x="80" y="449" type="line"/>
      <point x="72" y="190" type="line"/>
      <point x="72" y="-2" type="line"/>
    </contour>
    <contour>
      <point x="187" y="512" type="line"/>
      <point x="187" y="616" type="line"/>
      <point x="72" y="616" type="line"/>
      <point x="72" y="512" type="line"/>
    </contour>
  </outline>
</glyph>
<glyph name="cent" format="1">
  <advance width="469"/>
  <unicode hex="00A2"/>
  <note>
	cent
  </note>
  <outline>
    <contour>
      <point x="312" y="-144" type="line"/>
      <point x="312" y="-7" type="line"/>
      <point x="368" y="0"/>
      <point x="411" y="23"/>
      <point x="447" y="55" type="curve"/>
      <point x="399" y="131" type="line"/>
      <point x="364" y="103"/>
      <point x="323" y="88"/>
      <point x="274" y="88" type="curve" smooth="yes"/>
      <point x="178" y="88"/>
      <point x="152" y="138"/>
      <point x="152" y="227" type="curve" smooth="yes"/>
      <point x="152" y="278"/>
      <point x="159" y="330"/>
      <point x="170" y="363" type="curve"/>
      <point x="192" y="371"/>
      <point x="225" y="374"/>
      <point x="256" y="374" type="curve" smooth="yes"/>
      <point x="279" y="374"/>
      <point x="301" y="371"/>
      <point x="317" y="367" type="curve"/>
      <point x="327" y="314" type="line"/>
      <point x="410" y="314" type="line"/>
      <point x="418" y="338"/>
      <point x="423" y="371"/>
      <point x="423" y="398" type="curve" smooth="yes"/>
      <point x="423" y="431" type="line"/>
      <point x="396" y="448"/>
      <point x="356" y="463"/>
      <point x="310" y="469" type="curve"/>
      <point x="310" y="618" type="line"/>
      <point x="218" y="618" type="line"/>
      <point x="218" y="468" type="line"/>
      <point x="104" y="450"/>
      <point x="46" y="360"/>
      <point x="46" y="225" type="curve" smooth="yes"/>
      <point x="46" y="104"/>
      <point x="86" y="13"/>
      <point x="216" y="-5" type="curve"/>
      <point x="216" y="-144" type="line"/>
    </contour>
  </outline>
</glyph>
<glyph name="yen" format="1">
  <advance width="644"/>
  <unicode hex="00A5"/>
  <note>
	yen
  </note>
  <outline>
    <contour>
      <point x="377" y="0" type="line"/>
      <point x="377" y="76" type="line"/>
      <point x="490" y="76" type="line"/>
      <point x="490" y="147" type="line"/>
      <point x="377" y="147" type="line"/>
      <point x="377" y="189" type="line"/>
      <point x="490" y="189" type="line"/>
      <point x="490" y="262" type="line"/>
      <point x="435" y="262" type="line"/>
      <point x="506" y="375"/>
      <point x="555" y="467"/>
      <point x="612" y="598" type="curve"/>
      <point x="504" y="623" type="line"/>
      <point x="449" y="490"/>
      <point x="393" y="385"/>
      <point x="336" y="291" type="curve"/>
      <point x="308" y="291" type="line"/>
      <point x="250" y="385"/>
      <point x="195" y="490"/>
      <point x="140" y="623" type="curve"/>
      <point x="32" y="598" type="line"/>
      <point x="88" y="467"/>
      <point x="136" y="375"/>
      <point x="208" y="262" type="curve"/>
      <point x="154" y="262" type="line"/>
      <point x="154" y="189" type="line"/>
      <point x="267" y="189" type="line"/>
      <point x="267" y="147" type="line"/>
      <point x="154" y="147" type="line"/>
      <point x="154" y="76" type="line"/>
      <point x="267" y="76" type="line"/>
      <point x="267" y="0" type="line"/>
    </contour>
  </outline>
</glyph>
<glyph name="brokenbar" format="1">
  <advance width="256"/>
  <unicode hex="00A6"/>
  <note>
	brokenbar
  </note>
  <outline>
    <contour>
      <point x="178" y="304" type="line"/>
      <point x="178" y="628" type="line"/>
      <point x="78" y="628" type="line"/>
      <point x="78" y="304" type="line"/>
    </contour>
    <contour>
      <point x="178" y="-110" type="line"/>
      <point x="178" y="212" type="line"/>
      <point x="78" y="212" type="line"/>
      <point x="78" y="-110" type="line"/>
    </contour>
  </outline>
</glyph>
<glyph name="section" format="1">
  <advance width="572"/>
  <unicode hex="00A7"/>
  <note>
	section
  </note>
  <outline>
    <contour>
      <point x="401" y="-127"/>
      <point x="461" y="-57"/>
      <point x="461" y="27" type="curve" smooth="yes"/>
      <point x="461" y="66"/>
      <point x="450" y="92"/>
      <point x="430" y="112" type="curve"/>
      <point x="430" y="118" type="line"/>
      <point x="488" y="146"/>
      <point x="514" y="189"/>
      <point x="514" y="245" type="curve" smooth="yes"/>
      <point x="514" y="344"/>
      <point x="430" y="374"/>
      <point x="313" y="400" type="curve" smooth="yes"/>
      <point x="223" y="419"/>
      <point x="199" y="436"/>
      <point x="199" y="480" type="curve" smooth="yes"/>
      <point x="199" y="523"/>
      <point x="224" y="539"/>
      <point x="285" y="539" type="curve" smooth="yes"/>
      <point x="311" y="539"/>
      <point x="329" y="537"/>
      <point x="346" y="535" type="curve"/>
      <point x="358" y="471" type="line"/>
      <point x="446" y="471" type="line"/>
      <point x="454" y="492"/>
      <point x="460" y="535"/>
      <point x="460" y="561" type="curve" smooth="yes"/>
      <point x="460" y="585" type="line"/>
      <point x="422" y="606"/>
      <point x="372" y="625"/>
      <point x="292" y="625" type="curve" smooth="yes"/>
      <point x="156" y="625"/>
      <point x="90" y="556"/>
      <point x="90" y="471" type="curve" smooth="yes"/>
      <point x="90" y="429"/>
      <point x="107" y="400"/>
      <point x="136" y="375" type="curve"/>
      <point x="136" y="369" type="line"/>
      <point x="86" y="340"/>
      <point x="58" y="304"/>
      <point x="58" y="246" type="curve" smooth="yes"/>
      <point x="58" y="149"/>
      <point x="140" y="114"/>
      <point x="251" y="87" type="curve" smooth="yes"/>
      <point x="330" y="68"/>
      <point x="352" y="60"/>
      <point x="352" y="19" type="curve" smooth="yes"/>
      <point x="352" y="1"/>
      <point x="349" y="-12"/>
      <point x="344" y="-27" type="curve"/>
      <point x="319" y="-33"/>
      <point x="298" y="-36"/>
      <point x="262" y="-36" type="curve" smooth="yes"/>
      <point x="209" y="-36"/>
      <point x="171" y="-31"/>
      <point x="121" y="-14" type="curve"/>
      <point x="92" y="-96" type="line"/>
      <point x="153" y="-119"/>
      <point x="198" y="-127"/>
      <point x="257" y="-127" type="curve" smooth="yes"/>
    </contour>
    <contour>
      <point x="348" y="161"/>
      <point x="326" y="165"/>
      <point x="270" y="179" type="curve" smooth="yes"/>
      <point x="187" y="199"/>
      <point x="168" y="221"/>
      <point x="168" y="260" type="curve" smooth="yes"/>
      <point x="168" y="291"/>
      <point x="177" y="313"/>
      <point x="199" y="330" type="curve"/>
      <point x="230" y="321"/>
      <point x="254" y="317"/>
      <point x="296" y="308" type="curve" smooth="yes"/>
      <point x="385" y="290"/>
      <point x="404" y="272"/>
      <point x="404" y="229" type="curve" smooth="yes"/>
      <point x="404" y="197"/>
      <point x="392" y="177"/>
      <point x="375" y="157" type="curve"/>
    </contour>
  </outline>
</glyph>
<glyph name="copyright" format="1">
  <advance width="736"/>
  <unicode hex="00A9"/>
  <note>
	copyright
  </note>
  <outline>
    <contour>
      <point x="555" y="-2"/>
      <point x="680" y="129"/>
      <point x="680" y="308" type="curve" smooth="yes"/>
      <point x="680" y="487"/>
      <point x="555" y="618"/>
      <point x="368" y="618" type="curve" smooth="yes"/>
      <point x="181" y="618"/>
      <point x="56" y="487"/>
      <point x="56" y="308" type="curve" smooth="yes"/>
      <point x="56" y="129"/>
      <point x="181" y="-2"/>
      <point x="368" y="-2" type="curve" smooth="yes"/>
    </contour>
    <contour>
      <point x="424" y="122"/>
      <point x="472" y="136"/>
      <point x="501" y="161" type="curve"/>
      <point x="474" y="221" type="line"/>
      <point x="450" y="204"/>
      <point x="411" y="193"/>
      <point x="371" y="193" type="curve" smooth="yes"/>
      <point x="303" y="193"/>
      <point x="280" y="223"/>
      <point x="280" y="298" type="curve" smooth="yes"/>
      <point x="280" y="346"/>
      <point x="287" y="380"/>
      <point x="305" y="412" type="curve"/>
      <point x="325" y="416"/>
      <point x="340" y="417"/>
      <point x="360" y="417" type="curve" smooth="yes"/>
      <point x="382" y="417"/>
      <point x="398" y="414"/>
      <point x="412" y="412" type="curve"/>
      <point x="418" y="377" type="line"/>
      <point x="477" y="377" type="line"/>
      <point x="484" y="393"/>
      <point x="488" y="423"/>
      <point x="488" y="440" type="curve" smooth="yes"/>
      <point x="488" y="461" type="line"/>
      <point x="465" y="477"/>
      <point x="417" y="490"/>
      <point x="368" y="490" type="curve" smooth="yes"/>
      <point x="264" y="490"/>
      <point x="201" y="419"/>
      <point x="201" y="299" type="curve" smooth="yes"/>
      <point x="201" y="186"/>
      <point x="260" y="122"/>
      <point x="371" y="122" type="curve" smooth="yes"/>
    </contour>
    <contour>
      <point x="206" y="48"/>
      <point x="109" y="150"/>
      <point x="109" y="308" type="curve" smooth="yes"/>
      <point x="109" y="466"/>
      <point x="206" y="568"/>
      <point x="368" y="568" type="curve" smooth="yes"/>
      <point x="531" y="568"/>
      <point x="627" y="466"/>
      <point x="627" y="308" type="curve" smooth="yes"/>
      <point x="627" y="150"/>
      <point x="531" y="48"/>
      <point x="368" y="48" type="curve" smooth="yes"/>
    </contour>
  </outline>
</glyph>
<glyph name="logicalnot" format="1">
  <advance width="477"/>
  <unicode hex="00AC"/>
  <note>
	logicalnot
  </note>
  <outline>
    <contour>
      <point x="431" y="143" type="line"/>
      <point x="431" y="350" type="line"/>
      <point x="46" y="350" type="line"/>
      <point x="46" y="253" type="line"/>
      <point x="328" y="253" type="line"/>
      <point x="328" y="143" type="line"/>
    </contour>
  </outline>
</glyph>
<glyph name="degree" format="1">
  <advance width="413"/>
  <unicode hex="00B0"/>
  <note>
	degree
  </note>
  <outline>
    <contour>
      <point x="327" y="281"/>
      <point x="399" y="343"/>
      <point x="399" y="453" type="curve" smooth="yes"/>
      <point x="399" y="565"/>
      <point x="340" y="616"/>
      <point x="233" y="616" type="curve" smooth="yes"/>
      <point x="114" y="616"/>
      <point x="41" y="554"/>
      <point x="41" y="444" type="curve" smooth="yes"/>
      <point x="41" y="332"/>
      <point x="101" y="281"/>
      <point x="208" y="281" type="curve" smooth="yes"/>
    </contour>
    <contour>
      <point x="157" y="363"/>
      <point x="134" y="382"/>
      <point x="134" y="454" type="curve" smooth="yes"/>
      <point x="134" y="480"/>
      <point x="137" y="503"/>
      <point x="144" y="524" type="curve"/>
      <point x="169" y="531"/>
      <point x="191" y="534"/>
      <point x="217" y="534" type="curve" smooth="yes"/>
      <point x="284" y="534"/>
      <point x="306" y="515"/>
      <point x="306" y="443" type="curve" smooth="yes"/>
      <point x="306" y="417"/>
      <point x="302" y="393"/>
      <point x="295" y="373" type="curve"/>
      <point x="270" y="366"/>
      <point x="248" y="363"/>
      <point x="222" y="363" type="curve" smooth="yes"/>
    </contour>
  </outline>
</glyph>
<glyph name="twosuperior" format="1">
  <advance width="340"/>
  <unicode hex="00B2"/>
  <note>
	twosuperior
  </note>
  <outline>
    <contour>
      <point x="308" y="334" type="line"/>
      <point x="308" y="364" type="line" smooth="yes"/>
      <point x="308" y="387"/>
      <point x="305" y="414"/>
      <point x="298" y="435" type="curve"/>
      <point x="227" y="435" type="line"/>
      <point x="227" y="405" type="line"/>
      <point x="120" y="405" type="line"/>
      <point x="120" y="409" type="line"/>
      <point x="215" y="459"/>
      <point x="298" y="509"/>
      <point x="298" y="593" type="curve" smooth="yes"/>
      <point x="298" y="655"/>
      <point x="261" y="698"/>
      <point x="174" y="698" type="curve" smooth="yes"/>
      <point x="124" y="698"/>
      <point x="81" y="686"/>
      <point x="43" y="668" type="curve"/>
      <point x="43" y="646" type="line" smooth="yes"/>
      <point x="43" y="623"/>
      <point x="48" y="596"/>
      <point x="55" y="579" type="curve"/>
      <point x="126" y="579" type="line"/>
      <point x="126" y="610" type="line"/>
      <point x="142" y="614"/>
      <point x="152" y="616"/>
      <point x="168" y="616" type="curve" smooth="yes"/>
      <point x="196" y="616"/>
      <point x="208" y="608"/>
      <point x="208" y="582" type="curve" smooth="yes"/>
      <point x="208" y="534"/>
      <point x="143" y="492"/>
      <point x="31" y="439" type="curve"/>
      <point x="31" y="334" type="line"/>
    </contour>
  </outline>
</glyph>
<glyph name="acute" format="1">
  <advance width="323"/>
  <unicode hex="00B4"/>
  <note>
	acute
  </note>
  <outline>
    <contour>
      <point x="251" y="892" type="line"/>
      <point x="126" y="905" type="line"/>
      <point x="43" y="752" type="line"/>
      <point x="122" y="738" type="line"/>
    </contour>
  </outline>
</glyph>
<glyph name="paragraph" format="1">
  <advance width="672"/>
  <unicode hex="00B6"/>
  <note>
	paragraph
  </note>
  <outline>
    <contour>
      <point x="366" y="-120" type="line"/>
      <point x="366" y="529" type="line"/>
      <point x="425" y="529" type="line"/>
      <point x="425" y="-120" type="line"/>
      <point x="520" y="-120" type="line"/>
      <point x="520" y="618" type="line"/>
      <point x="258" y="618" type="line" smooth="yes"/>
      <point x="133" y="618"/>
      <point x="61" y="554"/>
      <point x="61" y="429" type="curve" smooth="yes"/>
      <point x="61" y="308"/>
      <point x="135" y="247"/>
      <point x="253" y="247" type="curve" smooth="yes"/>
      <point x="272" y="247" type="line"/>
      <point x="272" y="-120" type="line"/>
    </contour>
  </outline>
</glyph>
<glyph name="cedilla" format="1">
  <advance width="321"/>
  <unicode hex="00B8"/>
  <note>
	cedilla
  </note>
  <outline>
    <contour>
      <point x="262" y="-229"/>
      <point x="299" y="-193"/>
      <point x="299" y="-130" type="curve" smooth="yes"/>
      <point x="299" y="-78"/>
      <point x="273" y="-45"/>
      <point x="218" y="-45" type="curve" smooth="yes"/>
      <point x="202" y="-45"/>
      <point x="190" y="-47"/>
      <point x="179" y="-52" type="curve"/>
      <point x="218" y="2" type="line"/>
      <point x="149" y="16" type="line"/>
      <point x="76" y="-68" type="line"/>
      <point x="122" y="-115" type="line"/>
      <point x="132" y="-110"/>
      <point x="148" y="-107"/>
      <point x="163" y="-107" type="curve" smooth="yes"/>
      <point x="190" y="-107"/>
      <point x="206" y="-114"/>
      <point x="206" y="-133" type="curve" smooth="yes"/>
      <point x="206" y="-142"/>
      <point x="205" y="-148"/>
      <point x="202" y="-155" type="curve"/>
      <point x="189" y="-158"/>
      <point x="178" y="-158"/>
      <point x="161" y="-158" type="curve" smooth="yes"/>
      <point x="140" y="-158"/>
      <point x="114" y="-154"/>
      <point x="95" y="-146" type="curve"/>
      <point x="73" y="-210" type="line"/>
      <point x="105" y="-225"/>
      <point x="140" y="-229"/>
      <point x="175" y="-229" type="curve" smooth="yes"/>
    </contour>
  </outline>
</glyph>
<glyph name="onesuperior" format="1">
  <advance width="238"/>
  <unicode hex="00B9"/>
  <note>
	onesuperior
  </note>
  <outline>
    <contour>
      <point x="194" y="332" type="line"/>
      <point x="194" y="657" type="line" smooth="yes"/>
      <point x="194" y="676"/>
      <point x="143" y="696"/>
      <point x="116" y="698" type="curve"/>
      <point x="19" y="645" type="line"/>
      <point x="40" y="588" type="line"/>
      <point x="97" y="607" type="line"/>
      <point x="103" y="603" type="line"/>
      <point x="103" y="332" type="line"/>
    </contour>
  </outline>
</glyph>
<glyph name="ordmasculine" format="1">
  <advance width="388"/>
  <unicode hex="00BA"/>
  <note>
	ordmasculine
  </note>
  <outline>
    <contour>
      <point x="299" y="257"/>
      <point x="350" y="325"/>
      <point x="350" y="437" type="curve" smooth="yes"/>
      <point x="350" y="543"/>
      <point x="307" y="613"/>
      <point x="204" y="613" type="curve" smooth="yes"/>
      <point x="89" y="613"/>
      <point x="38" y="543"/>
      <point x="38" y="431" type="curve" smooth="yes"/>
      <point x="38" y="324"/>
      <point x="84" y="257"/>
      <point x="184" y="257" type="curve" smooth="yes"/>
    </contour>
    <contour>
      <point x="140" y="336"/>
      <point x="129" y="367"/>
      <point x="129" y="440" type="curve" smooth="yes"/>
      <point x="129" y="477"/>
      <point x="133" y="503"/>
      <point x="140" y="525" type="curve"/>
      <point x="155" y="530"/>
      <point x="170" y="532"/>
      <point x="192" y="532" type="curve" smooth="yes"/>
      <point x="248" y="532"/>
      <point x="260" y="504"/>
      <point x="260" y="428" type="curve" smooth="yes"/>
      <point x="260" y="391"/>
      <point x="257" y="364"/>
      <point x="249" y="343" type="curve"/>
      <point x="234" y="338"/>
      <point x="219" y="336"/>
      <point x="197" y="336" type="curve" smooth="yes"/>
    </contour>
  </outline>
</glyph>
<glyph name="guillemotright" format="1">
  <advance width="479"/>
  <unicode hex="00BB"/>
  <note>
	guillemotright
  </note>
  <outline>
    <contour>
      <point x="432" y="251" type="line"/>
      <point x="299" y="433" type="line"/>
      <point x="220" y="396" type="line"/>
      <point x="325" y="254" type="line"/>
      <point x="325" y="248" type="line"/>
      <point x="220" y="106" type="line"/>
      <point x="299" y="69" type="line"/>
    </contour>
    <contour>
      <point x="260" y="251" type="line"/>
      <point x="129" y="429" type="line"/>
      <point x="50" y="392" type="line"/>
      <point x="152" y="254" type="line"/>
      <point x="152" y="248" type="line"/>
      <point x="50" y="110" type="line"/>
      <point x="129" y="73" type="line"/>
    </contour>
  </outline>
</glyph>
<glyph name="onequarter" format="1">
  <advance width="802"/>
  <unicode hex="00BC"/>
  <note>
	onequarter
  </note>
  <outline>
    <contour>
      <point x="613" y="598" type="line"/>
      <point x="528" y="623" type="line"/>
      <point x="151" y="15" type="line"/>
      <point x="237" y="-10" type="line"/>
    </contour>
    <contour>
      <point x="226" y="256" type="line"/>
      <point x="226" y="581" type="line" smooth="yes"/>
      <point x="226" y="600"/>
      <point x="175" y="620"/>
      <point x="148" y="622" type="curve"/>
      <point x="51" y="569" type="line"/>
      <point x="72" y="509" type="line"/>
      <point x="127" y="528" type="line"/>
      <point x="132" y="524" type="line"/>
      <point x="132" y="256" type="line"/>
    </contour>
    <contour>
      <point x="702" y="0" type="line"/>
      <point x="702" y="56" type="line"/>
      <point x="749" y="56" type="line"/>
      <point x="749" y="127" type="line"/>
      <point x="702" y="127" type="line"/>
      <point x="702" y="357" type="line"/>
      <point x="608" y="357" type="line"/>
      <point x="436" y="124" type="line"/>
      <point x="464" y="56" type="line"/>
      <point x="615" y="56" type="line"/>
      <point x="615" y="0" type="line"/>
    </contour>
    <contour>
      <point x="533" y="132" type="line"/>
      <point x="621" y="264" type="line"/>
      <point x="625" y="264" type="line"/>
      <point x="620" y="225"/>
      <point x="617" y="192"/>
      <point x="617" y="159" type="curve" smooth="yes"/>
      <point x="617" y="127" type="line"/>
      <point x="535" y="127" type="line"/>
    </contour>
  </outline>
</glyph>
<glyph name="onehalf" format="1">
  <advance width="803"/>
  <unicode hex="00BD"/>
  <note>
	onehalf
  </note>
  <outline>
    <contour>
      <point x="613" y="598" type="line"/>
      <point x="528" y="623" type="line"/>
      <point x="151" y="15" type="line"/>
      <point x="237" y="-10" type="line"/>
    </contour>
    <contour>
      <point x="226" y="256" type="line"/>
      <point x="226" y="581" type="line" smooth="yes"/>
      <point x="226" y="600"/>
      <point x="175" y="620"/>
      <point x="148" y="622" type="curve"/>
      <point x="51" y="569" type="line"/>
      <point x="72" y="509" type="line"/>
      <point x="127" y="528" type="line"/>
      <point x="132" y="524" type="line"/>
      <point x="132" y="256" type="line"/>
    </contour>
    <contour>
      <point x="789" y="-2" type="line"/>
      <point x="789" y="28" type="line" smooth="yes"/>
      <point x="789" y="52"/>
      <point x="786" y="78"/>
      <point x="779" y="99" type="curve"/>
      <point x="708" y="99" type="line"/>
      <point x="708" y="70" type="line"/>
      <point x="601" y="70" type="line"/>
      <point x="601" y="74" type="line"/>
      <point x="696" y="124"/>
      <point x="779" y="173"/>
      <point x="779" y="258" type="curve" smooth="yes"/>
      <point x="779" y="319"/>
      <point x="742" y="362"/>
      <point x="655" y="362" type="curve" smooth="yes"/>
      <point x="605" y="362"/>
      <point x="562" y="351"/>
      <point x="524" y="333" type="curve"/>
      <point x="524" y="310" type="line" smooth="yes"/>
      <point x="524" y="288"/>
      <point x="529" y="261"/>
      <point x="536" y="244" type="curve"/>
      <point x="607" y="244" type="line"/>
      <point x="607" y="274" type="line"/>
      <point x="623" y="279"/>
      <point x="633" y="280"/>
      <point x="649" y="280" type="curve" smooth="yes"/>
      <point x="677" y="280"/>
      <point x="689" y="272"/>
      <point x="689" y="246" type="curve" smooth="yes"/>
      <point x="689" y="199"/>
      <point x="624" y="157"/>
      <point x="512" y="103" type="curve"/>
      <point x="512" y="-2" type="line"/>
    </contour>
  </outline>
</glyph>
<glyph name="Atilde" format="1">
  <advance width="624"/>
  <unicode hex="00C3"/>
  <note>
	Atilde
  </note>
  <outline>
    <contour>
      <point x="221" y="702"/>
      <point x="229" y="722"/>
      <point x="255" y="722" type="curve" smooth="yes"/>
      <point x="290" y="722"/>
      <point x="321" y="681"/>
      <point x="368" y="681" type="curve" smooth="yes"/>
      <point x="430" y="681"/>
      <point x="454" y="721"/>
      <point x="457" y="793" type="curve"/>
      <point x="388" y="814" type="line"/>
      <point x="385" y="787"/>
      <point x="378" y="767"/>
      <point x="351" y="767" type="curve" smooth="yes"/>
      <point x="322" y="767"/>
      <point x="286" y="808"/>
      <point x="241" y="808" type="curve" smooth="yes"/>
      <point x="177" y="808"/>
      <point x="153" y="768"/>
      <point x="150" y="696" type="curve"/>
      <point x="219" y="675" type="line"/>
    </contour>
    <component base="A"/>
  </outline>
</glyph>
<glyph name="Ccedilla" format="1">
  <advance width="590"/>
  <unicode hex="00C7"/>
  <note>
	Ccedilla
  </note>
  <outline>
    <contour>
      <point x="401" y="-229"/>
      <point x="438" y="-193"/>
      <point x="438" y="-130" type="curve" smooth="yes"/>
      <point x="438" y="-78"/>
      <point x="412" y="-45"/>
      <point x="357" y="-45" type="curve" smooth="yes"/>
      <point x="341" y="-45"/>
      <point x="329" y="-47"/>
      <point x="318" y="-52" type="curve"/>
      <point x="349" y="-9" type="line"/>
      <point x="368" y="-8"/>
      <point x="385" y="-7"/>
      <point x="402" y="-4" type="curve" smooth="yes"/>
      <point x="463" y="5"/>
      <point x="515" y="24"/>
      <point x="552" y="53" type="curve"/>
      <point x="506" y="138" type="line"/>
      <point x="466" y="110"/>
      <point x="404" y="93"/>
      <point x="336" y="93" type="curve" smooth="yes"/>
      <point x="208" y="93"/>
      <point x="160" y="154"/>
      <point x="160" y="296" type="curve" smooth="yes"/>
      <point x="160" y="377"/>
      <point x="174" y="453"/>
      <point x="202" y="513" type="curve"/>
      <point x="243" y="522"/>
      <point x="279" y="526"/>
      <point x="317" y="526" type="curve" smooth="yes"/>
      <point x="356" y="526"/>
      <point x="392" y="523"/>
      <point x="417" y="517" type="curve"/>
      <point x="427" y="440" type="line"/>
      <point x="511" y="440" type="line"/>
      <point x="519" y="464"/>
      <point x="524" y="502"/>
      <point x="524" y="534" type="curve" smooth="yes"/>
      <point x="524" y="584" type="line"/>
      <point x="484" y="608"/>
      <point x="407" y="628"/>
      <point x="323" y="628" type="curve" smooth="yes"/>
      <point x="136" y="628"/>
      <point x="50" y="487"/>
      <point x="50" y="290" type="curve" smooth="yes"/>
      <point x="50" y="115"/>
      <point x="122" y="15"/>
      <point x="270" y="-4" type="curve"/>
      <point x="215" y="-68" type="line"/>
      <point x="261" y="-115" type="line"/>
      <point x="271" y="-110"/>
      <point x="287" y="-107"/>
      <point x="302" y="-107" type="curve" smooth="yes"/>
      <point x="329" y="-107"/>
      <point x="345" y="-114"/>
      <point x="345" y="-133" type="curve" smooth="yes"/>
      <point x="345" y="-142"/>
      <point x="344" y="-148"/>
      <point x="341" y="-155" type="curve"/>
      <point x="328" y="-158"/>
      <point x="317" y="-158"/>
      <point x="300" y="-158" type="curve" smooth="yes"/>
      <point x="279" y="-158"/>
      <point x="253" y="-154"/>
      <point x="234" y="-146" type="curve"/>
      <point x="212" y="-210" type="line"/>
      <point x="244" y="-225"/>
      <point x="279" y="-229"/>
      <point x="314" y="-229" type="curve" smooth="yes"/>
    </contour>
  </outline>
</glyph>
<glyph name="Egrave" format="1">
  <advance width="555"/>
  <unicode hex="00C8"/>
  <note>
	Egrave
  </note>
  <outline>
    <contour>
      <point x="383" y="-9"/>
      <point x="449" y="-2"/>
      <point x="500" y="13" type="curve"/>
      <point x="481" y="110" type="line"/>
      <point x="429" y="97"/>
      <point x="367" y="91"/>
      <point x="306" y="91" type="curve" smooth="yes"/>
      <point x="260" y="91"/>
      <point x="222" y="94"/>
      <point x="180" y="101" type="curve"/>
      <point x="180" y="259" type="line"/>
      <point x="454" y="259" type="line"/>
      <point x="454" y="355" type="line"/>
      <point x="180" y="355" type="line"/>
      <point x="180" y="517" type="line"/>
      <point x="492" y="517" type="line"/>
      <point x="492" y="618" type="line"/>
      <point x="71" y="618" type="line"/>
      <point x="71" y="104" type="line" smooth="yes"/>
      <point x="71" y="14"/>
      <point x="170" y="-9"/>
      <point x="303" y="-9" type="curve" smooth="yes"/>
    </contour>
    <contour>
      <point x="359" y="692" type="line"/>
      <point x="275" y="841" type="line"/>
      <point x="144" y="827" type="line"/>
      <point x="272" y="678" type="line"/>
    </contour>
  </outline>
</glyph>
<glyph name="Eacute" format="1">
  <advance width="555"/>
  <unicode hex="00C9"/>
  <note>
	Eacute
  </note>
  <outline>
    <contour>
      <point x="383" y="-9"/>
      <point x="449" y="-2"/>
      <point x="500" y="13" type="curve"/>
      <point x="481" y="110" type="line"/>
      <point x="429" y="97"/>
      <point x="367" y="91"/>
      <point x="306" y="91" type="curve" smooth="yes"/>
      <point x="260" y="91"/>
      <point x="222" y="94"/>
      <point x="180" y="101" type="curve"/>
      <point x="180" y="259" type="line"/>
      <point x="454" y="259" type="line"/>
      <point x="454" y="355" type="line"/>
      <point x="180" y="355" type="line"/>
      <point x="180" y="517" type="line"/>
      <point x="492" y="517" type="line"/>
      <point x="492" y="618" type="line"/>
      <point x="71" y="618" type="line"/>
      <point x="71" y="104" type="line" smooth="yes"/>
      <point x="71" y="14"/>
      <point x="170" y="-9"/>
      <point x="303" y="-9" type="curve" smooth="yes"/>
    </contour>
    <contour>
      <point x="434" y="831" type="line"/>
      <point x="309" y="844" type="line"/>
      <point x="226" y="692" type="line"/>
      <point x="305" y="678" type="line"/>
    </contour>
  </outline>
</glyph>
<glyph name="Edieresis" format="1">
  <advance width="555"/>
  <unicode hex="00CB"/>
  <note>
	Edieresis
  </note>
  <outline>
    <contour>
      <point x="383" y="-9"/>
      <point x="449" y="-2"/>
      <point x="500" y="13" type="curve"/>
      <point x="481" y="110" type="line"/>
      <point x="429" y="97"/>
      <point x="367" y="91"/>
      <point x="306" y="91" type="curve" smooth="yes"/>
      <point x="260" y="91"/>
      <point x="222" y="94"/>
      <point x="180" y="101" type="curve"/>
      <point x="180" y="259" type="line"/>
      <point x="454" y="259" type="line"/>
      <point x="454" y="355" type="line"/>
      <point x="180" y="355" type="line"/>
      <point x="180" y="517" type="line"/>
      <point x="492" y="517" type="line"/>
      <point x="492" y="618" type="line"/>
      <point x="71" y="618" type="line"/>
      <point x="71" y="104" type="line" smooth="yes"/>
      <point x="71" y="14"/>
      <point x="170" y="-9"/>
      <point x="303" y="-9" type="curve" smooth="yes"/>
    </contour>
    <contour>
      <point x="239" y="681"/>
      <point x="260" y="701"/>
      <point x="260" y="734" type="curve" smooth="yes"/>
      <point x="260" y="769"/>
      <point x="239" y="788"/>
      <point x="203" y="788" type="curve" smooth="yes"/>
      <point x="168" y="788"/>
      <point x="147" y="769"/>
      <point x="147" y="734" type="curve" smooth="yes"/>
      <point x="147" y="701"/>
      <point x="168" y="681"/>
      <point x="203" y="681" type="curve" smooth="yes"/>
    </contour>
    <contour>
      <point x="405" y="681"/>
      <point x="425" y="701"/>
      <point x="425" y="734" type="curve" smooth="yes"/>
      <point x="425" y="769"/>
      <point x="405" y="788"/>
      <point x="369" y="788" type="curve" smooth="yes"/>
      <point x="333" y="788"/>
      <point x="312" y="769"/>
      <point x="312" y="734" type="curve" smooth="yes"/>
      <point x="312" y="701"/>
      <point x="333" y="681"/>
      <point x="369" y="681" type="curve" smooth="yes"/>
    </contour>
  </outline>
</glyph>
<glyph name="Eth" format="1">
  <advance width="663"/>
  <unicode hex="00D0"/>
  <note>
	Eth
  </note>
  <outline>
    <contour>
      <point x="287" y="0" type="line" smooth="yes"/>
      <point x="555" y="0"/>
      <point x="621" y="122"/>
      <point x="621" y="318" type="curve" smooth="yes"/>
      <point x="621" y="510"/>
      <point x="545" y="628"/>
      <point x="323" y="628" type="curve" smooth="yes"/>
      <point x="257" y="628"/>
      <point x="187" y="620"/>
      <point x="131" y="606" type="curve"/>
      <point x="131" y="366" type="line"/>
      <point x="53" y="366" type="line"/>
      <point x="53" y="278" type="line"/>
      <point x="131" y="278" type="line"/>
      <point x="131" y="0" type="line"/>
    </contour>
    <contour>
      <point x="240" y="278" type="line"/>
      <point x="332" y="278" type="line"/>
      <point x="332" y="366" type="line"/>
      <point x="240" y="366" type="line"/>
      <point x="240" y="521" type="line"/>
      <point x="270" y="525"/>
      <point x="295" y="527"/>
      <point x="325" y="527" type="curve" smooth="yes"/>
      <point x="466" y="527"/>
      <point x="510" y="461"/>
      <point x="510" y="307" type="curve" smooth="yes"/>
      <point x="510" y="236"/>
      <point x="499" y="167"/>
      <point x="481" y="122" type="curve"/>
      <point x="429" y="107"/>
      <point x="370" y="101"/>
      <point x="296" y="101" type="curve" smooth="yes"/>
      <point x="240" y="101" type="line"/>
    </contour>
  </outline>
</glyph>
<glyph name="Ntilde" format="1">
  <advance width="642"/>
  <unicode hex="00D1"/>
  <note>
	Ntilde
  </note>
  <outline>
    <contour>
      <point x="181" y="0" type="line"/>
      <point x="181" y="316" type="line"/>
      <point x="170" y="476" type="line"/>
      <point x="178" y="478" type="line"/>
      <point x="436" y="0" type="line"/>
      <point x="571" y="0" type="line"/>
      <point x="571" y="618" type="line"/>
      <point x="460" y="618" type="line"/>
      <point x="460" y="301" type="line"/>
      <point x="471" y="142" type="line"/>
      <point x="463" y="140" type="line"/>
      <point x="206" y="618" type="line"/>
      <point x="71" y="618" type="line"/>
      <point x="71" y="0" type="line"/>
    </contour>
    <contour>
      <point x="238" y="699"/>
      <point x="246" y="719"/>
      <point x="272" y="719" type="curve" smooth="yes"/>
      <point x="307" y="719"/>
      <point x="338" y="678"/>
      <point x="385" y="678" type="curve" smooth="yes"/>
      <point x="447" y="678"/>
      <point x="471" y="718"/>
      <point x="474" y="790" type="curve"/>
      <point x="405" y="811" type="line"/>
      <point x="402" y="784"/>
      <point x="395" y="764"/>
      <point x="368" y="764" type="curve" smooth="yes"/>
      <point x="339" y="764"/>
      <point x="303" y="805"/>
      <point x="258" y="805" type="curve" smooth="yes"/>
      <point x="194" y="805"/>
      <point x="170" y="765"/>
      <point x="167" y="693" type="curve"/>
      <point x="236" y="672" type="line"/>
    </contour>
  </outline>
</glyph>
<glyph name="Otilde" format="1">
  <advance width="638"/>
  <unicode hex="00D5"/>
  <note>
	Otilde
  </note>
  <outline>
    <contour>
      <point x="503" y="-8"/>
      <point x="590" y="101"/>
      <point x="590" y="321" type="curve" smooth="yes"/>
      <point x="590" y="522"/>
      <point x="506" y="628"/>
      <point x="329" y="628" type="curve" smooth="yes"/>
      <point x="134" y="628"/>
      <point x="48" y="518"/>
      <point x="48" y="298" type="curve" smooth="yes"/>
      <point x="48" y="97"/>
      <point x="136" y="-8"/>
      <point x="308" y="-8" type="curve" smooth="yes"/>
    </contour>
    <contour>
      <point x="195" y="93"/>
      <point x="157" y="164"/>
      <point x="157" y="315" type="curve" smooth="yes"/>
      <point x="157" y="393"/>
      <point x="171" y="456"/>
      <point x="194" y="508" type="curve"/>
      <point x="221" y="519"/>
      <point x="265" y="526"/>
      <point x="312" y="526" type="curve" smooth="yes"/>
      <point x="443" y="526"/>
      <point x="480" y="454"/>
      <point x="480" y="304" type="curve" smooth="yes"/>
      <point x="480" y="225"/>
      <point x="462" y="161"/>
      <point x="440" y="111" type="curve"/>
      <point x="413" y="100"/>
      <point x="372" y="93"/>
      <point x="325" y="93" type="curve" smooth="yes"/>
    </contour>
    <contour>
      <point x="239" y="697"/>
      <point x="247" y="716"/>
      <point x="273" y="716" type="curve" smooth="yes"/>
      <point x="308" y="716"/>
      <point x="339" y="675"/>
      <point x="386" y="675" type="curve" smooth="yes"/>
      <point x="448" y="675"/>
      <point x="472" y="716"/>
      <point x="475" y="788" type="curve"/>
      <point x="406" y="808" type="line"/>
      <point x="403" y="782"/>
      <point x="396" y="762"/>
      <point x="369" y="762" type="curve" smooth="yes"/>
      <point x="340" y="762"/>
      <point x="304" y="803"/>
      <point x="259" y="803" type="curve" smooth="yes"/>
      <point x="195" y="803"/>
      <point x="171" y="763"/>
      <point x="168" y="691" type="curve"/>
      <point x="237" y="670" type="line"/>
    </contour>
  </outline>
</glyph>
<glyph name="Odieresis" format="1">
  <advance width="638"/>
  <unicode hex="00D6"/>
  <note>
	Odieresis
  </note>
  <outline>
    <contour>
      <point x="503" y="-8"/>
      <point x="590" y="101"/>
      <point x="590" y="321" type="curve" smooth="yes"/>
      <point x="590" y="522"/>
      <point x="506" y="628"/>
      <point x="329" y="628" type="curve" smooth="yes"/>
      <point x="134" y="628"/>
      <point x="48" y="518"/>
      <point x="48" y="298" type="curve" smooth="yes"/>
      <point x="48" y="97"/>
      <point x="136" y="-8"/>
      <point x="308" y="-8" type="curve" smooth="yes"/>
    </contour>
    <contour>
      <point x="195" y="93"/>
      <point x="157" y="164"/>
      <point x="157" y="315" type="curve" smooth="yes"/>
      <point x="157" y="393"/>
      <point x="171" y="456"/>
      <point x="194" y="508" type="curve"/>
      <point x="221" y="519"/>
      <point x="265" y="526"/>
      <point x="312" y="526" type="curve" smooth="yes"/>
      <point x="443" y="526"/>
      <point x="480" y="454"/>
      <point x="480" y="304" type="curve" smooth="yes"/>
      <point x="480" y="225"/>
      <point x="462" y="161"/>
      <point x="440" y="111" type="curve"/>
      <point x="413" y="100"/>
      <point x="372" y="93"/>
      <point x="325" y="93" type="curve" smooth="yes"/>
    </contour>
    <contour>
      <point x="275" y="681"/>
      <point x="296" y="701"/>
      <point x="296" y="734" type="curve" smooth="yes"/>
      <point x="296" y="769"/>
      <point x="275" y="788"/>
      <point x="239" y="788" type="curve" smooth="yes"/>
      <point x="204" y="788"/>
      <point x="183" y="769"/>
      <point x="183" y="734" type="curve" smooth="yes"/>
      <point x="183" y="701"/>
      <point x="204" y="681"/>
      <point x="239" y="681" type="curve" smooth="yes"/>
    </contour>
    <contour>
      <point x="441" y="681"/>
      <point x="461" y="701"/>
      <point x="461" y="734" type="curve" smooth="yes"/>
      <point x="461" y="769"/>
      <point x="441" y="788"/>
      <point x="405" y="788" type="curve" smooth="yes"/>
      <point x="369" y="788"/>
      <point x="348" y="769"/>
      <point x="348" y="734" type="curve" smooth="yes"/>
      <point x="348" y="701"/>
      <point x="369" y="681"/>
      <point x="405" y="681" type="curve" smooth="yes"/>
    </contour>
  </outline>
</glyph>
<glyph name="multiply" format="1">
  <advance width="484"/>
  <unicode hex="00D7"/>
  <note>
	multiply
  </note>
  <outline>
    <contour>
      <point x="242" y="254" type="line"/>
      <point x="375" y="123" type="line"/>
      <point x="437" y="181" type="line"/>
      <point x="301" y="308" type="line"/>
      <point x="437" y="435" type="line"/>
      <point x="375" y="493" type="line"/>
      <point x="242" y="362" type="line"/>
      <point x="108" y="493" type="line"/>
      <point x="46" y="435" type="line"/>
      <point x="182" y="308" type="line"/>
      <point x="46" y="181" type="line"/>
      <point x="108" y="123" type="line"/>
    </contour>
  </outline>
</glyph>
<glyph name="Oslash" format="1">
  <advance width="638"/>
  <unicode hex="00D8"/>
  <note>
	Oslash
  </note>
  <outline>
    <contour>
      <point x="227" y="2" type="line"/>
      <point x="251" y="-6"/>
      <point x="278" y="-9"/>
      <point x="308" y="-9" type="curve" smooth="yes"/>
      <point x="503" y="-9"/>
      <point x="590" y="101"/>
      <point x="590" y="321" type="curve" smooth="yes"/>
      <point x="590" y="445"/>
      <point x="558" y="532"/>
      <point x="492" y="581" type="curve"/>
      <point x="531" y="666" type="line"/>
      <point x="436" y="689" type="line"/>
      <point x="404" y="619" type="line"/>
      <point x="382" y="625"/>
      <point x="356" y="628"/>
      <point x="329" y="628" type="curve" smooth="yes"/>
      <point x="134" y="628"/>
      <point x="48" y="518"/>
      <point x="48" y="298" type="curve" smooth="yes"/>
      <point x="48" y="178"/>
      <point x="79" y="92"/>
      <point x="140" y="42" type="curve"/>
      <point x="95" y="-57" type="line"/>
      <point x="190" y="-81" type="line"/>
    </contour>
    <contour>
      <point x="166" y="188"/>
      <point x="157" y="242"/>
      <point x="157" y="315" type="curve" smooth="yes"/>
      <point x="157" y="393"/>
      <point x="171" y="456"/>
      <point x="194" y="508" type="curve"/>
      <point x="221" y="519"/>
      <point x="265" y="526"/>
      <point x="312" y="526" type="curve" smooth="yes"/>
      <point x="330" y="526"/>
      <point x="345" y="524"/>
      <point x="359" y="520" type="curve"/>
      <point x="190" y="152" type="line"/>
    </contour>
    <contour>
      <point x="304" y="92"/>
      <point x="286" y="95"/>
      <point x="271" y="99" type="curve"/>
      <point x="442" y="473" type="line"/>
      <point x="469" y="437"/>
      <point x="480" y="381"/>
      <point x="480" y="304" type="curve" smooth="yes"/>
      <point x="480" y="225"/>
      <point x="462" y="161"/>
      <point x="440" y="110" type="curve"/>
      <point x="413" y="99"/>
      <point x="372" y="92"/>
      <point x="325" y="92" type="curve" smooth="yes"/>
    </contour>
  </outline>
</glyph>
<glyph name="germandbls" format="1">
  <advance width="567"/>
  <unicode hex="00DF"/>
  <note>
	germandbls
  </note>
  <outline>
    <contour>
      <point x="434" y="-9"/>
      <point x="504" y="55"/>
      <point x="504" y="177" type="curve" smooth="yes"/>
      <point x="504" y="270"/>
      <point x="459" y="326"/>
      <point x="358" y="352" type="curve"/>
      <point x="358" y="358" type="line"/>
      <point x="430" y="383"/>
      <point x="467" y="426"/>
      <point x="467" y="501" type="curve" smooth="yes"/>
      <point x="467" y="601"/>
      <point x="393" y="664"/>
      <point x="270" y="664" type="curve" smooth="yes"/>
      <point x="148" y="664"/>
      <point x="68" y="604"/>
      <point x="68" y="481" type="curve" smooth="yes"/>
      <point x="68" y="0" type="line"/>
      <point x="176" y="0" type="line"/>
      <point x="176" y="555" type="line"/>
      <point x="202" y="561"/>
      <point x="230" y="564"/>
      <point x="263" y="564" type="curve" smooth="yes"/>
      <point x="325" y="564"/>
      <point x="359" y="543"/>
      <point x="359" y="488" type="curve" smooth="yes"/>
      <point x="359" y="430"/>
      <point x="328" y="397"/>
      <point x="239" y="397" type="curve"/>
      <point x="239" y="299" type="line"/>
      <point x="356" y="299"/>
      <point x="397" y="257"/>
      <point x="397" y="183" type="curve" smooth="yes"/>
      <point x="397" y="145"/>
      <point x="393" y="119"/>
      <point x="382" y="96" type="curve"/>
      <point x="359" y="88"/>
      <point x="333" y="88"/>
      <point x="305" y="88" type="curve" smooth="yes"/>
      <point x="280" y="88"/>
      <point x="252" y="92"/>
      <point x="229" y="99" type="curve"/>
      <point x="214" y="5" type="line"/>
      <point x="240" y="-3"/>
      <point x="273" y="-9"/>
      <point x="310" y="-9" type="curve" smooth="yes"/>
    </contour>
  </outline>
</glyph>
<glyph name="acircumflex" format="1">
  <advance width="492"/>
  <unicode hex="00E2"/>
  <note>
	acircumflex
  </note>
  <outline>
    <contour>
      <point x="239" y="-8"/>
      <point x="287" y="19"/>
      <point x="321" y="66" type="curve"/>
      <point x="329" y="66" type="line"/>
      <point x="335" y="0" type="line"/>
      <point x="428" y="0" type="line"/>
      <point x="428" y="331" type="line" smooth="yes"/>
      <point x="428" y="426"/>
      <point x="367" y="478"/>
      <point x="259" y="478" type="curve" smooth="yes"/>
      <point x="184" y="478"/>
      <point x="114" y="453"/>
      <point x="71" y="428" type="curve"/>
      <point x="71" y="403" type="line" smooth="yes"/>
      <point x="71" y="377"/>
      <point x="76" y="350"/>
      <point x="84" y="327" type="curve"/>
      <point x="169" y="327" type="line"/>
      <point x="179" y="392" type="line"/>
      <point x="195" y="394"/>
      <point x="215" y="396"/>
      <point x="238" y="396" type="curve" smooth="yes"/>
      <point x="297" y="396"/>
      <point x="320" y="381"/>
      <point x="320" y="322" type="curve" smooth="yes"/>
      <point x="320" y="267" type="line"/>
      <point x="298" y="269"/>
      <point x="280" y="270"/>
      <point x="259" y="270" type="curve" smooth="yes"/>
      <point x="127" y="270"/>
      <point x="36" y="227"/>
      <point x="36" y="118" type="curve" smooth="yes"/>
      <point x="36" y="40"/>
      <point x="81" y="-8"/>
      <point x="176" y="-8" type="curve" smooth="yes"/>
    </contour>
    <contour>
      <point x="168" y="78"/>
      <point x="148" y="92"/>
      <point x="148" y="132" type="curve" smooth="yes"/>
      <point x="148" y="155"/>
      <point x="150" y="171"/>
      <point x="160" y="195" type="curve"/>
      <point x="181" y="201"/>
      <point x="209" y="203"/>
      <point x="239" y="203" type="curve" smooth="yes"/>
      <point x="273" y="203"/>
      <point x="300" y="200"/>
      <point x="322" y="196" type="curve"/>
      <point x="322" y="137" type="line"/>
      <point x="294" y="99"/>
      <point x="252" y="78"/>
      <point x="203" y="78" type="curve" smooth="yes"/>
    </contour>
    <contour>
      <point x="247" y="602" type="line"/>
      <point x="253" y="602" type="line"/>
      <point x="330" y="532" type="line"/>
      <point x="394" y="545" type="line"/>
      <point x="297" y="682" type="line"/>
      <point x="203" y="682" type="line"/>
      <point x="105" y="545" type="line"/>
      <point x="168" y="532" type="line"/>
    </contour>
  </outline>
</glyph>
<glyph name="aring" format="1">
  <advance width="492"/>
  <unicode hex="00E5"/>
  <note>
	aring
  </note>
  <outline>
    <contour>
      <point x="239" y="-8"/>
      <point x="287" y="19"/>
      <point x="321" y="66" type="curve"/>
      <point x="329" y="66" type="line"/>
      <point x="335" y="0" type="line"/>
      <point x="428" y="0" type="line"/>
      <point x="428" y="331" type="line" smooth="yes"/>
      <point x="428" y="426"/>
      <point x="367" y="478"/>
      <point x="259" y="478" type="curve" smooth="yes"/>
      <point x="184" y="478"/>
      <point x="114" y="453"/>
      <point x="71" y="428" type="curve"/>
      <point x="71" y="403" type="line" smooth="yes"/>
      <point x="71" y="377"/>
      <point x="76" y="350"/>
      <point x="84" y="327" type="curve"/>
      <point x="169" y="327" type="line"/>
      <point x="179" y="392" type="line"/>
      <point x="195" y="394"/>
      <point x="215" y="396"/>
      <point x="238" y="396" type="curve" smooth="yes"/>
      <point x="297" y="396"/>
      <point x="320" y="381"/>
      <point x="320" y="322" type="curve" smooth="yes"/>
      <point x="320" y="267" type="line"/>
      <point x="298" y="269"/>
      <point x="280" y="270"/>
      <point x="259" y="270" type="curve" smooth="yes"/>
      <point x="127" y="270"/>
      <point x="36" y="227"/>
      <point x="36" y="118" type="curve" smooth="yes"/>
      <point x="36" y="40"/>
      <point x="81" y="-8"/>
      <point x="176" y="-8" type="curve" smooth="yes"/>
    </contour>
    <contour>
      <point x="168" y="78"/>
      <point x="148" y="92"/>
      <point x="148" y="132" type="curve" smooth="yes"/>
      <point x="148" y="155"/>
      <point x="150" y="171"/>
      <point x="160" y="195" type="curve"/>
      <point x="181" y="201"/>
      <point x="209" y="203"/>
      <point x="239" y="203" type="curve" smooth="yes"/>
      <point x="273" y="203"/>
      <point x="300" y="200"/>
      <point x="322" y="196" type="curve"/>
      <point x="322" y="137" type="line"/>
      <point x="294" y="99"/>
      <point x="252" y="78"/>
      <point x="203" y="78" type="curve" smooth="yes"/>
    </contour>
    <contour>
      <point x="336" y="535"/>
      <point x="386" y="577"/>
      <point x="386" y="635" type="curve" smooth="yes"/>
      <point x="386" y="697"/>
      <point x="344" y="738"/>
      <point x="271" y="738" type="curve" smooth="yes"/>
      <point x="179" y="738"/>
      <point x="136" y="688"/>
      <point x="136" y="632" type="curve" smooth="yes"/>
      <point x="136" y="572"/>
      <point x="177" y="535"/>
      <point x="251" y="535" type="curve" smooth="yes"/>
    </contour>
    <contour>
      <point x="229" y="597"/>
      <point x="212" y="613"/>
      <point x="212" y="635" type="curve" smooth="yes"/>
      <point x="212" y="648"/>
      <point x="213" y="659"/>
      <point x="217" y="671" type="curve"/>
      <point x="230" y="675"/>
      <point x="245" y="676"/>
      <point x="265" y="676" type="curve" smooth="yes"/>
      <point x="296" y="676"/>
      <point x="311" y="656"/>
      <point x="311" y="631" type="curve" smooth="yes"/>
      <point x="311" y="621"/>
      <point x="309" y="611"/>
      <point x="307" y="602" type="curve"/>
      <point x="294" y="598"/>
      <point x="278" y="597"/>
      <point x="258" y="597" type="curve" smooth="yes"/>
    </contour>
  </outline>
</glyph>
<glyph name="ccedilla" format="1">
  <advance width="468"/>
  <unicode hex="00E7"/>
  <note>
	ccedilla
  </note>
  <outline>
    <contour>
      <point x="340" y="-229"/>
      <point x="377" y="-193"/>
      <point x="377" y="-130" type="curve" smooth="yes"/>
      <point x="377" y="-78"/>
      <point x="352" y="-45"/>
      <point x="297" y="-45" type="curve" smooth="yes"/>
      <point x="281" y="-45"/>
      <point x="269" y="-47"/>
      <point x="257" y="-52" type="curve"/>
      <point x="289" y="-8" type="line"/>
      <point x="358" y="-4"/>
      <point x="405" y="20"/>
      <point x="446" y="56" type="curve"/>
      <point x="397" y="133" type="line"/>
      <point x="363" y="104"/>
      <point x="322" y="90"/>
      <point x="273" y="90" type="curve" smooth="yes"/>
      <point x="177" y="90"/>
      <point x="149" y="138"/>
      <point x="149" y="227" type="curve" smooth="yes"/>
      <point x="149" y="278"/>
      <point x="157" y="336"/>
      <point x="169" y="369" type="curve"/>
      <point x="191" y="377"/>
      <point x="224" y="380"/>
      <point x="255" y="380" type="curve" smooth="yes"/>
      <point x="278" y="380"/>
      <point x="301" y="378"/>
      <point x="318" y="373" type="curve"/>
      <point x="326" y="310" type="line"/>
      <point x="409" y="310" type="line"/>
      <point x="417" y="335"/>
      <point x="422" y="368"/>
      <point x="422" y="401" type="curve" smooth="yes"/>
      <point x="422" y="437" type="line"/>
      <point x="387" y="460"/>
      <point x="330" y="478"/>
      <point x="262" y="478" type="curve" smooth="yes"/>
      <point x="119" y="478"/>
      <point x="43" y="377"/>
      <point x="43" y="225" type="curve" smooth="yes"/>
      <point x="43" y="105"/>
      <point x="83" y="16"/>
      <point x="210" y="-4" type="curve"/>
      <point x="155" y="-68" type="line"/>
      <point x="200" y="-115" type="line"/>
      <point x="210" y="-110"/>
      <point x="226" y="-107"/>
      <point x="241" y="-107" type="curve" smooth="yes"/>
      <point x="268" y="-107"/>
      <point x="285" y="-114"/>
      <point x="285" y="-133" type="curve" smooth="yes"/>
      <point x="285" y="-142"/>
      <point x="284" y="-148"/>
      <point x="281" y="-155" type="curve"/>
      <point x="268" y="-158"/>
      <point x="256" y="-158"/>
      <point x="240" y="-158" type="curve" smooth="yes"/>
      <point x="219" y="-158"/>
      <point x="193" y="-154"/>
      <point x="173" y="-146" type="curve"/>
      <point x="152" y="-210" type="line"/>
      <point x="184" y="-225"/>
      <point x="219" y="-229"/>
      <point x="254" y="-229" type="curve" smooth="yes"/>
    </contour>
  </outline>
</glyph>
<glyph name="edieresis" format="1">
  <advance width="503"/>
  <unicode hex="00EB"/>
  <note>
	edieresis
  </note>
  <outline>
    <contour>
      <point x="359" y="-7"/>
      <point x="412" y="17"/>
      <point x="456" y="45" type="curve"/>
      <point x="426" y="127" type="line"/>
      <point x="385" y="102"/>
      <point x="343" y="83"/>
      <point x="275" y="83" type="curve" smooth="yes"/>
      <point x="189" y="83"/>
      <point x="151" y="124"/>
      <point x="150" y="198" type="curve"/>
      <point x="392" y="195" type="line"/>
      <point x="457" y="259" type="line"/>
      <point x="467" y="391"/>
      <point x="406" y="480"/>
      <point x="269" y="480" type="curve" smooth="yes"/>
      <point x="125" y="480"/>
      <point x="46" y="388"/>
      <point x="46" y="231" type="curve" smooth="yes"/>
      <point x="46" y="82"/>
      <point x="114" y="-7"/>
      <point x="270" y="-7" type="curve" smooth="yes"/>
    </contour>
    <contour>
      <point x="152" y="348"/>
      <point x="178" y="389"/>
      <point x="265" y="389" type="curve" smooth="yes"/>
      <point x="326" y="389"/>
      <point x="359" y="359"/>
      <point x="359" y="311" type="curve" smooth="yes"/>
      <point x="359" y="302"/>
      <point x="358" y="287"/>
      <point x="354" y="274" type="curve"/>
      <point x="149" y="270" type="line"/>
    </contour>
    <contour>
      <point x="216" y="537"/>
      <point x="237" y="556"/>
      <point x="237" y="589" type="curve" smooth="yes"/>
      <point x="237" y="624"/>
      <point x="216" y="644"/>
      <point x="180" y="644" type="curve" smooth="yes"/>
      <point x="145" y="644"/>
      <point x="124" y="624"/>
      <point x="124" y="589" type="curve" smooth="yes"/>
      <point x="124" y="556"/>
      <point x="145" y="537"/>
      <point x="180" y="537" type="curve" smooth="yes"/>
    </contour>
    <contour>
      <point x="382" y="537"/>
      <point x="402" y="556"/>
      <point x="402" y="589" type="curve" smooth="yes"/>
      <point x="402" y="624"/>
      <point x="382" y="644"/>
      <point x="346" y="644" type="curve" smooth="yes"/>
      <point x="310" y="644"/>
      <point x="289" y="624"/>
      <point x="289" y="589" type="curve" smooth="yes"/>
      <point x="289" y="556"/>
      <point x="310" y="537"/>
      <point x="346" y="537" type="curve" smooth="yes"/>
    </contour>
  </outline>
</glyph>
<glyph name="igrave" format="1">
  <advance width="244"/>
  <unicode hex="00EC"/>
  <note>
	igrave
  </note>
  <outline>
    <contour>
      <point x="175" y="0" type="line"/>
      <point x="175" y="470" type="line"/>
      <point x="69" y="470" type="line"/>
      <point x="69" y="0" type="line"/>
    </contour>
    <contour>
      <point x="164" y="547" type="line"/>
      <point x="79" y="696" type="line"/>
      <point x="-52" y="682" type="line"/>
      <point x="77" y="533" type="line"/>
    </contour>
  </outline>
</glyph>
<glyph name="iacute" format="1">
  <advance width="244"/>
  <unicode hex="00ED"/>
  <note>
	iacute
  </note>
  <outline>
    <contour>
      <point x="175" y="0" type="line"/>
      <point x="175" y="470" type="line"/>
      <point x="69" y="470" type="line"/>
      <point x="69" y="0" type="line"/>
    </contour>
    <contour>
      <point x="278" y="687" type="line"/>
      <point x="153" y="700" type="line"/>
      <point x="70" y="547" type="line"/>
      <point x="149" y="534" type="line"/>
    </contour>
  </outline>
</glyph>
<glyph name="eth" format="1">
  <advance width="581"/>
  <unicode hex="00F0"/>
  <note>
	eth
  </note>
  <outline>
    <contour>
      <point x="442" y="-16"/>
      <point x="500" y="104"/>
      <point x="500" y="248" type="curve" smooth="yes"/>
      <point x="500" y="344"/>
      <point x="482" y="423"/>
      <point x="436" y="488" type="curve"/>
      <point x="520" y="517" type="line"/>
      <point x="488" y="582" type="line"/>
      <point x="384" y="542" type="line"/>
      <point x="353" y="571"/>
      <point x="313" y="596"/>
      <point x="264" y="619" type="curve"/>
      <point x="205" y="556" type="line"/>
      <point x="237" y="542"/>
      <point x="267" y="527"/>
      <point x="292" y="508" type="curve"/>
      <point x="200" y="474" type="line"/>
      <point x="226" y="412" type="line"/>
      <point x="345" y="455" type="line"/>
      <point x="371" y="419"/>
      <point x="386" y="377"/>
      <point x="388" y="325" type="curve"/>
      <point x="382" y="325" type="line"/>
      <point x="351" y="355"/>
      <point x="311" y="369"/>
      <point x="265" y="369" type="curve" smooth="yes"/>
      <point x="156" y="369"/>
      <point x="71" y="304"/>
      <point x="71" y="183" type="curve" smooth="yes"/>
      <point x="71" y="54"/>
      <point x="151" y="-16"/>
      <point x="270" y="-16" type="curve" smooth="yes"/>
    </contour>
    <contour>
      <point x="209" y="77"/>
      <point x="177" y="111"/>
      <point x="177" y="183" type="curve" smooth="yes"/>
      <point x="177" y="245"/>
      <point x="212" y="276"/>
      <point x="283" y="276" type="curve" smooth="yes"/>
      <point x="324" y="276"/>
      <point x="356" y="265"/>
      <point x="390" y="245" type="curve"/>
      <point x="392" y="231"/>
      <point x="393" y="214"/>
      <point x="393" y="199" type="curve" smooth="yes"/>
      <point x="393" y="160"/>
      <point x="387" y="119"/>
      <point x="377" y="90" type="curve"/>
      <point x="346" y="81"/>
      <point x="321" y="77"/>
      <point x="285" y="77" type="curve" smooth="yes"/>
    </contour>
  </outline>
</glyph>
<glyph name="otilde" format="1">
  <advance width="532"/>
  <unicode hex="00F5"/>
  <note>
	otilde
  </note>
  <outline>
    <contour>
      <point x="420" y="-8"/>
      <point x="486" y="86"/>
      <point x="486" y="236" type="curve" smooth="yes"/>
      <point x="486" y="380"/>
      <point x="432" y="481"/>
      <point x="279" y="481" type="curve" smooth="yes"/>
      <point x="119" y="481"/>
      <point x="46" y="380"/>
      <point x="46" y="229" type="curve" smooth="yes"/>
      <point x="46" y="85"/>
      <point x="100" y="-8"/>
      <point x="253" y="-8" type="curve" smooth="yes"/>
    </contour>
    <contour>
      <point x="173" y="83"/>
      <point x="152" y="127"/>
      <point x="152" y="240" type="curve" smooth="yes"/>
      <point x="152" y="299"/>
      <point x="159" y="343"/>
      <point x="172" y="373" type="curve"/>
      <point x="195" y="382"/>
      <point x="227" y="387"/>
      <point x="258" y="387" type="curve" smooth="yes"/>
      <point x="360" y="387"/>
      <point x="380" y="338"/>
      <point x="380" y="223" type="curve" smooth="yes"/>
      <point x="380" y="165"/>
      <point x="373" y="126"/>
      <point x="360" y="97" type="curve"/>
      <point x="337" y="88"/>
      <point x="306" y="83"/>
      <point x="274" y="83" type="curve" smooth="yes"/>
    </contour>
    <contour>
      <point x="183" y="558"/>
      <point x="191" y="578"/>
      <point x="217" y="578" type="curve" smooth="yes"/>
      <point x="252" y="578"/>
      <point x="283" y="537"/>
      <point x="330" y="537" type="curve" smooth="yes"/>
      <point x="392" y="537"/>
      <point x="416" y="577"/>
      <point x="419" y="649" type="curve"/>
      <point x="350" y="669" type="line"/>
      <point x="347" y="643"/>
      <point x="340" y="623"/>
      <point x="313" y="623" type="curve" smooth="yes"/>
      <point x="284" y="623"/>
      <point x="248" y="664"/>
      <point x="203" y="664" type="curve" smooth="yes"/>
      <point x="139" y="664"/>
      <point x="115" y="624"/>
      <point x="112" y="552" type="curve"/>
      <point x="181" y="531" type="line"/>
    </contour>
  </outline>
</glyph>
<glyph name="odieresis" format="1">
  <advance width="532"/>
  <unicode hex="00F6"/>
  <note>
	odieresis
  </note>
  <outline>
    <contour>
      <point x="420" y="-8"/>
      <point x="486" y="86"/>
      <point x="486" y="236" type="curve" smooth="yes"/>
      <point x="486" y="380"/>
      <point x="432" y="481"/>
      <point x="279" y="481" type="curve" smooth="yes"/>
      <point x="119" y="481"/>
      <point x="46" y="380"/>
      <point x="46" y="229" type="curve" smooth="yes"/>
      <point x="46" y="85"/>
      <point x="100" y="-8"/>
      <point x="253" y="-8" type="curve" smooth="yes"/>
    </contour>
    <contour>
      <point x="173" y="83"/>
      <point x="152" y="127"/>
      <point x="152" y="240" type="curve" smooth="yes"/>
      <point x="152" y="299"/>
      <point x="159" y="343"/>
      <point x="172" y="373" type="curve"/>
      <point x="195" y="382"/>
      <point x="227" y="387"/>
      <point x="258" y="387" type="curve" smooth="yes"/>
      <point x="360" y="387"/>
      <point x="380" y="338"/>
      <point x="380" y="223" type="curve" smooth="yes"/>
      <point x="380" y="165"/>
      <point x="373" y="126"/>
      <point x="360" y="97" type="curve"/>
      <point x="337" y="88"/>
      <point x="306" y="83"/>
      <point x="274" y="83" type="curve" smooth="yes"/>
    </contour>
    <contour>
      <point x="222" y="537"/>
      <point x="243" y="556"/>
      <point x="243" y="589" type="curve" smooth="yes"/>
      <point x="243" y="624"/>
      <point x="222" y="644"/>
      <point x="186" y="644" type="curve" smooth="yes"/>
      <point x="151" y="644"/>
      <point x="130" y="624"/>
      <point x="130" y="589" type="curve" smooth="yes"/>
      <point x="130" y="556"/>
      <point x="151" y="537"/>
      <point x="186" y="537" type="curve" smooth="yes"/>
    </contour>
    <contour>
      <point x="388" y="537"/>
      <point x="408" y="556"/>
      <point x="408" y="589" type="curve" smooth="yes"/>
      <point x="408" y="624"/>
      <point x="388" y="644"/>
      <point x="352" y="644" type="curve" smooth="yes"/>
      <point x="316" y="644"/>
      <point x="295" y="624"/>
      <point x="295" y="589" type="curve" smooth="yes"/>
      <point x="295" y="556"/>
      <point x="316" y="537"/>
      <point x="352" y="537" type="curve" smooth="yes"/>
    </contour>
  </outline>
</glyph>
<glyph name="divide" format="1">
  <advance width="532"/>
  <unicode hex="00F7"/>
  <note>
	divide
  </note>
  <outline>
    <contour>
      <point x="486" y="261" type="line"/>
      <point x="486" y="351" type="line"/>
      <point x="46" y="351" type="line"/>
      <point x="46" y="261" type="line"/>
    </contour>
    <contour>
      <point x="300" y="87"/>
      <point x="326" y="114"/>
      <point x="326" y="148" type="curve" smooth="yes"/>
      <point x="326" y="182"/>
      <point x="300" y="208"/>
      <point x="266" y="208" type="curve" smooth="yes"/>
      <point x="232" y="208"/>
      <point x="206" y="182"/>
      <point x="206" y="148" type="curve" smooth="yes"/>
      <point x="206" y="114"/>
      <point x="232" y="87"/>
      <point x="266" y="87" type="curve" smooth="yes"/>
    </contour>
    <contour>
      <point x="300" y="404"/>
      <point x="326" y="431"/>
      <point x="326" y="465" type="curve" smooth="yes"/>
      <point x="326" y="499"/>
      <point x="300" y="525"/>
      <point x="266" y="525" type="curve" smooth="yes"/>
      <point x="232" y="525"/>
      <point x="206" y="499"/>
      <point x="206" y="465" type="curve" smooth="yes"/>
      <point x="206" y="431"/>
      <point x="232" y="404"/>
      <point x="266" y="404" type="curve" smooth="yes"/>
    </contour>
  </outline>
</glyph>
<glyph name="uacute" format="1">
  <advance width="538"/>
  <unicode hex="00FA"/>
  <note>
	uacute
  </note>
  <outline>
    <contour>
      <point x="273" y="-8"/>
      <point x="319" y="24"/>
      <point x="359" y="72" type="curve"/>
      <point x="367" y="72" type="line"/>
      <point x="373" y="0" type="line"/>
      <point x="468" y="0" type="line"/>
      <point x="468" y="471" type="line"/>
      <point x="360" y="471" type="line"/>
      <point x="360" y="141" type="line"/>
      <point x="329" y="106"/>
      <point x="288" y="89"/>
      <point x="232" y="89" type="curve" smooth="yes"/>
      <point x="214" y="89"/>
      <point x="193" y="91"/>
      <point x="172" y="97" type="curve"/>
      <point x="172" y="471" type="line"/>
      <point x="64" y="471" type="line"/>
      <point x="64" y="132" type="line" smooth="yes"/>
      <point x="64" y="32"/>
      <point x="110" y="-8"/>
      <point x="201" y="-8" type="curve" smooth="yes"/>
    </contour>
    <contour>
      <point x="413" y="687" type="line"/>
      <point x="288" y="699" type="line"/>
      <point x="205" y="547" type="line"/>
      <point x="284" y="533" type="line"/>
    </contour>
  </outline>
</glyph>
<glyph name="udieresis" format="1">
  <advance width="538"/>
  <unicode hex="00FC"/>
  <note>
	udieresis
  </note>
  <outline>
    <contour>
      <point x="273" y="-8"/>
      <point x="319" y="24"/>
      <point x="359" y="72" type="curve"/>
      <point x="367" y="72" type="line"/>
      <point x="373" y="0" type="line"/>
      <point x="468" y="0" type="line"/>
      <point x="468" y="471" type="line"/>
      <point x="360" y="471" type="line"/>
      <point x="360" y="141" type="line"/>
      <point x="329" y="106"/>
      <point x="288" y="89"/>
      <point x="232" y="89" type="curve" smooth="yes"/>
      <point x="214" y="89"/>
      <point x="193" y="91"/>
      <point x="172" y="97" type="curve"/>
      <point x="172" y="471" type="line"/>
      <point x="64" y="471" type="line"/>
      <point x="64" y="132" type="line" smooth="yes"/>
      <point x="64" y="32"/>
      <point x="110" y="-8"/>
      <point x="201" y="-8" type="curve" smooth="yes"/>
    </contour>
    <contour>
      <point x="222" y="537"/>
      <point x="243" y="556"/>
      <point x="243" y="589" type="curve" smooth="yes"/>
      <point x="243" y="624"/>
      <point x="222" y="644"/>
      <point x="186" y="644" type="curve" smooth="yes"/>
      <point x="151" y="644"/>
      <point x="130" y="624"/>
      <point x="130" y="589" type="curve" smooth="yes"/>
      <point x="130" y="556"/>
      <point x="151" y="537"/>
      <point x="186" y="537" type="curve" smooth="yes"/>
    </contour>
    <contour>
      <point x="388" y="537"/>
      <point x="408" y="556"/>
      <point x="408" y="589" type="curve" smooth="yes"/>
      <point x="408" y="624"/>
      <point x="388" y="644"/>
      <point x="352" y="644" type="curve" smooth="yes"/>
      <point x="316" y="644"/>
      <point x="295" y="624"/>
      <point x="295" y="589" type="curve" smooth="yes"/>
      <point x="295" y="556"/>
      <point x="316" y="537"/>
      <point x="352" y="537" type="curve" smooth="yes"/>
    </contour>
  </outline>
</glyph>
<glyph name="thorn" format="1">
  <advance width="512"/>
  <unicode hex="00FE"/>
  <note>
	thorn
  </note>
  <outline>
    <contour>
      <point x="181" y="-180" type="line"/>
      <point x="181" y="91" type="line"/>
      <point x="188" y="91" type="line"/>
      <point x="225" y="68"/>
      <point x="260" y="55"/>
      <point x="309" y="55" type="curve" smooth="yes"/>
      <point x="427" y="55"/>
      <point x="476" y="147"/>
      <point x="476" y="265" type="curve" smooth="yes"/>
      <point x="476" y="383"/>
      <point x="427" y="475"/>
      <point x="309" y="475" type="curve" smooth="yes"/>
      <point x="260" y="475"/>
      <point x="224" y="462"/>
      <point x="188" y="439" type="curve"/>
      <point x="181" y="439" type="line"/>
      <point x="181" y="676" type="line"/>
      <point x="71" y="676" type="line"/>
      <point x="71" y="-180" type="line"/>
    </contour>
    <contour>
      <point x="238" y="155"/>
      <point x="210" y="161"/>
      <point x="181" y="174" type="curve"/>
      <point x="181" y="357" type="line"/>
      <point x="211" y="369"/>
      <point x="238" y="375"/>
      <point x="274" y="375" type="curve" smooth="yes"/>
      <point x="340" y="375"/>
      <point x="367" y="337"/>
      <point x="367" y="265" type="curve" smooth="yes"/>
      <point x="367" y="194"/>
      <point x="343" y="155"/>
      <point x="272" y="155" type="curve" smooth="yes"/>
    </contour>
  </outline>
</glyph>
<glyph name="Amacron" format="1">
  <advance width="624"/>
  <unicode hex="0100"/>
  <note>
	Amacron
  </note>
  <outline>
    <contour>
      <point x="457" y="684" type="line"/>
      <point x="457" y="770" type="line"/>
      <point x="166" y="770" type="line"/>
      <point x="166" y="684" type="line"/>
    </contour>
    <component base="A"/>
  </outline>
</glyph>
<glyph name="Aogonek" format="1">
  <advance width="627"/>
  <unicode hex="0104"/>
  <note>
	Aogonek
  </note>
  <outline>
    <contour>
      <point x="552" y="-168"/>
      <point x="578" y="-163"/>
      <point x="596" y="-154" type="curve"/>
      <point x="579" y="-83" type="line"/>
      <point x="565" y="-88"/>
      <point x="553" y="-89"/>
      <point x="540" y="-89" type="curve" smooth="yes"/>
      <point x="526" y="-89"/>
      <point x="513" y="-88"/>
      <point x="503" y="-85" type="curve"/>
      <point x="501" y="-79"/>
      <point x="500" y="-73"/>
      <point x="500" y="-65" type="curve" smooth="yes"/>
      <point x="500" y="-37"/>
      <point x="513" y="-18"/>
      <point x="555" y="5" type="curve"/>
      <point x="593" y="8" type="line"/>
      <point x="540" y="207"/>
      <point x="466" y="443"/>
      <point x="398" y="618" type="curve"/>
      <point x="226" y="618" type="line"/>
      <point x="158" y="443"/>
      <point x="84" y="207"/>
      <point x="31" y="8" type="curve"/>
      <point x="147" y="0" type="line"/>
      <point x="161" y="61"/>
      <point x="178" y="126"/>
      <point x="195" y="188" type="curve"/>
      <point x="428" y="188" type="line"/>
      <point x="442" y="129"/>
      <point x="457" y="69"/>
      <point x="474" y="10" type="curve"/>
      <point x="431" y="-12"/>
      <point x="404" y="-39"/>
      <point x="404" y="-84" type="curve" smooth="yes"/>
      <point x="404" y="-139"/>
      <point x="445" y="-168"/>
      <point x="521" y="-168" type="curve" smooth="yes"/>
    </contour>
    <contour>
      <point x="249" y="374"/>
      <point x="275" y="455"/>
      <point x="297" y="516" type="curve"/>
      <point x="328" y="516" type="line"/>
      <point x="349" y="455"/>
      <point x="374" y="374"/>
      <point x="401" y="285" type="curve"/>
      <point x="223" y="285" type="line"/>
    </contour>
  </outline>
</glyph>
<glyph name="cacute" format="1">
  <advance width="468"/>
  <unicode hex="0107"/>
  <note>
	cacute
  </note>
  <outline>
    <contour>
      <point x="349" y="-9"/>
      <point x="401" y="17"/>
      <point x="446" y="56" type="curve"/>
      <point x="397" y="133" type="line"/>
      <point x="363" y="104"/>
      <point x="322" y="90"/>
      <point x="273" y="90" type="curve" smooth="yes"/>
      <point x="177" y="90"/>
      <point x="149" y="138"/>
      <point x="149" y="227" type="curve" smooth="yes"/>
      <point x="149" y="278"/>
      <point x="157" y="336"/>
      <point x="169" y="369" type="curve"/>
      <point x="191" y="377"/>
      <point x="224" y="380"/>
      <point x="255" y="380" type="curve" smooth="yes"/>
      <point x="278" y="380"/>
      <point x="301" y="378"/>
      <point x="318" y="373" type="curve"/>
      <point x="326" y="310" type="line"/>
      <point x="409" y="310" type="line"/>
      <point x="417" y="335"/>
      <point x="422" y="368"/>
      <point x="422" y="401" type="curve" smooth="yes"/>
      <point x="422" y="437" type="line"/>
      <point x="387" y="460"/>
      <point x="330" y="478"/>
      <point x="262" y="478" type="curve" smooth="yes"/>
      <point x="119" y="478"/>
      <point x="43" y="377"/>
      <point x="43" y="225" type="curve" smooth="yes"/>
      <point x="43" y="88"/>
      <point x="97" y="-9"/>
      <point x="270" y="-9" type="curve" smooth="yes"/>
    </contour>
    <contour>
      <point x="410" y="687" type="line"/>
      <point x="285" y="699" type="line"/>
      <point x="202" y="547" type="line"/>
      <point x="281" y="533" type="line"/>
    </contour>
  </outline>
</glyph>
<glyph name="Dcaron" format="1">
  <advance width="603"/>
  <unicode hex="010E"/>
  <note>
	Dcaron
  </note>
  <outline>
    <contour>
      <point x="227" y="0" type="line" smooth="yes"/>
      <point x="495" y="0"/>
      <point x="560" y="122"/>
      <point x="560" y="318" type="curve" smooth="yes"/>
      <point x="560" y="510"/>
      <point x="485" y="628"/>
      <point x="263" y="628" type="curve" smooth="yes"/>
      <point x="197" y="628"/>
      <point x="126" y="620"/>
      <point x="71" y="606" type="curve"/>
      <point x="71" y="0" type="line"/>
    </contour>
    <contour>
      <point x="180" y="521" type="line"/>
      <point x="210" y="525"/>
      <point x="235" y="527"/>
      <point x="265" y="527" type="curve" smooth="yes"/>
      <point x="406" y="527"/>
      <point x="450" y="461"/>
      <point x="450" y="307" type="curve" smooth="yes"/>
      <point x="450" y="236"/>
      <point x="439" y="167"/>
      <point x="421" y="122" type="curve"/>
      <point x="369" y="107"/>
      <point x="310" y="101"/>
      <point x="236" y="101" type="curve" smooth="yes"/>
      <point x="180" y="101" type="line"/>
    </contour>
    <contour>
      <point x="343" y="684" type="line"/>
      <point x="440" y="821" type="line"/>
      <point x="376" y="833" type="line"/>
      <point x="299" y="764" type="line"/>
      <point x="293" y="764" type="line"/>
      <point x="214" y="833" type="line"/>
      <point x="151" y="821" type="line"/>
      <point x="249" y="684" type="line"/>
    </contour>
  </outline>
</glyph>
<glyph name="dcroat" format="1">
  <advance width="575"/>
  <unicode hex="0111"/>
  <note>
	dcroat
  </note>
  <outline>
    <contour>
      <point x="299" y="-8"/>
      <point x="338" y="25"/>
      <point x="367" y="64" type="curve"/>
      <point x="375" y="64" type="line"/>
      <point x="379" y="0" type="line"/>
      <point x="478" y="0" type="line"/>
      <point x="478" y="525" type="line"/>
      <point x="534" y="525" type="line"/>
      <point x="534" y="607" type="line"/>
      <point x="478" y="607" type="line"/>
      <point x="478" y="671" type="line"/>
      <point x="370" y="671" type="line"/>
      <point x="370" y="607" type="line"/>
      <point x="232" y="607" type="line"/>
      <point x="232" y="525" type="line"/>
      <point x="370" y="525" type="line"/>
      <point x="371" y="471" type="line"/>
      <point x="375" y="412" type="line"/>
      <point x="369" y="412" type="line"/>
      <point x="333" y="451"/>
      <point x="289" y="476"/>
      <point x="224" y="476" type="curve" smooth="yes"/>
      <point x="92" y="476"/>
      <point x="46" y="355"/>
      <point x="46" y="234" type="curve" smooth="yes"/>
      <point x="46" y="81"/>
      <point x="97" y="-8"/>
      <point x="228" y="-8" type="curve" smooth="yes"/>
    </contour>
    <contour>
      <point x="179" y="88"/>
      <point x="158" y="132"/>
      <point x="158" y="231" type="curve" smooth="yes"/>
      <point x="158" y="333"/>
      <point x="188" y="380"/>
      <point x="256" y="380" type="curve" smooth="yes"/>
      <point x="302" y="380"/>
      <point x="337" y="365"/>
      <point x="370" y="331" type="curve"/>
      <point x="370" y="153" type="line"/>
      <point x="350" y="119"/>
      <point x="314" y="88"/>
      <point x="258" y="88" type="curve" smooth="yes"/>
    </contour>
  </outline>
</glyph>
<glyph name="ebreve" format="1">
  <advance width="503"/>
  <unicode hex="0115"/>
  <note>
	ebreve
  </note>
  <outline>
    <contour>
      <point x="359" y="-7"/>
      <point x="412" y="17"/>
      <point x="456" y="45" type="curve"/>
      <point x="426" y="127" type="line"/>
      <point x="385" y="102"/>
      <point x="343" y="83"/>
      <point x="275" y="83" type="curve" smooth="yes"/>
      <point x="189" y="83"/>
      <point x="151" y="124"/>
      <point x="150" y="198" type="curve"/>
      <point x="392" y="195" type="line"/>
      <point x="457" y="259" type="line"/>
      <point x="467" y="391"/>
      <point x="406" y="480"/>
      <point x="269" y="480" type="curve" smooth="yes"/>
      <point x="125" y="480"/>
      <point x="46" y="388"/>
      <point x="46" y="231" type="curve" smooth="yes"/>
      <point x="46" y="82"/>
      <point x="114" y="-7"/>
      <point x="270" y="-7" type="curve" smooth="yes"/>
    </contour>
    <contour>
      <point x="152" y="348"/>
      <point x="178" y="389"/>
      <point x="265" y="389" type="curve" smooth="yes"/>
      <point x="326" y="389"/>
      <point x="359" y="359"/>
      <point x="359" y="311" type="curve" smooth="yes"/>
      <point x="359" y="302"/>
      <point x="358" y="287"/>
      <point x="354" y="274" type="curve"/>
      <point x="149" y="270" type="line"/>
    </contour>
    <contour>
      <point x="355" y="537"/>
      <point x="398" y="582"/>
      <point x="406" y="661" type="curve"/>
      <point x="310" y="675" type="line"/>
      <point x="308" y="641"/>
      <point x="298" y="621"/>
      <point x="260" y="621" type="curve" smooth="yes"/>
      <point x="222" y="621"/>
      <point x="212" y="641"/>
      <point x="210" y="675" type="curve"/>
      <point x="114" y="661" type="line"/>
      <point x="122" y="582"/>
      <point x="165" y="537"/>
      <point x="260" y="537" type="curve" smooth="yes"/>
    </contour>
  </outline>
</glyph>
<glyph name="eogonek" format="1">
  <advance width="503"/>
  <unicode hex="0119"/>
  <note>
	eogonek
  </note>
  <outline>
    <contour>
      <point x="423" y="-142"/>
      <point x="449" y="-136"/>
      <point x="468" y="-128" type="curve"/>
      <point x="450" y="-57" type="line"/>
      <point x="436" y="-61"/>
      <point x="424" y="-63"/>
      <point x="411" y="-63" type="curve" smooth="yes"/>
      <point x="397" y="-63"/>
      <point x="385" y="-62"/>
      <point x="375" y="-59" type="curve"/>
      <point x="373" y="-53"/>
      <point x="372" y="-46"/>
      <point x="372" y="-38" type="curve" smooth="yes"/>
      <point x="372" y="-15"/>
      <point x="380" y="2"/>
      <point x="408" y="20" type="curve"/>
      <point x="426" y="27"/>
      <point x="441" y="36"/>
      <point x="456" y="45" type="curve"/>
      <point x="426" y="127" type="line"/>
      <point x="385" y="102"/>
      <point x="343" y="83"/>
      <point x="275" y="83" type="curve" smooth="yes"/>
      <point x="189" y="83"/>
      <point x="151" y="124"/>
      <point x="150" y="198" type="curve"/>
      <point x="392" y="195" type="line"/>
      <point x="457" y="259" type="line"/>
      <point x="467" y="391"/>
      <point x="406" y="480"/>
      <point x="269" y="480" type="curve" smooth="yes"/>
      <point x="125" y="480"/>
      <point x="46" y="388"/>
      <point x="46" y="231" type="curve" smooth="yes"/>
      <point x="46" y="84"/>
      <point x="112" y="-5"/>
      <point x="264" y="-7" type="curve" smooth="yes"/>
      <point x="274" y="-7"/>
      <point x="284" y="-7"/>
      <point x="293" y="-5" type="curve"/>
      <point x="281" y="-20"/>
      <point x="276" y="-37"/>
      <point x="276" y="-58" type="curve" smooth="yes"/>
      <point x="276" y="-112"/>
      <point x="316" y="-142"/>
      <point x="392" y="-142" type="curve" smooth="yes"/>
    </contour>
    <contour>
      <point x="152" y="348"/>
      <point x="178" y="389"/>
      <point x="265" y="389" type="curve" smooth="yes"/>
      <point x="326" y="389"/>
      <point x="359" y="359"/>
      <point x="359" y="311" type="curve" smooth="yes"/>
      <point x="359" y="302"/>
      <point x="358" y="287"/>
      <point x="354" y="274" type="curve"/>
      <point x="149" y="270" type="line"/>
    </contour>
  </outline>
</glyph>
<glyph name="Ecaron" format="1">
  <advance width="555"/>
  <unicode hex="011A"/>
  <note>
	Ecaron
  </note>
  <outline>
    <contour>
      <point x="383" y="-9"/>
      <point x="449" y="-2"/>
      <point x="500" y="13" type="curve"/>
      <point x="481" y="110" type="line"/>
      <point x="429" y="97"/>
      <point x="367" y="91"/>
      <point x="306" y="91" type="curve" smooth="yes"/>
      <point x="260" y="91"/>
      <point x="222" y="94"/>
      <point x="180" y="101" type="curve"/>
      <point x="180" y="259" type="line"/>
      <point x="454" y="259" type="line"/>
      <point x="454" y="355" type="line"/>
      <point x="180" y="355" type="line"/>
      <point x="180" y="517" type="line"/>
      <point x="492" y="517" type="line"/>
      <point x="492" y="618" type="line"/>
      <point x="71" y="618" type="line"/>
      <point x="71" y="104" type="line" smooth="yes"/>
      <point x="71" y="14"/>
      <point x="170" y="-9"/>
      <point x="303" y="-9" type="curve" smooth="yes"/>
    </contour>
    <contour>
      <point x="339" y="684" type="line"/>
      <point x="436" y="821" type="line"/>
      <point x="372" y="833" type="line"/>
      <point x="295" y="764" type="line"/>
      <point x="289" y="764" type="line"/>
      <point x="210" y="833" type="line"/>
      <point x="147" y="821" type="line"/>
      <point x="245" y="684" type="line"/>
    </contour>
  </outline>
</glyph>
<glyph name="ecaron" format="1">
  <advance width="503"/>
  <unicode hex="011B"/>
  <note>
	ecaron
  </note>
  <outline>
    <contour>
      <point x="359" y="-7"/>
      <point x="412" y="17"/>
      <point x="456" y="45" type="curve"/>
      <point x="426" y="127" type="line"/>
      <point x="385" y="102"/>
      <point x="343" y="83"/>
      <point x="275" y="83" type="curve" smooth="yes"/>
      <point x="189" y="83"/>
      <point x="151" y="124"/>
      <point x="150" y="198" type="curve"/>
      <point x="392" y="195" type="line"/>
      <point x="457" y="259" type="line"/>
      <point x="467" y="391"/>
      <point x="406" y="480"/>
      <point x="269" y="480" type="curve" smooth="yes"/>
      <point x="125" y="480"/>
      <point x="46" y="388"/>
      <point x="46" y="231" type="curve" smooth="yes"/>
      <point x="46" y="82"/>
      <point x="114" y="-7"/>
      <point x="270" y="-7" type="curve" smooth="yes"/>
    </contour>
    <contour>
      <point x="152" y="348"/>
      <point x="178" y="389"/>
      <point x="265" y="389" type="curve" smooth="yes"/>
      <point x="326" y="389"/>
      <point x="359" y="359"/>
      <point x="359" y="311" type="curve" smooth="yes"/>
      <point x="359" y="302"/>
      <point x="358" y="287"/>
      <point x="354" y="274" type="curve"/>
      <point x="149" y="270" type="line"/>
    </contour>
    <contour>
      <point x="309" y="540" type="line"/>
      <point x="406" y="677" type="line"/>
      <point x="342" y="689" type="line"/>
      <point x="265" y="620" type="line"/>
      <point x="259" y="620" type="line"/>
      <point x="180" y="689" type="line"/>
      <point x="117" y="677" type="line"/>
      <point x="215" y="540" type="line"/>
    </contour>
  </outline>
</glyph>
<glyph name="Gcircumflex" format="1">
  <advance width="615"/>
  <unicode hex="011C"/>
  <note>
	Gcircumflex
  </note>
  <outline>
    <contour>
      <point x="466" y="-9"/>
      <point x="561" y="48"/>
      <point x="561" y="134" type="curve" smooth="yes"/>
      <point x="561" y="297" type="line"/>
      <point x="507" y="341" type="line"/>
      <point x="312" y="341" type="line"/>
      <point x="312" y="247" type="line"/>
      <point x="452" y="247" type="line"/>
      <point x="452" y="102" type="line"/>
      <point x="420" y="95"/>
      <point x="391" y="92"/>
      <point x="345" y="92" type="curve" smooth="yes"/>
      <point x="216" y="92"/>
      <point x="160" y="151"/>
      <point x="160" y="296" type="curve" smooth="yes"/>
      <point x="160" y="376"/>
      <point x="178" y="453"/>
      <point x="206" y="514" type="curve"/>
      <point x="248" y="523"/>
      <point x="291" y="526"/>
      <point x="329" y="526" type="curve" smooth="yes"/>
      <point x="376" y="526"/>
      <point x="418" y="523"/>
      <point x="443" y="517" type="curve"/>
      <point x="453" y="442" type="line"/>
      <point x="537" y="442" type="line"/>
      <point x="545" y="466"/>
      <point x="550" y="502"/>
      <point x="550" y="534" type="curve" smooth="yes"/>
      <point x="550" y="584" type="line"/>
      <point x="509" y="608"/>
      <point x="431" y="628"/>
      <point x="341" y="628" type="curve" smooth="yes"/>
      <point x="142" y="628"/>
      <point x="50" y="492"/>
      <point x="50" y="290" type="curve" smooth="yes"/>
      <point x="50" y="93"/>
      <point x="147" y="-9"/>
      <point x="332" y="-9" type="curve" smooth="yes"/>
    </contour>
    <contour>
      <point x="338" y="746" type="line"/>
      <point x="344" y="746" type="line"/>
      <point x="421" y="677" type="line"/>
      <point x="485" y="689" type="line"/>
      <point x="388" y="826" type="line"/>
      <point x="294" y="826" type="line"/>
      <point x="196" y="689" type="line"/>
      <point x="259" y="677" type="line"/>
    </contour>
  </outline>
</glyph>
<glyph name="Gbreve" format="1">
  <advance width="615"/>
  <unicode hex="011E"/>
  <note>
	Gbreve
  </note>
  <outline>
    <contour>
      <point x="466" y="-9"/>
      <point x="561" y="48"/>
      <point x="561" y="134" type="curve" smooth="yes"/>
      <point x="561" y="297" type="line"/>
      <point x="507" y="341" type="line"/>
      <point x="312" y="341" type="line"/>
      <point x="312" y="247" type="line"/>
      <point x="452" y="247" type="line"/>
      <point x="452" y="102" type="line"/>
      <point x="420" y="95"/>
      <point x="391" y="92"/>
      <point x="345" y="92" type="curve" smooth="yes"/>
      <point x="216" y="92"/>
      <point x="160" y="151"/>
      <point x="160" y="296" type="curve" smooth="yes"/>
      <point x="160" y="376"/>
      <point x="178" y="453"/>
      <point x="206" y="514" type="curve"/>
      <point x="248" y="523"/>
      <point x="291" y="526"/>
      <point x="329" y="526" type="curve" smooth="yes"/>
      <point x="376" y="526"/>
      <point x="418" y="523"/>
      <point x="443" y="517" type="curve"/>
      <point x="453" y="442" type="line"/>
      <point x="537" y="442" type="line"/>
      <point x="545" y="466"/>
      <point x="550" y="502"/>
      <point x="550" y="534" type="curve" smooth="yes"/>
      <point x="550" y="584" type="line"/>
      <point x="509" y="608"/>
      <point x="431" y="628"/>
      <point x="341" y="628" type="curve" smooth="yes"/>
      <point x="142" y="628"/>
      <point x="50" y="492"/>
      <point x="50" y="290" type="curve" smooth="yes"/>
      <point x="50" y="93"/>
      <point x="147" y="-9"/>
      <point x="332" y="-9" type="curve" smooth="yes"/>
    </contour>
    <contour>
      <point x="432" y="681"/>
      <point x="475" y="726"/>
      <point x="483" y="805" type="curve"/>
      <point x="387" y="820" type="line"/>
      <point x="385" y="785"/>
      <point x="375" y="765"/>
      <point x="337" y="765" type="curve" smooth="yes"/>
      <point x="299" y="765"/>
      <point x="289" y="785"/>
      <point x="287" y="820" type="curve"/>
      <point x="191" y="805" type="line"/>
      <point x="199" y="726"/>
      <point x="242" y="681"/>
      <point x="337" y="681" type="curve" smooth="yes"/>
    </contour>
  </outline>
</glyph>
<glyph name="Gcommaaccent" format="1">
  <advance width="615"/>
  <unicode hex="0122"/>
  <note>
	Gcommaaccent
  </note>
  <outline>
    <contour>
      <point x="466" y="-9"/>
      <point x="561" y="48"/>
      <point x="561" y="134" type="curve" smooth="yes"/>
      <point x="561" y="297" type="line"/>
      <point x="507" y="341" type="line"/>
      <point x="312" y="341" type="line"/>
      <point x="312" y="247" type="line"/>
      <point x="452" y="247" type="line"/>
      <point x="452" y="102" type="line"/>
      <point x="420" y="95"/>
      <point x="391" y="92"/>
      <point x="345" y="92" type="curve" smooth="yes"/>
      <point x="216" y="92"/>
      <point x="160" y="151"/>
      <point x="160" y="296" type="curve" smooth="yes"/>
      <point x="160" y="376"/>
      <point x="178" y="453"/>
      <point x="206" y="514" type="curve"/>
      <point x="248" y="523"/>
      <point x="291" y="526"/>
      <point x="329" y="526" type="curve" smooth="yes"/>
      <point x="376" y="526"/>
      <point x="418" y="523"/>
      <point x="443" y="517" type="curve"/>
      <point x="453" y="442" type="line"/>
      <point x="537" y="442" type="line"/>
      <point x="545" y="466"/>
      <point x="550" y="502"/>
      <point x="550" y="534" type="curve" smooth="yes"/>
      <point x="550" y="584" type="line"/>
      <point x="509" y="608"/>
      <point x="431" y="628"/>
      <point x="341" y="628" type="curve" smooth="yes"/>
      <point x="142" y="628"/>
      <point x="50" y="492"/>
      <point x="50" y="290" type="curve" smooth="yes"/>
      <point x="50" y="93"/>
      <point x="147" y="-9"/>
      <point x="332" y="-9" type="curve" smooth="yes"/>
    </contour>
    <contour>
      <point x="389" y="-226"/>
      <point x="410" y="-179"/>
      <point x="410" y="-136" type="curve" smooth="yes"/>
      <point x="410" y="-84"/>
      <point x="386" y="-58"/>
      <point x="333" y="-58" type="curve" smooth="yes"/>
      <point x="312" y="-58"/>
      <point x="288" y="-63"/>
      <point x="270" y="-69" type="curve"/>
      <point x="270" y="-143" type="line"/>
      <point x="323" y="-143" type="line"/>
      <point x="322" y="-178"/>
      <point x="311" y="-209"/>
      <point x="291" y="-245" type="curve"/>
      <point x="358" y="-260" type="line"/>
    </contour>
  </outline>
</glyph>
<glyph name="Hcircumflex" format="1">
  <advance width="615"/>
  <unicode hex="0124"/>
  <note>
	Hcircumflex
  </note>
  <outline>
    <contour>
      <point x="180" y="0" type="line"/>
      <point x="180" y="248" type="line"/>
      <point x="435" y="248" type="line"/>
      <point x="435" y="0" type="line"/>
      <point x="545" y="0" type="line"/>
      <point x="545" y="618" type="line"/>
      <point x="435" y="618" type="line"/>
      <point x="435" y="350" type="line"/>
      <point x="180" y="350" type="line"/>
      <point x="180" y="618" type="line"/>
      <point x="70" y="618" type="line"/>
      <point x="70" y="0" type="line"/>
    </contour>
    <contour>
      <point x="305" y="746" type="line"/>
      <point x="311" y="746" type="line"/>
      <point x="388" y="677" type="line"/>
      <point x="452" y="689" type="line"/>
      <point x="355" y="826" type="line"/>
      <point x="261" y="826" type="line"/>
      <point x="163" y="689" type="line"/>
      <point x="226" y="677" type="line"/>
    </contour>
  </outline>
</glyph>
<glyph name="hbar" format="1">
  <advance width="547"/>
  <unicode hex="0127"/>
  <note>
	hbar
  </note>
  <outline>
    <contour>
      <point x="177" y="0" type="line"/>
      <point x="177" y="329" type="line"/>
      <point x="209" y="363"/>
      <point x="249" y="381"/>
      <point x="310" y="381" type="curve" smooth="yes"/>
      <point x="329" y="381"/>
      <point x="352" y="379"/>
      <point x="373" y="372" type="curve"/>
      <point x="373" y="0" type="line"/>
      <point x="481" y="0" type="line"/>
      <point x="481" y="344" type="line" smooth="yes"/>
      <point x="481" y="441"/>
      <point x="433" y="480"/>
      <point x="342" y="480" type="curve" smooth="yes"/>
      <point x="269" y="480"/>
      <point x="219" y="447"/>
      <point x="179" y="400" type="curve"/>
      <point x="173" y="400" type="line"/>
      <point x="177" y="476" type="line"/>
      <point x="177" y="529" type="line"/>
      <point x="308" y="529" type="line"/>
      <point x="308" y="605" type="line"/>
      <point x="177" y="605" type="line"/>
      <point x="177" y="671" type="line"/>
      <point x="69" y="671" type="line"/>
      <point x="69" y="605" type="line"/>
      <point x="6" y="605" type="line"/>
      <point x="6" y="529" type="line"/>
      <point x="69" y="529" type="line"/>
      <point x="69" y="0" type="line"/>
    </contour>
  </outline>
</glyph>
<glyph name="Itilde" format="1">
  <advance width="258"/>
  <unicode hex="0128"/>
  <note>
	Itilde
  </note>
  <outline>
    <contour>
      <point x="184" y="0" type="line"/>
      <point x="184" y="618" type="line"/>
      <point x="74" y="618" type="line"/>
      <point x="74" y="0" type="line"/>
    </contour>
    <contour>
      <point x="47" y="700"/>
      <point x="55" y="720"/>
      <point x="81" y="720" type="curve" smooth="yes"/>
      <point x="116" y="720"/>
      <point x="147" y="679"/>
      <point x="194" y="679" type="curve" smooth="yes"/>
      <point x="256" y="679"/>
      <point x="280" y="719"/>
      <point x="283" y="791" type="curve"/>
      <point x="213" y="811" type="line"/>
      <point x="211" y="785"/>
      <point x="204" y="765"/>
      <point x="177" y="765" type="curve" smooth="yes"/>
      <point x="148" y="765"/>
      <point x="112" y="806"/>
      <point x="67" y="806" type="curve" smooth="yes"/>
      <point x="3" y="806"/>
      <point x="-21" y="766"/>
      <point x="-24" y="694" type="curve"/>
      <point x="45" y="673" type="line"/>
    </contour>
  </outline>
</glyph>
<glyph name="itilde" format="1">
  <advance width="248"/>
  <unicode hex="0129"/>
  <note>
	itilde
  </note>
  <outline>
    <contour>
      <point x="177" y="0" type="line"/>
      <point x="177" y="470" type="line"/>
      <point x="71" y="470" type="line"/>
      <point x="71" y="0" type="line"/>
    </contour>
    <contour>
      <point x="38" y="534"/>
      <point x="45" y="554"/>
      <point x="71" y="554" type="curve" smooth="yes"/>
      <point x="106" y="554"/>
      <point x="137" y="513"/>
      <point x="184" y="513" type="curve" smooth="yes"/>
      <point x="246" y="513"/>
      <point x="270" y="553"/>
      <point x="273" y="625" type="curve"/>
      <point x="204" y="646" type="line"/>
      <point x="201" y="619"/>
      <point x="194" y="600"/>
      <point x="168" y="600" type="curve" smooth="yes"/>
      <point x="139" y="600"/>
      <point x="102" y="641"/>
      <point x="57" y="641" type="curve" smooth="yes"/>
      <point x="-7" y="641"/>
      <point x="-31" y="600"/>
      <point x="-34" y="528" type="curve"/>
      <point x="35" y="508" type="line"/>
    </contour>
  </outline>
</glyph>
<glyph name="Iogonek" format="1">
  <advance width="260"/>
  <unicode hex="012E"/>
  <note>
	Iogonek
  </note>
  <outline>
    <contour>
      <point x="185" y="3" type="line"/>
      <point x="185" y="618" type="line"/>
      <point x="75" y="618" type="line"/>
      <point x="75" y="3" type="line"/>
    </contour>
    <contour>
      <point x="179" y="-175"/>
      <point x="204" y="-169"/>
      <point x="223" y="-161" type="curve"/>
      <point x="205" y="-90" type="line"/>
      <point x="192" y="-94"/>
      <point x="179" y="-95"/>
      <point x="166" y="-95" type="curve" smooth="yes"/>
      <point x="152" y="-95"/>
      <point x="140" y="-94"/>
      <point x="130" y="-91" type="curve"/>
      <point x="128" y="-85"/>
      <point x="127" y="-79"/>
      <point x="127" y="-71" type="curve" smooth="yes"/>
      <point x="127" y="-38"/>
      <point x="144" y="-18"/>
      <point x="184" y="3" type="curve"/>
      <point x="105" y="17" type="line"/>
      <point x="63" y="-11"/>
      <point x="31" y="-40"/>
      <point x="31" y="-91" type="curve" smooth="yes"/>
      <point x="31" y="-145"/>
      <point x="71" y="-175"/>
      <point x="147" y="-175" type="curve" smooth="yes"/>
    </contour>
  </outline>
</glyph>
<glyph name="iogonek" format="1">
  <advance width="249"/>
  <unicode hex="012F"/>
  <note>
	iogonek
  </note>
  <outline>
    <contour>
      <point x="170" y="-175"/>
      <point x="195" y="-169"/>
      <point x="214" y="-161" type="curve"/>
      <point x="196" y="-90" type="line"/>
      <point x="183" y="-94"/>
      <point x="170" y="-95"/>
      <point x="157" y="-95" type="curve" smooth="yes"/>
      <point x="143" y="-95"/>
      <point x="131" y="-94"/>
      <point x="121" y="-91" type="curve"/>
      <point x="119" y="-85"/>
      <point x="118" y="-79"/>
      <point x="118" y="-71" type="curve" smooth="yes"/>
      <point x="118" y="-38"/>
      <point x="131" y="-21"/>
      <point x="178" y="0" type="curve"/>
      <point x="177" y="0" type="line"/>
      <point x="177" y="468" type="line"/>
      <point x="71" y="468" type="line"/>
      <point x="71" y="0" type="line"/>
      <point x="47" y="-19"/>
      <point x="22" y="-57"/>
      <point x="22" y="-91" type="curve" smooth="yes"/>
      <point x="22" y="-145"/>
      <point x="62" y="-175"/>
      <point x="138" y="-175" type="curve" smooth="yes"/>
    </contour>
    <contour>
      <point x="180" y="542" type="line"/>
      <point x="180" y="656" type="line"/>
      <point x="69" y="656" type="line"/>
      <point x="69" y="542" type="line"/>
    </contour>
  </outline>
</glyph>
<glyph name="Idotaccent" format="1">
  <advance width="259"/>
  <unicode hex="0130"/>
  <note>
	Idotaccent
  </note>
  <outline>
    <contour>
      <point x="184" y="0" type="line"/>
      <point x="184" y="618" type="line"/>
      <point x="74" y="618" type="line"/>
      <point x="74" y="0" type="line"/>
    </contour>
    <contour>
      <point x="172" y="668"/>
      <point x="198" y="692"/>
      <point x="198" y="732" type="curve" smooth="yes"/>
      <point x="198" y="774"/>
      <point x="172" y="798"/>
      <point x="129" y="798" type="curve" smooth="yes"/>
      <point x="86" y="798"/>
      <point x="61" y="774"/>
      <point x="61" y="732" type="curve" smooth="yes"/>
      <point x="61" y="692"/>
      <point x="86" y="668"/>
      <point x="129" y="668" type="curve" smooth="yes"/>
    </contour>
  </outline>
</glyph>
<glyph name="Lcommaaccent" format="1">
  <advance width="474"/>
  <unicode hex="013B"/>
  <note>
	Lcommaaccent
  </note>
  <outline>
    <contour>
      <point x="454" y="0" type="line"/>
      <point x="454" y="102" type="line"/>
      <point x="181" y="102" type="line"/>
      <point x="181" y="618" type="line"/>
      <point x="71" y="618" type="line"/>
      <point x="71" y="0" type="line"/>
    </contour>
    <contour>
      <point x="327" y="-222"/>
      <point x="348" y="-175"/>
      <point x="348" y="-132" type="curve" smooth="yes"/>
      <point x="348" y="-80"/>
      <point x="324" y="-55"/>
      <point x="271" y="-55" type="curve" smooth="yes"/>
      <point x="250" y="-55"/>
      <point x="226" y="-59"/>
      <point x="208" y="-66" type="curve"/>
      <point x="208" y="-139" type="line"/>
      <point x="261" y="-139" type="line"/>
      <point x="260" y="-174"/>
      <point x="249" y="-205"/>
      <point x="229" y="-241" type="curve"/>
      <point x="296" y="-256" type="line"/>
    </contour>
  </outline>
</glyph>
<glyph name="Lcaron" format="1">
  <advance width="474"/>
  <unicode hex="013D"/>
  <note>
	Lcaron
  </note>
  <outline>
    <contour>
      <point x="454" y="0" type="line"/>
      <point x="454" y="102" type="line"/>
      <point x="181" y="102" type="line"/>
      <point x="181" y="618" type="line"/>
      <point x="71" y="618" type="line"/>
      <point x="71" y="0" type="line"/>
    </contour>
    <contour>
      <point x="380" y="455"/>
      <point x="401" y="502"/>
      <point x="401" y="545" type="curve" smooth="yes"/>
      <point x="401" y="597"/>
      <point x="377" y="622"/>
      <point x="324" y="622" type="curve" smooth="yes"/>
      <point x="303" y="622"/>
      <point x="279" y="618"/>
      <point x="261" y="611" type="curve"/>
      <point x="261" y="538" type="line"/>
      <point x="314" y="538" type="line"/>
      <point x="313" y="503"/>
      <point x="302" y="471"/>
      <point x="282" y="436" type="curve"/>
      <point x="349" y="421" type="line"/>
    </contour>
  </outline>
</glyph>
<glyph name="lcaron" format="1">
  <advance width="358"/>
  <unicode hex="013E"/>
  <note>
	lcaron
  </note>
  <outline>
    <contour>
      <point x="212" y="-6"/>
      <point x="262" y="30"/>
      <point x="284" y="65" type="curve"/>
      <point x="244" y="118" type="line"/>
      <point x="188" y="89" type="line"/>
      <point x="175" y="89" type="line"/>
      <point x="171" y="99"/>
      <point x="170" y="109"/>
      <point x="170" y="127" type="curve" smooth="yes"/>
      <point x="170" y="671" type="line"/>
      <point x="64" y="671" type="line"/>
      <point x="64" y="90" type="line" smooth="yes"/>
      <point x="64" y="53"/>
      <point x="132" y="2"/>
      <point x="167" y="-7" type="curve"/>
    </contour>
    <contour>
      <point x="354" y="484"/>
      <point x="375" y="531"/>
      <point x="375" y="574" type="curve" smooth="yes"/>
      <point x="375" y="626"/>
      <point x="351" y="651"/>
      <point x="298" y="651" type="curve" smooth="yes"/>
      <point x="277" y="651"/>
      <point x="253" y="647"/>
      <point x="235" y="640" type="curve"/>
      <point x="235" y="567" type="line"/>
      <point x="288" y="567" type="line"/>
      <point x="287" y="532"/>
      <point x="276" y="501"/>
      <point x="256" y="465" type="curve"/>
      <point x="323" y="450" type="line"/>
    </contour>
  </outline>
</glyph>
<glyph name="Ldot" format="1">
  <advance width="474"/>
  <unicode hex="013F"/>
  <note>
	Ldot
  </note>
  <outline>
    <contour>
      <point x="454" y="0" type="line"/>
      <point x="454" y="102" type="line"/>
      <point x="181" y="102" type="line"/>
      <point x="181" y="618" type="line"/>
      <point x="71" y="618" type="line"/>
      <point x="71" y="0" type="line"/>
    </contour>
    <contour>
      <point x="363" y="230"/>
      <point x="391" y="256"/>
      <point x="391" y="293" type="curve" smooth="yes"/>
      <point x="391" y="329"/>
      <point x="362" y="356"/>
      <point x="326" y="356" type="curve" smooth="yes"/>
      <point x="289" y="356"/>
      <point x="261" y="329"/>
      <point x="261" y="293" type="curve" smooth="yes"/>
      <point x="261" y="256"/>
      <point x="289" y="230"/>
      <point x="326" y="230" type="curve" smooth="yes"/>
    </contour>
  </outline>
</glyph>
<glyph name="Nacute" format="1">
  <advance width="642"/>
  <unicode hex="0143"/>
  <note>
	Nacute
  </note>
  <outline>
    <contour>
      <point x="181" y="0" type="line"/>
      <point x="181" y="316" type="line"/>
      <point x="170" y="476" type="line"/>
      <point x="178" y="478" type="line"/>
      <point x="436" y="0" type="line"/>
      <point x="571" y="0" type="line"/>
      <point x="571" y="618" type="line"/>
      <point x="460" y="618" type="line"/>
      <point x="460" y="301" type="line"/>
      <point x="471" y="142" type="line"/>
      <point x="463" y="140" type="line"/>
      <point x="206" y="618" type="line"/>
      <point x="71" y="618" type="line"/>
      <point x="71" y="0" type="line"/>
    </contour>
    <contour>
      <point x="477" y="834" type="line"/>
      <point x="352" y="847" type="line"/>
      <point x="269" y="694" type="line"/>
      <point x="348" y="680" type="line"/>
    </contour>
  </outline>
</glyph>
<glyph name="Ncommaaccent" format="1">
  <advance width="642"/>
  <unicode hex="0145"/>
  <note>
	Ncommaaccent
  </note>
  <outline>
    <contour>
      <point x="181" y="0" type="line"/>
      <point x="181" y="316" type="line"/>
      <point x="170" y="476" type="line"/>
      <point x="178" y="478" type="line"/>
      <point x="436" y="0" type="line"/>
      <point x="571" y="0" type="line"/>
      <point x="571" y="618" type="line"/>
      <point x="460" y="618" type="line"/>
      <point x="460" y="301" type="line"/>
      <point x="471" y="142" type="line"/>
      <point x="463" y="140" type="line"/>
      <point x="206" y="618" type="line"/>
      <point x="71" y="618" type="line"/>
      <point x="71" y="0" type="line"/>
    </contour>
    <contour>
      <point x="394" y="-222"/>
      <point x="415" y="-175"/>
      <point x="415" y="-132" type="curve" smooth="yes"/>
      <point x="415" y="-80"/>
      <point x="391" y="-55"/>
      <point x="338" y="-55" type="curve" smooth="yes"/>
      <point x="317" y="-55"/>
      <point x="293" y="-59"/>
      <point x="275" y="-66" type="curve"/>
      <point x="275" y="-139" type="line"/>
      <point x="328" y="-139" type="line"/>
      <point x="327" y="-174"/>
      <point x="316" y="-205"/>
      <point x="296" y="-241" type="curve"/>
      <point x="363" y="-256" type="line"/>
    </contour>
  </outline>
</glyph>
<glyph name="ncommaaccent" format="1">
  <advance width="544"/>
  <unicode hex="0146"/>
  <note>
	ncommaaccent
  </note>
  <outline>
    <contour>
      <point x="181" y="0" type="line"/>
      <point x="181" y="330" type="line"/>
      <point x="211" y="363"/>
      <point x="252" y="381"/>
      <point x="314" y="381" type="curve" smooth="yes"/>
      <point x="333" y="381"/>
      <point x="355" y="379"/>
      <point x="375" y="372" type="curve"/>
      <point x="375" y="0" type="line"/>
      <point x="482" y="0" type="line"/>
      <point x="482" y="344" type="line" smooth="yes"/>
      <point x="482" y="439"/>
      <point x="437" y="480"/>
      <point x="346" y="480" type="curve" smooth="yes"/>
      <point x="271" y="480"/>
      <point x="221" y="445"/>
      <point x="184" y="398" type="curve"/>
      <point x="176" y="398" type="line"/>
      <point x="170" y="471" type="line"/>
      <point x="74" y="471" type="line"/>
      <point x="74" y="0" type="line"/>
    </contour>
    <contour>
      <point x="336" y="-222"/>
      <point x="357" y="-175"/>
      <point x="357" y="-132" type="curve" smooth="yes"/>
      <point x="357" y="-80"/>
      <point x="333" y="-55"/>
      <point x="280" y="-55" type="curve" smooth="yes"/>
      <point x="259" y="-55"/>
      <point x="235" y="-59"/>
      <point x="217" y="-66" type="curve"/>
      <point x="217" y="-139" type="line"/>
      <point x="270" y="-139" type="line"/>
      <point x="269" y="-174"/>
      <point x="258" y="-205"/>
      <point x="238" y="-241" type="curve"/>
      <point x="305" y="-256" type="line"/>
    </contour>
  </outline>
</glyph>
<glyph name="Ncaron" format="1">
  <advance width="642"/>
  <unicode hex="0147"/>
  <note>
	Ncaron
  </note>
  <outline>
    <contour>
      <point x="181" y="0" type="line"/>
      <point x="181" y="316" type="line"/>
      <point x="170" y="476" type="line"/>
      <point x="178" y="478" type="line"/>
      <point x="436" y="0" type="line"/>
      <point x="571" y="0" type="line"/>
      <point x="571" y="618" type="line"/>
      <point x="460" y="618" type="line"/>
      <point x="460" y="301" type="line"/>
      <point x="471" y="142" type="line"/>
      <point x="463" y="140" type="line"/>
      <point x="206" y="618" type="line"/>
      <point x="71" y="618" type="line"/>
      <point x="71" y="0" type="line"/>
    </contour>
    <contour>
      <point x="373" y="684" type="line"/>
      <point x="470" y="821" type="line"/>
      <point x="406" y="833" type="line"/>
      <point x="329" y="764" type="line"/>
      <point x="323" y="764" type="line"/>
      <point x="244" y="833" type="line"/>
      <point x="181" y="821" type="line"/>
      <point x="279" y="684" type="line"/>
    </contour>
  </outline>
</glyph>
<glyph name="Eng" format="1">
  <advance width="642"/>
  <unicode hex="014A"/>
  <note>
	Eng
  </note>
  <outline>
    <contour>
      <point x="522" y="-202"/>
      <point x="571" y="-131"/>
      <point x="571" y="-8" type="curve" smooth="yes"/>
      <point x="571" y="618" type="line"/>
      <point x="460" y="618" type="line"/>
      <point x="460" y="301" type="line"/>
      <point x="471" y="142" type="line"/>
      <point x="463" y="140" type="line"/>
      <point x="206" y="618" type="line"/>
      <point x="71" y="618" type="line"/>
      <point x="71" y="0" type="line"/>
      <point x="181" y="0" type="line"/>
      <point x="181" y="316" type="line"/>
      <point x="170" y="476" type="line"/>
      <point x="178" y="478" type="line"/>
      <point x="446" y="0" type="line"/>
      <point x="446" y="-30" type="line" smooth="yes"/>
      <point x="446" y="-57"/>
      <point x="444" y="-80"/>
      <point x="440" y="-99" type="curve"/>
      <point x="407" y="-117"/>
      <point x="366" y="-128"/>
      <point x="319" y="-137" type="curve"/>
      <point x="357" y="-242" type="line"/>
    </contour>
  </outline>
</glyph>
<glyph name="omacron" format="1">
  <advance width="532"/>
  <unicode hex="014D"/>
  <note>
	omacron
  </note>
  <outline>
    <contour>
      <point x="420" y="-8"/>
      <point x="486" y="86"/>
      <point x="486" y="236" type="curve" smooth="yes"/>
      <point x="486" y="380"/>
      <point x="432" y="481"/>
      <point x="279" y="481" type="curve" smooth="yes"/>
      <point x="119" y="481"/>
      <point x="46" y="380"/>
      <point x="46" y="229" type="curve" smooth="yes"/>
      <point x="46" y="85"/>
      <point x="100" y="-8"/>
      <point x="253" y="-8" type="curve" smooth="yes"/>
    </contour>
    <contour>
      <point x="173" y="83"/>
      <point x="152" y="127"/>
      <point x="152" y="240" type="curve" smooth="yes"/>
      <point x="152" y="299"/>
      <point x="159" y="343"/>
      <point x="172" y="373" type="curve"/>
      <point x="195" y="382"/>
      <point x="227" y="387"/>
      <point x="258" y="387" type="curve" smooth="yes"/>
      <point x="360" y="387"/>
      <point x="380" y="338"/>
      <point x="380" y="223" type="curve" smooth="yes"/>
      <point x="380" y="165"/>
      <point x="373" y="126"/>
      <point x="360" y="97" type="curve"/>
      <point x="337" y="88"/>
      <point x="306" y="83"/>
      <point x="274" y="83" type="curve" smooth="yes"/>
    </contour>
    <contour>
      <point x="411" y="540" type="line"/>
      <point x="411" y="625" type="line"/>
      <point x="120" y="625" type="line"/>
      <point x="120" y="540" type="line"/>
    </contour>
  </outline>
</glyph>
<glyph name="ohungarumlaut" format="1">
  <advance width="532"/>
  <unicode hex="0151"/>
  <note>
	ohungarumlaut
  </note>
  <outline>
    <contour>
      <point x="420" y="-8"/>
      <point x="486" y="86"/>
      <point x="486" y="236" type="curve" smooth="yes"/>
      <point x="486" y="380"/>
      <point x="432" y="481"/>
      <point x="279" y="481" type="curve" smooth="yes"/>
      <point x="119" y="481"/>
      <point x="46" y="380"/>
      <point x="46" y="229" type="curve" smooth="yes"/>
      <point x="46" y="85"/>
      <point x="100" y="-8"/>
      <point x="253" y="-8" type="curve" smooth="yes"/>
    </contour>
    <contour>
      <point x="173" y="83"/>
      <point x="152" y="127"/>
      <point x="152" y="240" type="curve" smooth="yes"/>
      <point x="152" y="299"/>
      <point x="159" y="343"/>
      <point x="172" y="373" type="curve"/>
      <point x="195" y="382"/>
      <point x="227" y="387"/>
      <point x="258" y="387" type="curve" smooth="yes"/>
      <point x="360" y="387"/>
      <point x="380" y="338"/>
      <point x="380" y="223" type="curve" smooth="yes"/>
      <point x="380" y="165"/>
      <point x="373" y="126"/>
      <point x="360" y="97" type="curve"/>
      <point x="337" y="88"/>
      <point x="306" y="83"/>
      <point x="274" y="83" type="curve" smooth="yes"/>
    </contour>
    <contour>
      <point x="226" y="568"/>
      <point x="248" y="614"/>
      <point x="248" y="657" type="curve" smooth="yes"/>
      <point x="248" y="709"/>
      <point x="224" y="735"/>
      <point x="171" y="735" type="curve" smooth="yes"/>
      <point x="150" y="735"/>
      <point x="127" y="730"/>
      <point x="109" y="724" type="curve"/>
      <point x="109" y="650" type="line"/>
      <point x="162" y="650" type="line"/>
      <point x="161" y="615"/>
      <point x="150" y="584"/>
      <point x="130" y="548" type="curve"/>
      <point x="195" y="534" type="line"/>
    </contour>
    <contour>
      <point x="404" y="568"/>
      <point x="426" y="614"/>
      <point x="426" y="657" type="curve" smooth="yes"/>
      <point x="426" y="709"/>
      <point x="403" y="735"/>
      <point x="350" y="735" type="curve" smooth="yes"/>
      <point x="329" y="735"/>
      <point x="305" y="730"/>
      <point x="287" y="724" type="curve"/>
      <point x="287" y="650" type="line"/>
      <point x="340" y="650" type="line"/>
      <point x="339" y="615"/>
      <point x="328" y="584"/>
      <point x="308" y="548" type="curve"/>
      <point x="373" y="534" type="line"/>
    </contour>
  </outline>
</glyph>
<glyph name="oe" format="1">
  <advance width="825"/>
  <unicode hex="0153"/>
  <note>
	oe
  </note>
  <outline>
    <contour>
      <point x="326" y="-9"/>
      <point x="384" y="14"/>
      <point x="422" y="58" type="curve"/>
      <point x="431" y="58" type="line"/>
      <point x="468" y="16"/>
      <point x="524" y="-6"/>
      <point x="600" y="-6" type="curve" smooth="yes"/>
      <point x="690" y="-6"/>
      <point x="743" y="18"/>
      <point x="787" y="46" type="curve"/>
      <point x="757" y="129" type="line"/>
      <point x="716" y="103"/>
      <point x="674" y="85"/>
      <point x="605" y="85" type="curve" smooth="yes"/>
      <point x="519" y="85"/>
      <point x="483" y="122"/>
      <point x="481" y="198" type="curve"/>
      <point x="723" y="195" type="line"/>
      <point x="788" y="259" type="line"/>
      <point x="798" y="391"/>
      <point x="737" y="480"/>
      <point x="599" y="480" type="curve" smooth="yes"/>
      <point x="528" y="480"/>
      <point x="473" y="455"/>
      <point x="435" y="412" type="curve"/>
      <point x="429" y="412" type="line"/>
      <point x="396" y="455"/>
      <point x="345" y="481"/>
      <point x="271" y="481" type="curve" smooth="yes"/>
      <point x="111" y="481"/>
      <point x="38" y="380"/>
      <point x="38" y="229" type="curve" smooth="yes"/>
      <point x="38" y="85"/>
      <point x="92" y="-9"/>
      <point x="245" y="-9" type="curve" smooth="yes"/>
    </contour>
    <contour>
      <point x="165" y="82"/>
      <point x="144" y="127"/>
      <point x="144" y="240" type="curve" smooth="yes"/>
      <point x="144" y="299"/>
      <point x="151" y="343"/>
      <point x="164" y="373" type="curve"/>
      <point x="187" y="382"/>
      <point x="219" y="387"/>
      <point x="250" y="387" type="curve" smooth="yes"/>
      <point x="352" y="387"/>
      <point x="372" y="338"/>
      <point x="372" y="223" type="curve" smooth="yes"/>
      <point x="372" y="165"/>
      <point x="365" y="126"/>
      <point x="352" y="96" type="curve"/>
      <point x="329" y="88"/>
      <point x="298" y="82"/>
      <point x="266" y="82" type="curve" smooth="yes"/>
    </contour>
    <contour>
      <point x="481" y="349"/>
      <point x="510" y="389"/>
      <point x="595" y="389" type="curve" smooth="yes"/>
      <point x="657" y="389"/>
      <point x="690" y="359"/>
      <point x="690" y="311" type="curve" smooth="yes"/>
      <point x="690" y="302"/>
      <point x="688" y="287"/>
      <point x="685" y="274" type="curve"/>
      <point x="480" y="270" type="line"/>
    </contour>
  </outline>
</glyph>
<glyph name="rcommaaccent" format="1">
  <advance width="393"/>
  <unicode hex="0157"/>
  <note>
	rcommaaccent
  </note>
  <outline>
    <contour>
      <point x="177" y="0" type="line"/>
      <point x="177" y="288" type="line"/>
      <point x="201" y="339"/>
      <point x="253" y="360"/>
      <point x="311" y="360" type="curve" smooth="yes"/>
      <point x="356" y="360" type="line"/>
      <point x="367" y="451" type="line"/>
      <point x="360" y="461"/>
      <point x="340" y="475"/>
      <point x="329" y="475" type="curve" smooth="yes"/>
      <point x="269" y="475"/>
      <point x="211" y="438"/>
      <point x="180" y="376" type="curve"/>
      <point x="170" y="376" type="line"/>
      <point x="164" y="470" type="line"/>
      <point x="70" y="470" type="line"/>
      <point x="70" y="0" type="line"/>
    </contour>
    <contour>
      <point x="179" y="-222"/>
      <point x="200" y="-175"/>
      <point x="200" y="-132" type="curve" smooth="yes"/>
      <point x="200" y="-81"/>
      <point x="176" y="-55"/>
      <point x="123" y="-55" type="curve" smooth="yes"/>
      <point x="102" y="-55"/>
      <point x="78" y="-59"/>
      <point x="60" y="-66" type="curve"/>
      <point x="60" y="-139" type="line"/>
      <point x="113" y="-139" type="line"/>
      <point x="112" y="-174"/>
      <point x="101" y="-206"/>
      <point x="81" y="-241" type="curve"/>
      <point x="148" y="-256" type="line"/>
    </contour>
  </outline>
</glyph>
<glyph name="Rcaron" format="1">
  <advance width="599"/>
  <unicode hex="0158"/>
  <note>
	Rcaron
  </note>
  <outline>
    <contour>
      <point x="531" y="-7"/>
      <point x="554" y="-4"/>
      <point x="573" y="2" type="curve"/>
      <point x="573" y="64" type="line"/>
      <point x="527" y="73" type="line"/>
      <point x="462" y="195" type="line" smooth="yes"/>
      <point x="443" y="228"/>
      <point x="422" y="247"/>
      <point x="389" y="260" type="curve"/>
      <point x="389" y="269" type="line"/>
      <point x="462" y="304"/>
      <point x="500" y="362"/>
      <point x="500" y="443" type="curve" smooth="yes"/>
      <point x="500" y="572"/>
      <point x="414" y="628"/>
      <point x="259" y="628" type="curve" smooth="yes"/>
      <point x="190" y="628"/>
      <point x="124" y="616"/>
      <point x="71" y="600" type="curve"/>
      <point x="71" y="0" type="line"/>
      <point x="181" y="0" type="line"/>
      <point x="181" y="237" type="line"/>
      <point x="250" y="237" type="line" smooth="yes"/>
      <point x="322" y="237"/>
      <point x="335" y="209"/>
      <point x="357" y="163" type="curve" smooth="yes"/>
      <point x="413" y="44" type="line" smooth="yes"/>
      <point x="429" y="9"/>
      <point x="453" y="-7"/>
      <point x="500" y="-7" type="curve" smooth="yes"/>
    </contour>
    <contour>
      <point x="181" y="523" type="line"/>
      <point x="203" y="528"/>
      <point x="230" y="530"/>
      <point x="258" y="530" type="curve" smooth="yes"/>
      <point x="348" y="530"/>
      <point x="391" y="507"/>
      <point x="391" y="434" type="curve" smooth="yes"/>
      <point x="391" y="383"/>
      <point x="373" y="352"/>
      <point x="337" y="331" type="curve"/>
      <point x="181" y="331" type="line"/>
    </contour>
    <contour>
      <point x="324" y="684" type="line"/>
      <point x="421" y="821" type="line"/>
      <point x="357" y="833" type="line"/>
      <point x="280" y="764" type="line"/>
      <point x="274" y="764" type="line"/>
      <point x="195" y="833" type="line"/>
      <point x="132" y="821" type="line"/>
      <point x="230" y="684" type="line"/>
    </contour>
  </outline>
</glyph>
<glyph name="rcaron" format="1">
  <advance width="391"/>
  <unicode hex="0159"/>
  <note>
	rcaron
  </note>
  <outline>
    <contour>
      <point x="177" y="0" type="line"/>
      <point x="177" y="288" type="line"/>
      <point x="201" y="339"/>
      <point x="253" y="360"/>
      <point x="311" y="360" type="curve" smooth="yes"/>
      <point x="356" y="360" type="line"/>
      <point x="367" y="451" type="line"/>
      <point x="360" y="461"/>
      <point x="340" y="475"/>
      <point x="329" y="475" type="curve" smooth="yes"/>
      <point x="269" y="475"/>
      <point x="211" y="438"/>
      <point x="180" y="376" type="curve"/>
      <point x="170" y="376" type="line"/>
      <point x="164" y="470" type="line"/>
      <point x="70" y="470" type="line"/>
      <point x="70" y="0" type="line"/>
    </contour>
    <contour>
      <point x="267" y="540" type="line"/>
      <point x="364" y="677" type="line"/>
      <point x="300" y="689" type="line"/>
      <point x="223" y="620" type="line"/>
      <point x="217" y="620" type="line"/>
      <point x="138" y="689" type="line"/>
      <point x="75" y="677" type="line"/>
      <point x="173" y="540" type="line"/>
    </contour>
  </outline>
</glyph>
<glyph name="Sacute" format="1">
  <advance width="543"/>
  <unicode hex="015A"/>
  <note>
	Sacute
  </note>
  <outline>
    <contour>
      <point x="436" y="-8"/>
      <point x="494" y="75"/>
      <point x="494" y="177" type="curve" smooth="yes"/>
      <point x="494" y="291"/>
      <point x="427" y="332"/>
      <point x="301" y="359" type="curve" smooth="yes"/>
      <point x="208" y="380"/>
      <point x="176" y="399"/>
      <point x="176" y="450" type="curve" smooth="yes"/>
      <point x="176" y="507"/>
      <point x="207" y="531"/>
      <point x="281" y="531" type="curve" smooth="yes"/>
      <point x="310" y="531"/>
      <point x="333" y="529"/>
      <point x="360" y="525" type="curve"/>
      <point x="371" y="444" type="line"/>
      <point x="456" y="444" type="line"/>
      <point x="465" y="469"/>
      <point x="473" y="518"/>
      <point x="473" y="548" type="curve" smooth="yes"/>
      <point x="473" y="584" type="line"/>
      <point x="430" y="608"/>
      <point x="377" y="628"/>
      <point x="286" y="628" type="curve" smooth="yes"/>
      <point x="127" y="628"/>
      <point x="66" y="544"/>
      <point x="66" y="444" type="curve" smooth="yes"/>
      <point x="66" y="320"/>
      <point x="156" y="283"/>
      <point x="273" y="255" type="curve" smooth="yes"/>
      <point x="357" y="235"/>
      <point x="384" y="214"/>
      <point x="384" y="163" type="curve" smooth="yes"/>
      <point x="384" y="141"/>
      <point x="381" y="119"/>
      <point x="374" y="101" type="curve"/>
      <point x="346" y="95"/>
      <point x="317" y="92"/>
      <point x="273" y="92" type="curve" smooth="yes"/>
      <point x="203" y="92"/>
      <point x="141" y="106"/>
      <point x="83" y="137" type="curve"/>
      <point x="46" y="44" type="line"/>
      <point x="109" y="10"/>
      <point x="182" y="-8"/>
      <point x="266" y="-8" type="curve" smooth="yes"/>
    </contour>
    <contour>
      <point x="432" y="832" type="line"/>
      <point x="307" y="844" type="line"/>
      <point x="224" y="692" type="line"/>
      <point x="303" y="678" type="line"/>
    </contour>
  </outline>
</glyph>
<glyph name="Scedilla" format="1">
  <advance width="543"/>
  <unicode hex="015E"/>
  <note>
	Scedilla
  </note>
  <outline>
    <contour>
      <point x="366" y="-233"/>
      <point x="403" y="-196"/>
      <point x="403" y="-133" type="curve" smooth="yes"/>
      <point x="403" y="-81"/>
      <point x="378" y="-49"/>
      <point x="323" y="-49" type="curve" smooth="yes"/>
      <point x="307" y="-49"/>
      <point x="295" y="-51"/>
      <point x="284" y="-56" type="curve"/>
      <point x="320" y="-5" type="line"/>
      <point x="449" y="11"/>
      <point x="494" y="87"/>
      <point x="494" y="177" type="curve" smooth="yes"/>
      <point x="494" y="291"/>
      <point x="427" y="332"/>
      <point x="301" y="359" type="curve" smooth="yes"/>
      <point x="208" y="380"/>
      <point x="176" y="399"/>
      <point x="176" y="450" type="curve" smooth="yes"/>
      <point x="176" y="507"/>
      <point x="207" y="531"/>
      <point x="281" y="531" type="curve" smooth="yes"/>
      <point x="310" y="531"/>
      <point x="333" y="529"/>
      <point x="360" y="525" type="curve"/>
      <point x="371" y="444" type="line"/>
      <point x="456" y="444" type="line"/>
      <point x="465" y="469"/>
      <point x="473" y="518"/>
      <point x="473" y="548" type="curve" smooth="yes"/>
      <point x="473" y="584" type="line"/>
      <point x="430" y="608"/>
      <point x="377" y="628"/>
      <point x="286" y="628" type="curve" smooth="yes"/>
      <point x="127" y="628"/>
      <point x="66" y="544"/>
      <point x="66" y="444" type="curve" smooth="yes"/>
      <point x="66" y="320"/>
      <point x="156" y="283"/>
      <point x="273" y="255" type="curve" smooth="yes"/>
      <point x="357" y="235"/>
      <point x="384" y="214"/>
      <point x="384" y="163" type="curve" smooth="yes"/>
      <point x="384" y="141"/>
      <point x="381" y="119"/>
      <point x="374" y="101" type="curve"/>
      <point x="346" y="95"/>
      <point x="317" y="92"/>
      <point x="273" y="92" type="curve" smooth="yes"/>
      <point x="203" y="92"/>
      <point x="141" y="106"/>
      <point x="83" y="137" type="curve"/>
      <point x="46" y="44" type="line"/>
      <point x="101" y="14"/>
      <point x="165" y="-3"/>
      <point x="236" y="-7" type="curve"/>
      <point x="181" y="-71" type="line"/>
      <point x="227" y="-118" type="line"/>
      <point x="237" y="-113"/>
      <point x="252" y="-110"/>
      <point x="267" y="-110" type="curve" smooth="yes"/>
      <point x="294" y="-110"/>
      <point x="311" y="-117"/>
      <point x="311" y="-136" type="curve" smooth="yes"/>
      <point x="311" y="-145"/>
      <point x="310" y="-151"/>
      <point x="307" y="-158" type="curve"/>
      <point x="294" y="-161"/>
      <point x="282" y="-161"/>
      <point x="266" y="-161" type="curve" smooth="yes"/>
      <point x="245" y="-161"/>
      <point x="219" y="-157"/>
      <point x="199" y="-149" type="curve"/>
      <point x="178" y="-213" type="line"/>
      <point x="210" y="-228"/>
      <point x="245" y="-233"/>
      <point x="280" y="-233" type="curve" smooth="yes"/>
    </contour>
  </outline>
</glyph>
<glyph name="scedilla" format="1">
  <advance width="450"/>
  <unicode hex="015F"/>
  <note>
	scedilla
  </note>
  <outline>
    <contour>
      <point x="317" y="-233"/>
      <point x="354" y="-196"/>
      <point x="354" y="-133" type="curve" smooth="yes"/>
      <point x="354" y="-81"/>
      <point x="328" y="-49"/>
      <point x="274" y="-49" type="curve" smooth="yes"/>
      <point x="257" y="-49"/>
      <point x="246" y="-51"/>
      <point x="234" y="-56" type="curve"/>
      <point x="270" y="-5" type="line"/>
      <point x="366" y="9"/>
      <point x="407" y="64"/>
      <point x="407" y="134" type="curve" smooth="yes"/>
      <point x="407" y="230"/>
      <point x="350" y="254"/>
      <point x="247" y="276" type="curve" smooth="yes"/>
      <point x="172" y="291"/>
      <point x="148" y="308"/>
      <point x="148" y="344" type="curve" smooth="yes"/>
      <point x="148" y="381"/>
      <point x="169" y="396"/>
      <point x="225" y="396" type="curve" smooth="yes"/>
      <point x="249" y="396"/>
      <point x="267" y="394"/>
      <point x="283" y="392" type="curve"/>
      <point x="291" y="334" type="line"/>
      <point x="373" y="334" type="line"/>
      <point x="381" y="354"/>
      <point x="386" y="392"/>
      <point x="386" y="415" type="curve" smooth="yes"/>
      <point x="386" y="447" type="line"/>
      <point x="351" y="465"/>
      <point x="299" y="480"/>
      <point x="231" y="480" type="curve" smooth="yes"/>
      <point x="98" y="480"/>
      <point x="43" y="414"/>
      <point x="43" y="337" type="curve" smooth="yes"/>
      <point x="43" y="241"/>
      <point x="111" y="213"/>
      <point x="216" y="190" type="curve" smooth="yes"/>
      <point x="290" y="174"/>
      <point x="303" y="163"/>
      <point x="303" y="127" type="curve" smooth="yes"/>
      <point x="303" y="112"/>
      <point x="301" y="99"/>
      <point x="295" y="87" type="curve"/>
      <point x="274" y="83"/>
      <point x="250" y="81"/>
      <point x="217" y="81" type="curve" smooth="yes"/>
      <point x="168" y="81"/>
      <point x="115" y="93"/>
      <point x="71" y="115" type="curve"/>
      <point x="40" y="31" type="line"/>
      <point x="83" y="7"/>
      <point x="132" y="-4"/>
      <point x="186" y="-7" type="curve"/>
      <point x="132" y="-71" type="line"/>
      <point x="177" y="-118" type="line"/>
      <point x="187" y="-113"/>
      <point x="203" y="-110"/>
      <point x="218" y="-110" type="curve" smooth="yes"/>
      <point x="245" y="-110"/>
      <point x="261" y="-117"/>
      <point x="261" y="-136" type="curve" smooth="yes"/>
      <point x="261" y="-145"/>
      <point x="260" y="-151"/>
      <point x="258" y="-158" type="curve"/>
      <point x="244" y="-161"/>
      <point x="233" y="-161"/>
      <point x="216" y="-161" type="curve" smooth="yes"/>
      <point x="196" y="-161"/>
      <point x="169" y="-157"/>
      <point x="150" y="-149" type="curve"/>
      <point x="128" y="-213" type="line"/>
      <point x="160" y="-228"/>
      <point x="195" y="-233"/>
      <point x="230" y="-233" type="curve" smooth="yes"/>
    </contour>
  </outline>
</glyph>
<glyph name="Tcedilla" format="1">
  <advance width="570"/>
  <unicode hex="0162"/>
  <note>
	Tcedilla
  </note>
  <outline>
    <contour>
      <point x="355" y="-231"/>
      <point x="392" y="-194"/>
      <point x="392" y="-131" type="curve" smooth="yes"/>
      <point x="392" y="-80"/>
      <point x="366" y="-47"/>
      <point x="312" y="-47" type="curve" smooth="yes"/>
      <point x="296" y="-47"/>
      <point x="284" y="-49"/>
      <point x="272" y="-54" type="curve"/>
      <point x="311" y="0" type="line"/>
      <point x="340" y="0" type="line"/>
      <point x="340" y="516" type="line"/>
      <point x="538" y="516" type="line"/>
      <point x="538" y="618" type="line"/>
      <point x="32" y="618" type="line"/>
      <point x="32" y="516" type="line"/>
      <point x="230" y="516" type="line"/>
      <point x="230" y="0" type="line"/>
      <point x="170" y="-69" type="line"/>
      <point x="215" y="-116" type="line"/>
      <point x="225" y="-111"/>
      <point x="241" y="-108"/>
      <point x="256" y="-108" type="curve" smooth="yes"/>
      <point x="283" y="-108"/>
      <point x="300" y="-115"/>
      <point x="300" y="-135" type="curve" smooth="yes"/>
      <point x="300" y="-144"/>
      <point x="299" y="-150"/>
      <point x="296" y="-157" type="curve"/>
      <point x="282" y="-159"/>
      <point x="271" y="-160"/>
      <point x="255" y="-160" type="curve" smooth="yes"/>
      <point x="234" y="-160"/>
      <point x="208" y="-155"/>
      <point x="188" y="-148" type="curve"/>
      <point x="167" y="-211" type="line"/>
      <point x="199" y="-226"/>
      <point x="234" y="-231"/>
      <point x="269" y="-231" type="curve" smooth="yes"/>
    </contour>
  </outline>
</glyph>
<glyph name="tcedilla" format="1">
  <advance width="403"/>
  <unicode hex="0163"/>
  <note>
	tcedilla
  </note>
  <outline>
    <contour>
      <point x="300" y="-229"/>
      <point x="337" y="-193"/>
      <point x="337" y="-130" type="curve" smooth="yes"/>
      <point x="337" y="-78"/>
      <point x="311" y="-45"/>
      <point x="257" y="-45" type="curve" smooth="yes"/>
      <point x="241" y="-45"/>
      <point x="229" y="-47"/>
      <point x="217" y="-52" type="curve"/>
      <point x="248" y="-8" type="line"/>
      <point x="254" y="-9"/>
      <point x="261" y="-9"/>
      <point x="267" y="-9" type="curve" smooth="yes"/>
      <point x="310" y="-9"/>
      <point x="351" y="6"/>
      <point x="376" y="20" type="curve"/>
      <point x="354" y="112" type="line"/>
      <point x="326" y="99"/>
      <point x="290" y="90"/>
      <point x="263" y="90" type="curve" smooth="yes"/>
      <point x="244" y="90"/>
      <point x="231" y="93"/>
      <point x="216" y="98" type="curve"/>
      <point x="211" y="112"/>
      <point x="208" y="125"/>
      <point x="208" y="141" type="curve" smooth="yes"/>
      <point x="208" y="372" type="line"/>
      <point x="352" y="372" type="line"/>
      <point x="365" y="460" type="line"/>
      <point x="208" y="460" type="line"/>
      <point x="208" y="596" type="line"/>
      <point x="103" y="596" type="line"/>
      <point x="103" y="460" type="line"/>
      <point x="29" y="460" type="line"/>
      <point x="16" y="372" type="line"/>
      <point x="103" y="372" type="line"/>
      <point x="103" y="106" type="line" smooth="yes"/>
      <point x="103" y="52"/>
      <point x="138" y="33"/>
      <point x="177" y="5" type="curve"/>
      <point x="115" y="-68" type="line"/>
      <point x="160" y="-115" type="line"/>
      <point x="170" y="-110"/>
      <point x="186" y="-107"/>
      <point x="201" y="-107" type="curve" smooth="yes"/>
      <point x="228" y="-107"/>
      <point x="244" y="-114"/>
      <point x="244" y="-133" type="curve" smooth="yes"/>
      <point x="244" y="-142"/>
      <point x="243" y="-148"/>
      <point x="241" y="-155" type="curve"/>
      <point x="227" y="-158"/>
      <point x="216" y="-158"/>
      <point x="200" y="-158" type="curve" smooth="yes"/>
      <point x="179" y="-158"/>
      <point x="153" y="-154"/>
      <point x="133" y="-146" type="curve"/>
      <point x="111" y="-210" type="line"/>
      <point x="144" y="-225"/>
      <point x="179" y="-229"/>
      <point x="213" y="-229" type="curve" smooth="yes"/>
    </contour>
  </outline>
</glyph>
<glyph name="Tcaron" format="1">
  <advance width="570"/>
  <unicode hex="0164"/>
  <note>
	Tcaron
  </note>
  <outline>
    <contour>
      <point x="340" y="0" type="line"/>
      <point x="340" y="516" type="line"/>
      <point x="538" y="516" type="line"/>
      <point x="538" y="618" type="line"/>
      <point x="32" y="618" type="line"/>
      <point x="32" y="516" type="line"/>
      <point x="230" y="516" type="line"/>
      <point x="230" y="0" type="line"/>
    </contour>
    <contour>
      <point x="332" y="684" type="line"/>
      <point x="429" y="821" type="line"/>
      <point x="365" y="833" type="line"/>
      <point x="288" y="764" type="line"/>
      <point x="282" y="764" type="line"/>
      <point x="203" y="833" type="line"/>
      <point x="140" y="821" type="line"/>
      <point x="238" y="684" type="line"/>
    </contour>
  </outline>
</glyph>
<glyph name="Tbar" format="1">
  <advance width="570"/>
  <unicode hex="0166"/>
  <note>
	Tbar
  </note>
  <outline>
    <contour>
      <point x="340" y="0" type="line"/>
      <point x="340" y="252" type="line"/>
      <point x="455" y="252" type="line"/>
      <point x="455" y="341" type="line"/>
      <point x="340" y="341" type="line"/>
      <point x="340" y="516" type="line"/>
      <point x="538" y="516" type="line"/>
      <point x="538" y="618" type="line"/>
      <point x="32" y="618" type="line"/>
      <point x="32" y="516" type="line"/>
      <point x="230" y="516" type="line"/>
      <point x="230" y="341" type="line"/>
      <point x="115" y="341" type="line"/>
      <point x="115" y="252" type="line"/>
      <point x="230" y="252" type="line"/>
      <point x="230" y="0" type="line"/>
    </contour>
  </outline>
</glyph>
<glyph name="tbar" format="1">
  <advance width="403"/>
  <unicode hex="0167"/>
  <note>
	tbar
  </note>
  <outline>
    <contour>
      <point x="310" y="-10"/>
      <point x="351" y="5"/>
      <point x="376" y="19" type="curve"/>
      <point x="354" y="110" type="line"/>
      <point x="326" y="97"/>
      <point x="290" y="88"/>
      <point x="263" y="88" type="curve" smooth="yes"/>
      <point x="244" y="88"/>
      <point x="231" y="91"/>
      <point x="216" y="96" type="curve"/>
      <point x="211" y="110"/>
      <point x="208" y="123"/>
      <point x="208" y="139" type="curve" smooth="yes"/>
      <point x="208" y="214" type="line"/>
      <point x="319" y="214" type="line"/>
      <point x="319" y="297" type="line"/>
      <point x="208" y="297" type="line"/>
      <point x="208" y="372" type="line"/>
      <point x="352" y="372" type="line"/>
      <point x="365" y="460" type="line"/>
      <point x="208" y="460" type="line"/>
      <point x="208" y="596" type="line"/>
      <point x="103" y="596" type="line"/>
      <point x="103" y="460" type="line"/>
      <point x="29" y="460" type="line"/>
      <point x="16" y="372" type="line"/>
      <point x="103" y="372" type="line"/>
      <point x="103" y="297" type="line"/>
      <point x="27" y="297" type="line"/>
      <point x="27" y="214" type="line"/>
      <point x="103" y="214" type="line"/>
      <point x="103" y="105" type="line" smooth="yes"/>
      <point x="103" y="59"/>
      <point x="145" y="23"/>
      <point x="182" y="1" type="curve"/>
      <point x="207" y="-6"/>
      <point x="237" y="-10"/>
      <point x="267" y="-10" type="curve" smooth="yes"/>
    </contour>
  </outline>
</glyph>
<glyph name="Utilde" format="1">
  <advance width="626"/>
  <unicode hex="0168"/>
  <note>
	Utilde
  </note>
  <outline>
    <contour>
      <point x="447" y="-9"/>
      <point x="557" y="27"/>
      <point x="557" y="131" type="curve" smooth="yes"/>
      <point x="557" y="618" type="line"/>
      <point x="447" y="618" type="line"/>
      <point x="447" y="112" type="line"/>
      <point x="416" y="100"/>
      <point x="372" y="92"/>
      <point x="310" y="92" type="curve" smooth="yes"/>
      <point x="216" y="92"/>
      <point x="179" y="120"/>
      <point x="179" y="214" type="curve" smooth="yes"/>
      <point x="179" y="618" type="line"/>
      <point x="69" y="618" type="line"/>
      <point x="69" y="192" type="line" smooth="yes"/>
      <point x="69" y="63"/>
      <point x="143" y="-9"/>
      <point x="303" y="-9" type="curve" smooth="yes"/>
    </contour>
    <contour>
      <point x="234" y="702"/>
      <point x="242" y="722"/>
      <point x="268" y="722" type="curve" smooth="yes"/>
      <point x="303" y="722"/>
      <point x="334" y="681"/>
      <point x="381" y="681" type="curve" smooth="yes"/>
      <point x="443" y="681"/>
      <point x="467" y="721"/>
      <point x="470" y="793" type="curve"/>
      <point x="401" y="814" type="line"/>
      <point x="398" y="787"/>
      <point x="391" y="767"/>
      <point x="364" y="767" type="curve" smooth="yes"/>
      <point x="335" y="767"/>
      <point x="299" y="808"/>
      <point x="254" y="808" type="curve" smooth="yes"/>
      <point x="190" y="808"/>
      <point x="166" y="768"/>
      <point x="163" y="696" type="curve"/>
      <point x="232" y="675" type="line"/>
    </contour>
  </outline>
</glyph>
<glyph name="umacron" format="1">
  <advance width="538"/>
  <unicode hex="016B"/>
  <note>
	umacron
  </note>
  <outline>
    <contour>
      <point x="273" y="-8"/>
      <point x="319" y="24"/>
      <point x="359" y="72" type="curve"/>
      <point x="367" y="72" type="line"/>
      <point x="373" y="0" type="line"/>
      <point x="468" y="0" type="line"/>
      <point x="468" y="471" type="line"/>
      <point x="360" y="471" type="line"/>
      <point x="360" y="141" type="line"/>
      <point x="329" y="106"/>
      <point x="288" y="89"/>
      <point x="232" y="89" type="curve" smooth="yes"/>
      <point x="214" y="89"/>
      <point x="193" y="91"/>
      <point x="172" y="97" type="curve"/>
      <point x="172" y="471" type="line"/>
      <point x="64" y="471" type="line"/>
      <point x="64" y="132" type="line" smooth="yes"/>
      <point x="64" y="32"/>
      <point x="110" y="-8"/>
      <point x="201" y="-8" type="curve" smooth="yes"/>
    </contour>
    <contour>
      <point x="415" y="540" type="line"/>
      <point x="415" y="625" type="line"/>
      <point x="124" y="625" type="line"/>
      <point x="124" y="540" type="line"/>
    </contour>
  </outline>
</glyph>
<glyph name="Ubreve" format="1">
  <advance width="626"/>
  <unicode hex="016C"/>
  <note>
	Ubreve
  </note>
  <outline>
    <contour>
      <point x="447" y="-9"/>
      <point x="557" y="27"/>
      <point x="557" y="131" type="curve" smooth="yes"/>
      <point x="557" y="618" type="line"/>
      <point x="447" y="618" type="line"/>
      <point x="447" y="112" type="line"/>
      <point x="416" y="100"/>
      <point x="372" y="92"/>
      <point x="310" y="92" type="curve" smooth="yes"/>
      <point x="216" y="92"/>
      <point x="179" y="120"/>
      <point x="179" y="214" type="curve" smooth="yes"/>
      <point x="179" y="618" type="line"/>
      <point x="69" y="618" type="line"/>
      <point x="69" y="192" type="line" smooth="yes"/>
      <point x="69" y="63"/>
      <point x="143" y="-9"/>
      <point x="303" y="-9" type="curve" smooth="yes"/>
    </contour>
    <contour>
      <point x="407" y="681"/>
      <point x="450" y="726"/>
      <point x="458" y="805" type="curve"/>
      <point x="362" y="820" type="line"/>
      <point x="360" y="785"/>
      <point x="350" y="765"/>
      <point x="312" y="765" type="curve" smooth="yes"/>
      <point x="274" y="765"/>
      <point x="264" y="785"/>
      <point x="262" y="820" type="curve"/>
      <point x="166" y="805" type="line"/>
      <point x="174" y="726"/>
      <point x="217" y="681"/>
      <point x="312" y="681" type="curve" smooth="yes"/>
    </contour>
  </outline>
</glyph>
<glyph name="ubreve" format="1">
  <advance width="538"/>
  <unicode hex="016D"/>
  <note>
	ubreve
  </note>
  <outline>
    <contour>
      <point x="273" y="-8"/>
      <point x="319" y="24"/>
      <point x="359" y="72" type="curve"/>
      <point x="367" y="72" type="line"/>
      <point x="373" y="0" type="line"/>
      <point x="468" y="0" type="line"/>
      <point x="468" y="471" type="line"/>
      <point x="360" y="471" type="line"/>
      <point x="360" y="141" type="line"/>
      <point x="329" y="106"/>
      <point x="288" y="89"/>
      <point x="232" y="89" type="curve" smooth="yes"/>
      <point x="214" y="89"/>
      <point x="193" y="91"/>
      <point x="172" y="97" type="curve"/>
      <point x="172" y="471" type="line"/>
      <point x="64" y="471" type="line"/>
      <point x="64" y="132" type="line" smooth="yes"/>
      <point x="64" y="32"/>
      <point x="110" y="-8"/>
      <point x="201" y="-8" type="curve" smooth="yes"/>
    </contour>
    <contour>
      <point x="364" y="535"/>
      <point x="407" y="580"/>
      <point x="415" y="659" type="curve"/>
      <point x="319" y="674" type="line"/>
      <point x="317" y="639"/>
      <point x="307" y="619"/>
      <point x="269" y="619" type="curve" smooth="yes"/>
      <point x="231" y="619"/>
      <point x="221" y="639"/>
      <point x="219" y="674" type="curve"/>
      <point x="123" y="659" type="line"/>
      <point x="131" y="580"/>
      <point x="174" y="535"/>
      <point x="269" y="535" type="curve" smooth="yes"/>
    </contour>
  </outline>
</glyph>
<glyph name="uhungarumlaut" format="1">
  <advance width="538"/>
  <unicode hex="0171"/>
  <note>
	uhungarumlaut
  </note>
  <outline>
    <contour>
      <point x="273" y="-8"/>
      <point x="319" y="24"/>
      <point x="359" y="72" type="curve"/>
      <point x="367" y="72" type="line"/>
      <point x="373" y="0" type="line"/>
      <point x="468" y="0" type="line"/>
      <point x="468" y="471" type="line"/>
      <point x="360" y="471" type="line"/>
      <point x="360" y="141" type="line"/>
      <point x="329" y="106"/>
      <point x="288" y="89"/>
      <point x="232" y="89" type="curve" smooth="yes"/>
      <point x="214" y="89"/>
      <point x="193" y="91"/>
      <point x="172" y="97" type="curve"/>
      <point x="172" y="471" type="line"/>
      <point x="64" y="471" type="line"/>
      <point x="64" y="132" type="line" smooth="yes"/>
      <point x="64" y="32"/>
      <point x="110" y="-8"/>
      <point x="201" y="-8" type="curve" smooth="yes"/>
    </contour>
    <contour>
      <point x="228" y="567"/>
      <point x="250" y="614"/>
      <point x="250" y="657" type="curve" smooth="yes"/>
      <point x="250" y="708"/>
      <point x="226" y="734"/>
      <point x="173" y="734" type="curve" smooth="yes"/>
      <point x="152" y="734"/>
      <point x="129" y="730"/>
      <point x="111" y="723" type="curve"/>
      <point x="111" y="650" type="line"/>
      <point x="164" y="650" type="line"/>
      <point x="163" y="615"/>
      <point x="152" y="583"/>
      <point x="132" y="548" type="curve"/>
      <point x="197" y="533" type="line"/>
    </contour>
    <contour>
      <point x="406" y="567"/>
      <point x="428" y="614"/>
      <point x="428" y="657" type="curve" smooth="yes"/>
      <point x="428" y="708"/>
      <point x="405" y="734"/>
      <point x="352" y="734" type="curve" smooth="yes"/>
      <point x="331" y="734"/>
      <point x="307" y="730"/>
      <point x="289" y="723" type="curve"/>
      <point x="289" y="650" type="line"/>
      <point x="342" y="650" type="line"/>
      <point x="341" y="615"/>
      <point x="330" y="583"/>
      <point x="310" y="548" type="curve"/>
      <point x="375" y="533" type="line"/>
    </contour>
  </outline>
</glyph>
<glyph name="Wcircumflex" format="1">
  <advance width="850"/>
  <unicode hex="0174"/>
  <note>
	Wcircumflex
  </note>
  <outline>
    <contour>
      <point x="304" y="0" type="line"/>
      <point x="344" y="107"/>
      <point x="378" y="213"/>
      <point x="416" y="330" type="curve"/>
      <point x="429" y="330" type="line"/>
      <point x="463" y="212"/>
      <point x="501" y="99"/>
      <point x="535" y="0" type="curve"/>
      <point x="660" y="0" type="line"/>
      <point x="717" y="188"/>
      <point x="770" y="384"/>
      <point x="817" y="608" type="curve"/>
      <point x="705" y="620" type="line"/>
      <point x="670" y="407"/>
      <point x="639" y="265"/>
      <point x="606" y="125" type="curve"/>
      <point x="595" y="125" type="line"/>
      <point x="551" y="275"/>
      <point x="512" y="407"/>
      <point x="469" y="614" type="curve"/>
      <point x="359" y="604" type="line"/>
      <point x="365" y="569"/>
      <point x="374" y="533"/>
      <point x="382" y="498" type="curve"/>
      <point x="333" y="348"/>
      <point x="289" y="214"/>
      <point x="258" y="125" type="curve"/>
      <point x="250" y="125" type="line"/>
      <point x="216" y="265"/>
      <point x="184" y="407"/>
      <point x="148" y="620" type="curve"/>
      <point x="32" y="609" type="line"/>
      <point x="80" y="385"/>
      <point x="132" y="189"/>
      <point x="189" y="0" type="curve"/>
    </contour>
    <contour>
      <point x="422" y="746" type="line"/>
      <point x="428" y="746" type="line"/>
      <point x="505" y="677" type="line"/>
      <point x="569" y="689" type="line"/>
      <point x="472" y="826" type="line"/>
      <point x="378" y="826" type="line"/>
      <point x="280" y="689" type="line"/>
      <point x="343" y="677" type="line"/>
    </contour>
  </outline>
</glyph>
<glyph name="Ydieresis" format="1">
  <advance width="630"/>
  <unicode hex="0178"/>
  <note>
	Ydieresis
  </note>
  <outline>
    <contour>
      <point x="370" y="0" type="line"/>
      <point x="370" y="201" type="line"/>
      <point x="392" y="201" type="line"/>
      <point x="483" y="328"/>
      <point x="544" y="445"/>
      <point x="606" y="598" type="curve"/>
      <point x="497" y="623" type="line"/>
      <point x="445" y="490"/>
      <point x="386" y="375"/>
      <point x="329" y="288" type="curve"/>
      <point x="301" y="288" type="line"/>
      <point x="243" y="375"/>
      <point x="185" y="490"/>
      <point x="133" y="623" type="curve"/>
      <point x="24" y="598" type="line"/>
      <point x="86" y="445"/>
      <point x="147" y="328"/>
      <point x="238" y="201" type="curve"/>
      <point x="260" y="201" type="line"/>
      <point x="260" y="0" type="line"/>
    </contour>
    <contour>
      <point x="267" y="681"/>
      <point x="288" y="701"/>
      <point x="288" y="734" type="curve" smooth="yes"/>
      <point x="288" y="769"/>
      <point x="267" y="788"/>
      <point x="231" y="788" type="curve" smooth="yes"/>
      <point x="196" y="788"/>
      <point x="175" y="769"/>
      <point x="175" y="734" type="curve" smooth="yes"/>
      <point x="175" y="701"/>
      <point x="196" y="681"/>
      <point x="231" y="681" type="curve" smooth="yes"/>
    </contour>
    <contour>
      <point x="434" y="681"/>
      <point x="454" y="701"/>
      <point x="454" y="734" type="curve" smooth="yes"/>
      <point x="454" y="769"/>
      <point x="434" y="788"/>
      <point x="398" y="788" type="curve" smooth="yes"/>
      <point x="362" y="788"/>
      <point x="341" y="769"/>
      <point x="341" y="734" type="curve" smooth="yes"/>
      <point x="341" y="701"/>
      <point x="362" y="681"/>
      <point x="398" y="681" type="curve" smooth="yes"/>
    </contour>
  </outline>
</glyph>
<glyph name="Zacute" format="1">
  <advance width="578"/>
  <unicode hex="0179"/>
  <note>
	Zacute
  </note>
  <outline>
    <contour>
      <point x="533" y="0" type="line"/>
      <point x="533" y="49" type="line" smooth="yes"/>
      <point x="533" y="91"/>
      <point x="526" y="135"/>
      <point x="516" y="167" type="curve"/>
      <point x="424" y="167" type="line"/>
      <point x="424" y="97" type="line"/>
      <point x="176" y="97" type="line"/>
      <point x="176" y="111" type="line"/>
      <point x="520" y="505" type="line"/>
      <point x="520" y="618" type="line"/>
      <point x="56" y="618" type="line"/>
      <point x="56" y="569" type="line" smooth="yes"/>
      <point x="56" y="526"/>
      <point x="63" y="483"/>
      <point x="73" y="451" type="curve"/>
      <point x="165" y="451" type="line"/>
      <point x="165" y="519" type="line"/>
      <point x="394" y="519" type="line"/>
      <point x="394" y="507" type="line"/>
      <point x="46" y="107" type="line"/>
      <point x="46" y="0" type="line"/>
    </contour>
    <contour>
      <point x="434" y="831" type="line"/>
      <point x="309" y="844" type="line"/>
      <point x="226" y="691" type="line"/>
      <point x="305" y="677" type="line"/>
    </contour>
  </outline>
</glyph>
<glyph name="zacute" format="1">
  <advance width="467"/>
  <unicode hex="017A"/>
  <note>
	zacute
  </note>
  <outline>
    <contour>
      <point x="427" y="0" type="line"/>
      <point x="427" y="52" type="line" smooth="yes"/>
      <point x="427" y="81"/>
      <point x="422" y="115"/>
      <point x="414" y="140" type="curve"/>
      <point x="336" y="140" type="line"/>
      <point x="328" y="84" type="line"/>
      <point x="163" y="84" type="line"/>
      <point x="163" y="94" type="line"/>
      <point x="415" y="364" type="line"/>
      <point x="415" y="471" type="line"/>
      <point x="51" y="471" type="line"/>
      <point x="51" y="417" type="line" smooth="yes"/>
      <point x="51" y="386"/>
      <point x="56" y="350"/>
      <point x="64" y="326" type="curve"/>
      <point x="143" y="326" type="line"/>
      <point x="151" y="384" type="line"/>
      <point x="303" y="384" type="line"/>
      <point x="303" y="375" type="line"/>
      <point x="42" y="97" type="line"/>
      <point x="42" y="0" type="line"/>
    </contour>
    <contour>
      <point x="388" y="687" type="line"/>
      <point x="263" y="700" type="line"/>
      <point x="180" y="547" type="line"/>
      <point x="259" y="534" type="line"/>
    </contour>
  </outline>
</glyph>
<glyph name="florin" format="1">
  <advance width="482"/>
  <unicode hex="0192"/>
  <note>
	florin
  </note>
  <outline>
    <contour>
      <point x="166" y="-150"/>
      <point x="211" y="-92"/>
      <point x="227" y="17" type="curve" smooth="yes"/>
      <point x="278" y="378" type="line"/>
      <point x="381" y="378" type="line"/>
      <point x="407" y="467" type="line"/>
      <point x="290" y="466" type="line"/>
      <point x="295" y="503" type="line" smooth="yes"/>
      <point x="298" y="522"/>
      <point x="302" y="536"/>
      <point x="310" y="548" type="curve"/>
      <point x="326" y="556"/>
      <point x="348" y="560"/>
      <point x="371" y="560" type="curve" smooth="yes"/>
      <point x="397" y="560"/>
      <point x="415" y="555"/>
      <point x="441" y="543" type="curve"/>
      <point x="477" y="627" type="line"/>
      <point x="451" y="642"/>
      <point x="418" y="659"/>
      <point x="368" y="659" type="curve" smooth="yes"/>
      <point x="353" y="659"/>
      <point x="327" y="658"/>
      <point x="303" y="654" type="curve"/>
      <point x="262" y="632"/>
      <point x="205" y="591"/>
      <point x="197" y="538" type="curve" smooth="yes"/>
      <point x="187" y="467" type="line"/>
      <point x="131" y="467" type="line"/>
      <point x="106" y="378" type="line"/>
      <point x="175" y="378" type="line"/>
      <point x="125" y="24" type="line" smooth="yes"/>
      <point x="121" y="-3"/>
      <point x="114" y="-24"/>
      <point x="103" y="-39" type="curve"/>
      <point x="85" y="-45"/>
      <point x="68" y="-47"/>
      <point x="44" y="-47" type="curve" smooth="yes"/>
      <point x="31" y="-47"/>
      <point x="13" y="-46"/>
      <point x="0" y="-44" type="curve"/>
      <point x="-20" y="-133" type="line"/>
      <point x="0" y="-142"/>
      <point x="26" y="-150"/>
      <point x="63" y="-150" type="curve" smooth="yes"/>
    </contour>
  </outline>
</glyph>
<glyph name="ohorn" format="1">
  <advance width="579"/>
  <unicode hex="01A1"/>
  <note>
	ohorn
  </note>
  <outline>
    <contour>
      <point x="420" y="-9"/>
      <point x="486" y="86"/>
      <point x="486" y="236" type="curve" smooth="yes"/>
      <point x="486" y="269"/>
      <point x="483" y="301"/>
      <point x="477" y="327" type="curve"/>
      <point x="556" y="375"/>
      <point x="584" y="443"/>
      <point x="584" y="544" type="curve"/>
      <point x="480" y="544" type="line"/>
      <point x="479" y="480"/>
      <point x="473" y="439"/>
      <point x="452" y="403" type="curve"/>
      <point x="443" y="403" type="line"/>
      <point x="411" y="452"/>
      <point x="359" y="481"/>
      <point x="279" y="481" type="curve" smooth="yes"/>
      <point x="119" y="481"/>
      <point x="46" y="380"/>
      <point x="46" y="229" type="curve" smooth="yes"/>
      <point x="46" y="85"/>
      <point x="100" y="-9"/>
      <point x="253" y="-9" type="curve" smooth="yes"/>
    </contour>
    <contour>
      <point x="173" y="82"/>
      <point x="152" y="127"/>
      <point x="152" y="240" type="curve" smooth="yes"/>
      <point x="152" y="299"/>
      <point x="159" y="343"/>
      <point x="172" y="373" type="curve"/>
      <point x="195" y="382"/>
      <point x="227" y="387"/>
      <point x="258" y="387" type="curve" smooth="yes"/>
      <point x="360" y="387"/>
      <point x="380" y="338"/>
      <point x="380" y="223" type="curve" smooth="yes"/>
      <point x="380" y="165"/>
      <point x="373" y="126"/>
      <point x="360" y="96" type="curve"/>
      <point x="337" y="88"/>
      <point x="306" y="82"/>
      <point x="274" y="82" type="curve" smooth="yes"/>
    </contour>
  </outline>
</glyph>
<glyph name="Acaron" format="1">
  <advance width="624"/>
  <unicode hex="01CD"/>
  <note>
	Acaron
  </note>
  <outline>
    <contour>
      <point x="161" y="61"/>
      <point x="178" y="126"/>
      <point x="195" y="188" type="curve"/>
      <point x="428" y="188" type="line"/>
      <point x="445" y="125"/>
      <point x="461" y="61"/>
      <point x="477" y="0" type="curve"/>
      <point x="593" y="8" type="line"/>
      <point x="540" y="207"/>
      <point x="466" y="443"/>
      <point x="398" y="618" type="curve"/>
      <point x="226" y="618" type="line"/>
      <point x="158" y="443"/>
      <point x="84" y="207"/>
      <point x="31" y="8" type="curve"/>
      <point x="147" y="0" type="line"/>
    </contour>
    <contour>
      <point x="249" y="374"/>
      <point x="275" y="455"/>
      <point x="297" y="516" type="curve"/>
      <point x="328" y="516" type="line"/>
      <point x="349" y="455"/>
      <point x="374" y="374"/>
      <point x="401" y="285" type="curve"/>
      <point x="223" y="285" type="line"/>
    </contour>
    <contour>
      <point x="359" y="684" type="line"/>
      <point x="456" y="821" type="line"/>
      <point x="392" y="833" type="line"/>
      <point x="315" y="764" type="line"/>
      <point x="309" y="764" type="line"/>
      <point x="230" y="833" type="line"/>
      <point x="167" y="821" type="line"/>
      <point x="265" y="684" type="line"/>
    </contour>
  </outline>
</glyph>
<glyph name="Ucaron" format="1">
  <advance width="626"/>
  <unicode hex="01D3"/>
  <note>
	Ucaron
  </note>
  <outline>
    <contour>
      <point x="447" y="-9"/>
      <point x="557" y="27"/>
      <point x="557" y="131" type="curve" smooth="yes"/>
      <point x="557" y="618" type="line"/>
      <point x="447" y="618" type="line"/>
      <point x="447" y="112" type="line"/>
      <point x="416" y="100"/>
      <point x="372" y="92"/>
      <point x="310" y="92" type="curve" smooth="yes"/>
      <point x="216" y="92"/>
      <point x="179" y="120"/>
      <point x="179" y="214" type="curve" smooth="yes"/>
      <point x="179" y="618" type="line"/>
      <point x="69" y="618" type="line"/>
      <point x="69" y="192" type="line" smooth="yes"/>
      <point x="69" y="63"/>
      <point x="143" y="-9"/>
      <point x="303" y="-9" type="curve" smooth="yes"/>
    </contour>
    <contour>
      <point x="360" y="684" type="line"/>
      <point x="457" y="821" type="line"/>
      <point x="393" y="833" type="line"/>
      <point x="316" y="764" type="line"/>
      <point x="310" y="764" type="line"/>
      <point x="231" y="833" type="line"/>
      <point x="168" y="821" type="line"/>
      <point x="266" y="684" type="line"/>
    </contour>
  </outline>
</glyph>
<glyph name="Udieresismacron" format="1">
  <advance width="626"/>
  <unicode hex="01D5"/>
  <note>
	Udieresismacron
  </note>
  <outline>
    <contour>
      <point x="447" y="-9"/>
      <point x="557" y="27"/>
      <point x="557" y="131" type="curve" smooth="yes"/>
      <point x="557" y="618" type="line"/>
      <point x="447" y="618" type="line"/>
      <point x="447" y="112" type="line"/>
      <point x="416" y="100"/>
      <point x="372" y="92"/>
      <point x="310" y="92" type="curve" smooth="yes"/>
      <point x="216" y="92"/>
      <point x="179" y="120"/>
      <point x="179" y="214" type="curve" smooth="yes"/>
      <point x="179" y="618" type="line"/>
      <point x="69" y="618" type="line"/>
      <point x="69" y="192" type="line" smooth="yes"/>
      <point x="69" y="63"/>
      <point x="143" y="-9"/>
      <point x="303" y="-9" type="curve" smooth="yes"/>
    </contour>
    <contour>
      <point x="268" y="681"/>
      <point x="289" y="701"/>
      <point x="289" y="734" type="curve" smooth="yes"/>
      <point x="289" y="769"/>
      <point x="268" y="788"/>
      <point x="232" y="788" type="curve" smooth="yes"/>
      <point x="197" y="788"/>
      <point x="176" y="769"/>
      <point x="176" y="734" type="curve" smooth="yes"/>
      <point x="176" y="701"/>
      <point x="197" y="681"/>
      <point x="232" y="681" type="curve" smooth="yes"/>
    </contour>
    <contour>
      <point x="434" y="681"/>
      <point x="454" y="701"/>
      <point x="454" y="734" type="curve" smooth="yes"/>
      <point x="454" y="769"/>
      <point x="434" y="788"/>
      <point x="398" y="788" type="curve" smooth="yes"/>
      <point x="362" y="788"/>
      <point x="341" y="769"/>
      <point x="341" y="734" type="curve" smooth="yes"/>
      <point x="341" y="701"/>
      <point x="362" y="681"/>
      <point x="398" y="681" type="curve" smooth="yes"/>
    </contour>
    <contour>
      <point x="481" y="839" type="line"/>
      <point x="481" y="935" type="line"/>
      <point x="150" y="935" type="line"/>
      <point x="150" y="839" type="line"/>
    </contour>
  </outline>
</glyph>
<glyph name="Udieresisacute" format="1">
  <advance width="626"/>
  <unicode hex="01D7"/>
  <note>
	Udieresisacute
  </note>
  <outline>
    <contour>
      <point x="447" y="-9"/>
      <point x="557" y="27"/>
      <point x="557" y="131" type="curve" smooth="yes"/>
      <point x="557" y="618" type="line"/>
      <point x="447" y="618" type="line"/>
      <point x="447" y="112" type="line"/>
      <point x="416" y="100"/>
      <point x="372" y="92"/>
      <point x="310" y="92" type="curve" smooth="yes"/>
      <point x="216" y="92"/>
      <point x="179" y="120"/>
      <point x="179" y="214" type="curve" smooth="yes"/>
      <point x="179" y="618" type="line"/>
      <point x="69" y="618" type="line"/>
      <point x="69" y="192" type="line" smooth="yes"/>
      <point x="69" y="63"/>
      <point x="143" y="-9"/>
      <point x="303" y="-9" type="curve" smooth="yes"/>
    </contour>
    <contour>
      <point x="267" y="681"/>
      <point x="288" y="700"/>
      <point x="288" y="733" type="curve" smooth="yes"/>
      <point x="288" y="768"/>
      <point x="267" y="788"/>
      <point x="231" y="788" type="curve" smooth="yes"/>
      <point x="196" y="788"/>
      <point x="175" y="768"/>
      <point x="175" y="733" type="curve" smooth="yes"/>
      <point x="175" y="700"/>
      <point x="196" y="681"/>
      <point x="231" y="681" type="curve" smooth="yes"/>
    </contour>
    <contour>
      <point x="433" y="681"/>
      <point x="453" y="700"/>
      <point x="453" y="733" type="curve" smooth="yes"/>
      <point x="453" y="768"/>
      <point x="433" y="788"/>
      <point x="397" y="788" type="curve" smooth="yes"/>
      <point x="361" y="788"/>
      <point x="340" y="768"/>
      <point x="340" y="733" type="curve" smooth="yes"/>
      <point x="340" y="700"/>
      <point x="361" y="681"/>
      <point x="397" y="681" type="curve" smooth="yes"/>
    </contour>
    <contour>
      <point x="472" y="1001" type="line"/>
      <point x="347" y="1014" type="line"/>
      <point x="264" y="862" type="line"/>
      <point x="343" y="848" type="line"/>
    </contour>
  </outline>
</glyph>
<glyph name="udieresisgrave" format="1">
  <advance width="538"/>
  <unicode hex="01DC"/>
  <note>
	udieresisgrave
  </note>
  <outline>
    <contour>
      <point x="273" y="-8"/>
      <point x="319" y="24"/>
      <point x="359" y="72" type="curve"/>
      <point x="367" y="72" type="line"/>
      <point x="373" y="0" type="line"/>
      <point x="468" y="0" type="line"/>
      <point x="468" y="471" type="line"/>
      <point x="360" y="471" type="line"/>
      <point x="360" y="141" type="line"/>
      <point x="329" y="106"/>
      <point x="288" y="89"/>
      <point x="232" y="89" type="curve" smooth="yes"/>
      <point x="214" y="89"/>
      <point x="193" y="91"/>
      <point x="172" y="97" type="curve"/>
      <point x="172" y="471" type="line"/>
      <point x="64" y="471" type="line"/>
      <point x="64" y="132" type="line" smooth="yes"/>
      <point x="64" y="32"/>
      <point x="110" y="-8"/>
      <point x="201" y="-8" type="curve" smooth="yes"/>
    </contour>
    <contour>
      <point x="221" y="537"/>
      <point x="242" y="556"/>
      <point x="242" y="589" type="curve" smooth="yes"/>
      <point x="242" y="624"/>
      <point x="221" y="644"/>
      <point x="185" y="644" type="curve" smooth="yes"/>
      <point x="150" y="644"/>
      <point x="129" y="624"/>
      <point x="129" y="589" type="curve" smooth="yes"/>
      <point x="129" y="556"/>
      <point x="150" y="537"/>
      <point x="185" y="537" type="curve" smooth="yes"/>
    </contour>
    <contour>
      <point x="387" y="537"/>
      <point x="407" y="556"/>
      <point x="407" y="589" type="curve" smooth="yes"/>
      <point x="407" y="624"/>
      <point x="387" y="644"/>
      <point x="351" y="644" type="curve" smooth="yes"/>
      <point x="315" y="644"/>
      <point x="294" y="624"/>
      <point x="294" y="589" type="curve" smooth="yes"/>
      <point x="294" y="556"/>
      <point x="315" y="537"/>
      <point x="351" y="537" type="curve" smooth="yes"/>
    </contour>
    <contour>
      <point x="312" y="712" type="line"/>
      <point x="237" y="846" type="line"/>
      <point x="121" y="831" type="line"/>
      <point x="240" y="699" type="line"/>
    </contour>
  </outline>
</glyph>
